SplineFontDB: 3.2
FontName: NunitoPOJ-Regular
FullName: Nunito POJ Regular
FamilyName: NunitoPOJ
Weight: Regular
Copyright: Copyright 2014 The Nunito Project Authors (https://github.com/googlefonts/NunitoFont)
Version: 3.504
ItalicAngle: 0
UnderlinePosition: -150
UnderlineWidth: 50
Ascent: 800
Descent: 200
InvalidEm: 0
sfntRevision: 0x00038106
LayerCount: 2
Layer: 0 1 "Back" 1
Layer: 1 1 "Fore" 0
XUID: [1021 404 -861162680 10462]
StyleMap: 0x0040
FSType: 0
OS2Version: 4
OS2_WeightWidthSlopeOnly: 0
OS2_UseTypoMetrics: 1
CreationTime: 1532507533
ModificationTime: 1595330599
PfmFamily: 81
TTFWeight: 400
TTFWidth: 5
LineGap: 0
VLineGap: 0
Panose: 0 0 5 0 0 0 0 0 0 0
OS2TypoAscent: 1011
OS2TypoAOffset: 0
OS2TypoDescent: -353
OS2TypoDOffset: 0
OS2TypoLinegap: 0
OS2WinAscent: 1092
OS2WinAOffset: 0
OS2WinDescent: 281
OS2WinDOffset: 0
HheadAscent: 1011
HheadAOffset: 0
HheadDescent: -353
HheadDOffset: 0
OS2SubXSize: 650
OS2SubYSize: 600
OS2SubXOff: 0
OS2SubYOff: 75
OS2SupXSize: 650
OS2SupYSize: 600
OS2SupXOff: 0
OS2SupYOff: 350
OS2StrikeYSize: 50
OS2StrikeYPos: 292
OS2CapHeight: 705
OS2XHeight: 487
OS2Vendor: 'NeWT'
OS2CodePages: 20000197.00000000
OS2UnicodeRanges: 2000020f.00000003.00000000.00000000
Lookup: 4 0 1 "'liga' Pehoeji Ligatures lookup 38" { "'liga' Pehoeji Ligatures lookup 38-1"  } ['liga' ('DFLT' <'dflt' > 'cyrl' <'BSH ' 'CHU ' 'dflt' > 'grek' <'dflt' > 'latn' <'AZE ' 'CAT ' 'CRT ' 'KAZ ' 'MOL ' 'NLD ' 'ROM ' 'TAT ' 'TRK ' 'dflt' > ) ]
Lookup: 1 0 0 "'aalt' Access All Alternates lookup 0" { "'aalt' Access All Alternates lookup 0 subtable"  } ['aalt' ('DFLT' <'dflt' > 'cyrl' <'dflt' > 'latn' <'AZE ' 'CAT ' 'CRT ' 'KAZ ' 'MOL ' 'NLD ' 'ROM ' 'TAT ' 'TRK ' 'dflt' > ) ]
Lookup: 3 0 0 "'aalt' Access All Alternates lookup 1" { "'aalt' Access All Alternates lookup 1 subtable"  } ['aalt' ('DFLT' <'dflt' > 'cyrl' <'dflt' > 'latn' <'AZE ' 'CAT ' 'CRT ' 'KAZ ' 'MOL ' 'NLD ' 'ROM ' 'TAT ' 'TRK ' 'dflt' > ) ]

StartChar: .notdef
Encoding: 928 -1 0
Width: 443
Flags: W
LayerCount: 2
Fore
SplineSet
363 -180 m 1,0,-1
 82 -180 l 1,1,-1
 82 705 l 1,2,-1
 363 705 l 1,3,-1
 363 -180 l 1,0,-1
149 646 m 1,4,-1
 149 617 l 1,5,-1
 206 617 l 1,6,-1
 206 584 l 1,7,-1
 148 584 l 1,8,-1
 148 555 l 1,9,-1
 295 555 l 1,10,-1
 295 584 l 1,11,-1
 236 584 l 1,12,-1
 236 617 l 1,13,-1
 295 617 l 1,14,-1
 295 646 l 1,15,-1
 149 646 l 1,4,-1
148 532 m 1,16,-1
 148 440 l 1,17,-1
 295 440 l 1,18,-1
 295 470 l 1,19,-1
 236 470 l 1,20,-1
 236 532 l 1,21,-1
 148 532 l 1,16,-1
206 470 m 1,22,-1
 177 470 l 1,23,-1
 177 501 l 1,24,-1
 206 501 l 1,25,-1
 206 470 l 1,22,-1
148 416 m 1,26,-1
 148 386 l 1,27,-1
 206 386 l 1,28,-1
 206 354 l 1,29,-1
 148 354 l 1,30,-1
 148 324 l 1,31,-1
 236 324 l 1,32,-1
 236 386 l 1,33,-1
 295 386 l 1,34,-1
 295 416 l 1,35,-1
 148 416 l 1,26,-1
266 363 m 1,36,-1
 266 304 l 1,37,-1
 148 304 l 1,38,-1
 148 274 l 1,39,-1
 295 274 l 1,40,-1
 295 363 l 1,41,-1
 266 363 l 1,36,-1
206 255 m 1,42,-1
 206 205 l 1,43,-1
 236 205 l 1,44,-1
 236 225 l 1,45,-1
 266 225 l 1,46,-1
 266 184 l 1,47,-1
 177 184 l 1,48,-1
 177 255 l 1,49,-1
 148 255 l 1,50,-1
 148 155 l 1,51,-1
 295 155 l 1,52,-1
 295 255 l 1,53,-1
 206 255 l 1,42,-1
148 101 m 1,54,-1
 148 1 l 1,55,-1
 295 1 l 1,56,-1
 295 101 l 1,57,-1
 148 101 l 1,54,-1
266 31 m 1,58,-1
 177 31 l 1,59,-1
 177 72 l 1,60,-1
 266 72 l 1,61,-1
 266 31 l 1,58,-1
148 -19 m 1,62,-1
 148 -48 l 1,63,-1
 210 -48 l 1,64,-1
 148 -90 l 1,65,-1
 148 -119 l 1,66,-1
 295 -119 l 1,67,-1
 295 -90 l 1,68,-1
 204 -90 l 1,69,-1
 266 -48 l 1,70,-1
 295 -48 l 1,71,-1
 295 -19 l 1,72,-1
 148 -19 l 1,62,-1
EndSplineSet
EndChar

StartChar: exclam
Encoding: 3 33 5
Width: 229
GlyphClass: 2
Flags: W
LayerCount: 2
Fore
SplineSet
97 186.5 m 128,-1,1
 90 194 90 194 89 207 c 2,2,-1
 65 660 l 2,3,4
 63 683 63 683 77 696.5 c 128,-1,5
 91 710 91 710 114 710 c 256,6,7
 137 710 137 710 151 696.5 c 128,-1,8
 165 683 165 683 163 660 c 2,9,-1
 139 207 l 2,10,11
 138 193 138 193 131 186 c 128,-1,12
 124 179 124 179 114 179 c 256,13,0
 104 179 104 179 97 186.5 c 128,-1,1
75 10.5 m 128,-1,15
 59 26 59 26 59 51 c 256,16,17
 59 76 59 76 75 92 c 128,-1,18
 91 108 91 108 115 108 c 0,19,20
 138 108 138 108 153.5 92 c 128,-1,21
 169 76 169 76 169 51 c 256,22,23
 169 26 169 26 153.5 10.5 c 128,-1,24
 138 -5 138 -5 115 -5 c 0,25,14
 91 -5 91 -5 75 10.5 c 128,-1,15
EndSplineSet
EndChar

StartChar: numbersign
Encoding: 5 35 7
Width: 600
GlyphClass: 2
Flags: W
LayerCount: 2
Fore
SplineSet
468 472 m 1,0,-1
 423 241 l 1,1,-1
 521 241 l 2,2,3
 534 241 534 241 543.5 232 c 128,-1,4
 553 223 553 223 553 210 c 0,5,6
 553 198 553 198 544 190 c 128,-1,7
 535 182 535 182 521 182 c 2,8,-1
 412 182 l 1,9,-1
 380 19 l 2,10,11
 378 8 378 8 369.5 1.5 c 128,-1,12
 361 -5 361 -5 350 -5 c 0,13,14
 334 -5 334 -5 324.5 6.5 c 128,-1,15
 315 18 315 18 319 35 c 2,16,-1
 348 182 l 1,17,-1
 188 182 l 1,18,-1
 156 19 l 2,19,20
 155 9 155 9 146.5 2 c 128,-1,21
 138 -5 138 -5 127 -5 c 0,22,23
 114 -5 114 -5 105 4 c 128,-1,24
 96 13 96 13 96 26 c 0,25,26
 96 32 96 32 97 35 c 2,27,-1
 126 182 l 1,28,-1
 59 182 l 2,29,30
 45 182 45 182 36 191 c 128,-1,31
 27 200 27 200 27 213 c 0,32,33
 27 225 27 225 36 233 c 128,-1,34
 45 241 45 241 59 241 c 2,35,-1
 137 241 l 1,36,-1
 182 472 l 1,37,-1
 79 472 l 2,38,39
 66 472 66 472 56.5 481 c 128,-1,40
 47 490 47 490 47 503 c 0,41,42
 47 515 47 515 56 523 c 128,-1,43
 65 531 65 531 79 531 c 2,44,-1
 193 531 l 1,45,-1
 224 689 l 2,46,47
 226 700 226 700 234.5 706.5 c 128,-1,48
 243 713 243 713 254 713 c 0,49,50
 268 713 268 713 276.5 704.5 c 128,-1,51
 285 696 285 696 285 682 c 0,52,53
 285 676 285 676 284 673 c 2,54,-1
 256 531 l 1,55,-1
 416 531 l 1,56,-1
 447 689 l 2,57,58
 448 699 448 699 457 706 c 128,-1,59
 466 713 466 713 477 713 c 0,60,61
 491 713 491 713 499.5 704.5 c 128,-1,62
 508 696 508 696 508 682 c 0,63,64
 508 676 508 676 507 673 c 2,65,-1
 479 531 l 1,66,-1
 541 531 l 2,67,68
 555 531 555 531 564 522 c 128,-1,69
 573 513 573 513 573 500 c 0,70,71
 573 488 573 488 564 480 c 128,-1,72
 555 472 555 472 541 472 c 2,73,-1
 468 472 l 1,0,-1
359 241 m 1,74,-1
 405 472 l 1,75,-1
 245 472 l 1,76,-1
 199 241 l 1,77,-1
 359 241 l 1,74,-1
EndSplineSet
EndChar

StartChar: dollar
Encoding: 6 36 8
Width: 600
GlyphClass: 2
Flags: W
LayerCount: 2
Fore
SplineSet
494.5 58.5 m 128,-1,1
 438 5 438 5 345 -6 c 1,2,-1
 345 -83 l 2,3,4
 345 -100 345 -100 335.5 -110 c 128,-1,5
 326 -120 326 -120 310 -120 c 256,6,7
 294 -120 294 -120 284.5 -110 c 128,-1,8
 275 -100 275 -100 275 -83 c 2,9,-1
 275 -7 l 1,10,11
 214 -3 214 -3 157 17 c 128,-1,12
 100 37 100 37 60 74 c 0,13,14
 44 87 44 87 44 108 c 0,15,16
 44 122 44 122 52 132.5 c 128,-1,17
 60 143 60 143 71 143 c 0,18,19
 83 143 83 143 100 132 c 0,20,21
 200 62 200 62 301 62 c 0,22,23
 380 62 380 62 424 95 c 128,-1,24
 468 128 468 128 468 189 c 0,25,26
 468 225 468 225 445.5 247.5 c 128,-1,27
 423 270 423 270 388.5 282.5 c 128,-1,28
 354 295 354 295 295 309 c 0,29,30
 219 328 219 328 172.5 347 c 128,-1,31
 126 366 126 366 93 405 c 128,-1,32
 60 444 60 444 60 510 c 0,33,34
 60 564 60 564 87 607.5 c 128,-1,35
 114 651 114 651 162.5 678 c 128,-1,36
 211 705 211 705 274 711 c 1,37,-1
 274 788 l 2,38,39
 274 804 274 804 284 814.5 c 128,-1,40
 294 825 294 825 309 825 c 0,41,42
 325 825 325 825 334.5 815 c 128,-1,43
 344 805 344 805 344 788 c 2,44,-1
 344 711 l 1,45,46
 397 706 397 706 446 686 c 128,-1,47
 495 666 495 666 529 631 c 0,48,49
 546 617 546 617 546 597 c 0,50,51
 546 583 546 583 537.5 572.5 c 128,-1,52
 529 562 529 562 518 562 c 0,53,54
 505 562 505 562 490 573 c 0,55,56
 446 609 446 609 404.5 626 c 128,-1,57
 363 643 363 643 308 643 c 0,58,59
 232 643 232 643 187.5 608 c 128,-1,60
 143 573 143 573 143 513 c 0,61,62
 143 471 143 471 167.5 446 c 128,-1,63
 192 421 192 421 228 407.5 c 128,-1,64
 264 394 264 394 327 378 c 0,65,66
 400 360 400 360 444.5 342 c 128,-1,67
 489 324 489 324 520 287.5 c 128,-1,68
 551 251 551 251 551 190 c 0,69,0
 551 112 551 112 494.5 58.5 c 128,-1,1
EndSplineSet
EndChar

StartChar: percent
Encoding: 7 37 9
Width: 930
GlyphClass: 2
Flags: W
LayerCount: 2
Fore
SplineSet
270 -17 m 0,1,2
 257 -17 257 -17 247.5 -8 c 128,-1,3
 238 1 238 1 238 16 c 0,4,5
 238 28 238 28 245 39 c 2,6,-1
 627 700 l 2,7,8
 640 722 640 722 660 722 c 0,9,10
 673 722 673 722 682.5 712.5 c 128,-1,11
 692 703 692 703 692 689 c 0,12,13
 692 678 692 678 686 666 c 2,14,-1
 303 5 l 2,15,0
 290 -17 290 -17 270 -17 c 0,1,2
100 336.5 m 128,-1,17
 55 391 55 391 55 498 c 0,18,19
 55 604 55 604 100 658.5 c 128,-1,20
 145 713 145 713 225 713 c 256,21,22
 305 713 305 713 350 658.5 c 128,-1,23
 395 604 395 604 395 498 c 0,24,25
 395 391 395 391 350 336.5 c 128,-1,26
 305 282 305 282 225 282 c 256,27,16
 145 282 145 282 100 336.5 c 128,-1,17
297.5 378 m 128,-1,29
 321 416 321 416 321 498 c 0,30,31
 321 579 321 579 297.5 617 c 128,-1,32
 274 655 274 655 225 655 c 256,33,34
 176 655 176 655 152 617 c 128,-1,35
 128 579 128 579 128 498 c 0,36,37
 128 416 128 416 152 378 c 128,-1,38
 176 340 176 340 225 340 c 256,39,28
 274 340 274 340 297.5 378 c 128,-1,29
580 47.5 m 128,-1,41
 535 102 535 102 535 209 c 0,42,43
 535 315 535 315 580 369.5 c 128,-1,44
 625 424 625 424 705 424 c 0,45,46
 786 424 786 424 830.5 370 c 128,-1,47
 875 316 875 316 875 209 c 256,48,49
 875 102 875 102 830.5 47.5 c 128,-1,50
 786 -7 786 -7 705 -7 c 0,51,40
 625 -7 625 -7 580 47.5 c 128,-1,41
778.5 88.5 m 128,-1,53
 802 126 802 126 802 209 c 0,54,55
 802 290 802 290 778 328 c 128,-1,56
 754 366 754 366 705 366 c 256,57,58
 656 366 656 366 632.5 328 c 128,-1,59
 609 290 609 290 609 209 c 0,60,61
 609 127 609 127 632.5 89 c 128,-1,62
 656 51 656 51 705 51 c 0,63,52
 755 51 755 51 778.5 88.5 c 128,-1,53
EndSplineSet
EndChar

StartChar: ampersand
Encoding: 8 38 10
Width: 664
GlyphClass: 2
Flags: W
LayerCount: 2
Fore
SplineSet
655 26 m 256,1,2
 655 13 655 13 644.5 2.5 c 128,-1,3
 634 -8 634 -8 620 -8 c 256,4,5
 606 -8 606 -8 595 3 c 2,6,-1
 503 99 l 1,7,8
 458 47 458 47 400 20 c 128,-1,9
 342 -7 342 -7 278 -7 c 0,10,11
 212 -7 212 -7 161 15.5 c 128,-1,12
 110 38 110 38 81 80 c 128,-1,13
 52 122 52 122 52 177 c 0,14,15
 52 243 52 243 93 294.5 c 128,-1,16
 134 346 134 346 218 395 c 1,17,18
 174 441 174 441 153.5 478 c 128,-1,19
 133 515 133 515 133 558 c 0,20,21
 133 630 133 630 182 671 c 128,-1,22
 231 712 231 712 306 712 c 0,23,24
 378 712 378 712 421 674 c 128,-1,25
 464 636 464 636 464 570 c 0,26,27
 464 516 464 516 430.5 474 c 128,-1,28
 397 432 397 432 325 386 c 1,29,-1
 494 208 l 1,30,31
 528 281 528 281 534 382 c 0,32,33
 535 400 535 400 546 409.5 c 128,-1,34
 557 419 557 419 571 419 c 0,35,36
 586 419 586 419 596 408.5 c 128,-1,37
 606 398 606 398 605 380 c 0,38,39
 596 250 596 250 543 156 c 1,40,-1
 645 50 l 2,41,0
 655 39 655 39 655 26 c 256,1,2
237 625 m 128,-1,43
 210 600 210 600 210 558 c 0,44,45
 210 527 210 527 226.5 499 c 128,-1,46
 243 471 243 471 280 433 c 1,47,48
 342 473 342 473 367.5 502 c 128,-1,49
 393 531 393 531 393 566 c 0,50,51
 393 604 393 604 369.5 627 c 128,-1,52
 346 650 346 650 307 650 c 0,53,42
 264 650 264 650 237 625 c 128,-1,43
376 81 m 128,-1,55
 421 103 421 103 456 147 c 1,56,-1
 262 348 l 1,57,58
 189 304 189 304 160.5 265.5 c 128,-1,59
 132 227 132 227 132 179 c 0,60,61
 132 123 132 123 172.5 91 c 128,-1,62
 213 59 213 59 281 59 c 0,63,54
 331 59 331 59 376 81 c 128,-1,55
EndSplineSet
EndChar

StartChar: quotesingle
Encoding: 9 39 11
Width: 221
GlyphClass: 2
Flags: W
LayerCount: 2
Fore
SplineSet
93 430 m 128,-1,1
 86 437 86 437 84 450 c 2,2,-1
 66 654 l 1,3,-1
 65 664 l 2,4,5
 65 686 65 686 78 698 c 128,-1,6
 91 710 91 710 111 710 c 0,7,8
 134 710 134 710 146.5 695 c 128,-1,9
 159 680 159 680 155 654 c 2,10,-1
 138 450 l 2,11,12
 135 423 135 423 111 423 c 0,13,0
 100 423 100 423 93 430 c 128,-1,1
EndSplineSet
EndChar

StartChar: parenleft
Encoding: 10 40 12
Width: 314
GlyphClass: 2
Flags: W
LayerCount: 2
Fore
SplineSet
103 263 m 256,1,2
 103 487 103 487 209 690 c 0,3,4
 222 713 222 713 244 713 c 0,5,6
 256 713 256 713 264.5 705 c 128,-1,7
 273 697 273 697 273 685 c 0,8,9
 273 678 273 678 270 670 c 0,10,11
 186 472 186 472 186 263 c 256,12,13
 186 54 186 54 270 -144 c 0,14,15
 273 -153 273 -153 273 -159 c 0,16,17
 273 -172 273 -172 264.5 -179.5 c 128,-1,18
 256 -187 256 -187 244 -187 c 0,19,20
 222 -187 222 -187 209 -164 c 0,21,0
 103 39 103 39 103 263 c 256,1,2
EndSplineSet
EndChar

StartChar: parenright
Encoding: 11 41 13
Width: 314
GlyphClass: 2
Flags: W
LayerCount: 2
Fore
SplineSet
70 -187 m 0,1,2
 58 -187 58 -187 49.5 -179.5 c 128,-1,3
 41 -172 41 -172 41 -160 c 0,4,5
 41 -156 41 -156 45 -144 c 0,6,7
 128 55 128 55 128 263 c 256,8,9
 128 471 128 471 45 670 c 0,10,11
 41 682 41 682 41 686 c 0,12,13
 41 698 41 698 49.5 705.5 c 128,-1,14
 58 713 58 713 70 713 c 0,15,16
 93 713 93 713 106 690 c 0,17,18
 211 486 211 486 211 263 c 256,19,20
 211 40 211 40 106 -164 c 0,21,0
 93 -187 93 -187 70 -187 c 0,1,2
EndSplineSet
EndChar

StartChar: asterisk
Encoding: 12 42 14
Width: 450
GlyphClass: 2
Flags: W
LayerCount: 2
Fore
SplineSet
414.5 556 m 128,-1,1
 424 547 424 547 424 534 c 0,2,3
 424 522 424 522 414.5 512.5 c 128,-1,4
 405 503 405 503 389 504 c 2,5,-1
 270 508 l 1,6,-1
 333 407 l 2,7,8
 339 397 339 397 339 388 c 0,9,10
 339 376 339 376 329.5 367.5 c 128,-1,11
 320 359 320 359 308 359 c 0,12,13
 291 359 291 359 281 377 c 2,14,-1
 225 483 l 1,15,-1
 169 376 l 2,16,17
 159 358 159 358 142 358 c 0,18,19
 130 358 130 358 120 367 c 128,-1,20
 110 376 110 376 110 388 c 0,21,22
 110 397 110 397 116 406 c 2,23,-1
 181 508 l 1,24,-1
 60 504 l 2,25,26
 45 503 45 503 36 512.5 c 128,-1,27
 27 522 27 522 27 534 c 0,28,29
 27 547 27 547 35.5 556 c 128,-1,30
 44 565 44 565 60 564 c 2,31,-1
 181 560 l 1,32,-1
 116 661 l 2,33,34
 110 670 110 670 110 680 c 0,35,36
 110 692 110 692 120 701 c 128,-1,37
 130 710 130 710 142 710 c 0,38,39
 159 710 159 710 169 692 c 2,40,-1
 225 585 l 1,41,-1
 281 691 l 2,42,43
 291 710 291 710 309 710 c 0,44,45
 321 710 321 710 330 701.5 c 128,-1,46
 339 693 339 693 339 681 c 0,47,48
 339 672 339 672 333 661 c 2,49,-1
 270 560 l 1,50,-1
 389 564 l 2,51,0
 405 565 405 565 414.5 556 c 128,-1,1
EndSplineSet
EndChar

StartChar: plus
Encoding: 13 43 15
Width: 600
GlyphClass: 2
Flags: W
LayerCount: 2
Fore
SplineSet
534.5 307 m 128,-1,1
 544 298 544 298 544 285 c 256,2,3
 544 272 544 272 535 262.5 c 128,-1,4
 526 253 526 253 512 253 c 2,5,-1
 331 253 l 1,6,-1
 331 73 l 2,7,8
 331 59 331 59 322 50 c 128,-1,9
 313 41 313 41 300 41 c 256,10,11
 287 41 287 41 278 50.5 c 128,-1,12
 269 60 269 60 269 73 c 2,13,-1
 269 253 l 1,14,-1
 88 253 l 2,15,16
 75 253 75 253 65.5 262.5 c 128,-1,17
 56 272 56 272 56 285 c 256,18,19
 56 298 56 298 65.5 307 c 128,-1,20
 75 316 75 316 88 316 c 2,21,-1
 269 316 l 1,22,-1
 269 496 l 2,23,24
 269 510 269 510 278 519.5 c 128,-1,25
 287 529 287 529 300 529 c 256,26,27
 313 529 313 529 322 519.5 c 128,-1,28
 331 510 331 510 331 496 c 2,29,-1
 331 316 l 1,30,-1
 512 316 l 2,31,0
 525 316 525 316 534.5 307 c 128,-1,1
EndSplineSet
EndChar

StartChar: comma
Encoding: 14 44 16
Width: 229
GlyphClass: 2
Flags: W
LayerCount: 2
Fore
SplineSet
153.5 88.5 m 128,-1,1
 169 69 169 69 169 30 c 0,2,3
 169 -49 169 -49 118 -103 c 0,4,5
 108 -114 108 -114 95 -114 c 0,6,7
 85 -114 85 -114 77 -106.5 c 128,-1,8
 69 -99 69 -99 69 -89 c 0,9,10
 69 -78 69 -78 77 -70 c 0,11,12
 103 -43 103 -43 110 -3 c 1,13,14
 88 -1 88 -1 73.5 13.5 c 128,-1,15
 59 28 59 28 59 51 c 0,16,17
 59 76 59 76 74.5 92 c 128,-1,18
 90 108 90 108 113 108 c 0,19,0
 138 108 138 108 153.5 88.5 c 128,-1,1
EndSplineSet
EndChar

StartChar: hyphen
Encoding: 15 45 17
Width: 425
GlyphClass: 2
Flags: W
LayerCount: 2
Fore
SplineSet
74.5 242 m 128,-1,1
 65 251 65 251 65 266 c 256,2,3
 65 281 65 281 74.5 290.5 c 128,-1,4
 84 300 84 300 102 300 c 2,5,-1
 322 300 l 2,6,7
 341 300 341 300 350.5 290.5 c 128,-1,8
 360 281 360 281 360 266 c 256,9,10
 360 251 360 251 350.5 242 c 128,-1,11
 341 233 341 233 322 233 c 2,12,-1
 102 233 l 2,13,0
 84 233 84 233 74.5 242 c 128,-1,1
EndSplineSet
EndChar

StartChar: period
Encoding: 16 46 18
Width: 229
GlyphClass: 2
Flags: W
LayerCount: 2
Fore
SplineSet
75 10.5 m 128,-1,1
 59 26 59 26 59 51 c 256,2,3
 59 76 59 76 75 92 c 128,-1,4
 91 108 91 108 115 108 c 0,5,6
 138 108 138 108 153.5 92 c 128,-1,7
 169 76 169 76 169 51 c 256,8,9
 169 26 169 26 153.5 10.5 c 128,-1,10
 138 -5 138 -5 115 -5 c 0,11,0
 91 -5 91 -5 75 10.5 c 128,-1,1
EndSplineSet
EndChar

StartChar: slash
Encoding: 17 47 19
Width: 283
GlyphClass: 2
Flags: W
LayerCount: 2
Fore
SplineSet
43 -56 m 128,-1,1
 34 -63 34 -63 23 -63 c 0,2,3
 9 -63 9 -63 -2 -53 c 128,-1,4
 -13 -43 -13 -43 -13 -28 c 0,5,6
 -13 -22 -13 -22 -10 -14 c 2,7,-1
 226 724 l 2,8,9
 230 737 230 737 239 744 c 128,-1,10
 248 751 248 751 259 751 c 0,11,12
 273 751 273 751 284 741 c 128,-1,13
 295 731 295 731 295 715 c 0,14,15
 295 712 295 712 293 702 c 2,16,-1
 56 -36 l 2,17,0
 52 -49 52 -49 43 -56 c 128,-1,1
EndSplineSet
Substitution2: "'frac' Diagonal Fractions lookup 20 subtable" fraction
Substitution2: "'aalt' Access All Alternates lookup 0 subtable" fraction
EndChar

StartChar: zero
Encoding: 18 48 20
Width: 600
GlyphClass: 2
Flags: W
LayerCount: 2
Fore
SplineSet
116 84 m 128,-1,1
 53 176 53 176 53 352 c 0,2,3
 53 529 53 529 116 621 c 128,-1,4
 179 713 179 713 300 713 c 256,5,6
 421 713 421 713 484 621.5 c 128,-1,7
 547 530 547 530 547 353 c 256,8,9
 547 176 547 176 484 84 c 128,-1,10
 421 -8 421 -8 300 -8 c 256,11,0
 179 -8 179 -8 116 84 c 128,-1,1
424 132 m 128,-1,13
 464 203 464 203 464 353 c 0,14,15
 464 504 464 504 424.5 574 c 128,-1,16
 385 644 385 644 300 644 c 0,17,18
 216 644 216 644 176 573.5 c 128,-1,19
 136 503 136 503 136 353 c 256,20,21
 136 203 136 203 176 132 c 128,-1,22
 216 61 216 61 300 61 c 256,23,12
 384 61 384 61 424 132 c 128,-1,13
EndSplineSet
Substitution2: "'onum' Oldstyle Figures lookup 25 subtable" zero.tosf
Substitution2: "'frac' Diagonal Fractions lookup 21 subtable" zero.numr
Substitution2: "'dnom' Denominators lookup 19 subtable" zero.dnom
Substitution2: "'numr' Numerators lookup 18 subtable" zero.numr
Substitution2: "'sups' Superscript lookup 17 subtable" uni2070
Substitution2: "'subs' Subscript lookup 16 subtable" uni2080
AlternateSubs2: "'aalt' Access All Alternates lookup 1 subtable" uni2080 uni2070 zero.numr zero.dnom zero.tosf
EndChar

StartChar: one
Encoding: 19 49 21
Width: 600
GlyphClass: 2
Flags: W
LayerCount: 2
Fore
SplineSet
520 60 m 128,-1,1
 530 51 530 51 530 35 c 0,2,3
 530 18 530 18 520.5 9 c 128,-1,4
 511 0 511 0 492 0 c 2,5,-1
 161 0 l 2,6,7
 142 0 142 0 132.5 9 c 128,-1,8
 123 18 123 18 123 35 c 0,9,10
 123 51 123 51 133 60 c 128,-1,11
 143 69 143 69 161 69 c 2,12,-1
 285 69 l 1,13,-1
 285 605 l 1,14,-1
 176 534 l 2,15,16
 168 529 168 529 160 529 c 0,17,18
 146 529 146 529 135.5 542 c 128,-1,19
 125 555 125 555 125 570 c 0,20,21
 125 591 125 591 141 600 c 2,22,-1
 293 699 l 2,23,24
 310 710 310 710 328 710 c 0,25,26
 345 710 345 710 356 699 c 128,-1,27
 367 688 367 688 367 668 c 2,28,-1
 367 69 l 1,29,-1
 492 69 l 2,30,0
 510 69 510 69 520 60 c 128,-1,1
EndSplineSet
Substitution2: "'ss01' Style Set 1 lookup 29 subtable" one.ss01
Substitution2: "'salt' Stylistic Alternatives lookup 28 subtable" one.ss01
Substitution2: "'onum' Oldstyle Figures lookup 25 subtable" one.tosf
Substitution2: "'frac' Diagonal Fractions lookup 21 subtable" one.numr
Substitution2: "'dnom' Denominators lookup 19 subtable" one.dnom
Substitution2: "'numr' Numerators lookup 18 subtable" one.numr
Substitution2: "'sups' Superscript lookup 17 subtable" uni00B9
Substitution2: "'subs' Subscript lookup 16 subtable" uni2081
AlternateSubs2: "'aalt' Access All Alternates lookup 1 subtable" uni2081 uni00B9 one.numr one.dnom one.tosf one.ss01
EndChar

StartChar: two
Encoding: 20 50 22
Width: 600
GlyphClass: 2
Flags: W
LayerCount: 2
Fore
SplineSet
536 60 m 128,-1,1
 546 51 546 51 546 35 c 0,2,3
 546 0 546 0 508 0 c 2,4,-1
 116 0 l 2,5,6
 99 0 99 0 88 10.5 c 128,-1,7
 77 21 77 21 77 36 c 0,8,9
 77 55 77 55 91 69 c 2,10,-1
 332 334 l 2,11,12
 382 390 382 390 404.5 434.5 c 128,-1,13
 427 479 427 479 427 524 c 0,14,15
 427 582 427 582 393.5 613 c 128,-1,16
 360 644 360 644 299 644 c 0,17,18
 251 644 251 644 207 626.5 c 128,-1,19
 163 609 163 609 119 573 c 0,20,21
 104 561 104 561 91 561 c 0,22,23
 80 561 80 561 72 571.5 c 128,-1,24
 64 582 64 582 64 597 c 0,25,26
 64 618 64 618 80 631 c 0,27,28
 121 669 121 669 180 691 c 128,-1,29
 239 713 239 713 301 713 c 0,30,31
 396 713 396 713 452.5 663 c 128,-1,32
 509 613 509 613 509 528 c 0,33,34
 509 467 509 467 481.5 411 c 128,-1,35
 454 355 454 355 391 286 c 2,36,-1
 191 69 l 1,37,-1
 508 69 l 2,38,0
 526 69 526 69 536 60 c 128,-1,1
EndSplineSet
Substitution2: "'onum' Oldstyle Figures lookup 25 subtable" two.tosf
Substitution2: "'frac' Diagonal Fractions lookup 21 subtable" two.numr
Substitution2: "'dnom' Denominators lookup 19 subtable" two.dnom
Substitution2: "'numr' Numerators lookup 18 subtable" two.numr
Substitution2: "'sups' Superscript lookup 17 subtable" uni00B2
Substitution2: "'subs' Subscript lookup 16 subtable" uni2082
AlternateSubs2: "'aalt' Access All Alternates lookup 1 subtable" uni2082 uni00B2 two.numr two.dnom two.tosf
EndChar

StartChar: three
Encoding: 21 51 23
Width: 600
GlyphClass: 2
Flags: W
LayerCount: 2
Fore
SplineSet
491.5 300 m 128,-1,1
 525 256 525 256 525 191 c 0,2,3
 525 99 525 99 463 46 c 128,-1,4
 401 -7 401 -7 294 -7 c 0,5,6
 229 -7 229 -7 169.5 15 c 128,-1,7
 110 37 110 37 69 75 c 0,8,9
 53 90 53 90 53 109 c 0,10,11
 53 124 53 124 61 134 c 128,-1,12
 69 144 69 144 80 144 c 0,13,14
 94 144 94 144 108 133 c 0,15,16
 154 96 154 96 198 79 c 128,-1,17
 242 62 242 62 293 62 c 0,18,19
 367 62 367 62 405.5 96 c 128,-1,20
 444 130 444 130 444 194 c 0,21,22
 444 323 444 323 282 323 c 2,23,-1
 229 323 l 2,24,25
 213 323 213 323 203.5 333.5 c 128,-1,26
 194 344 194 344 194 358 c 256,27,28
 194 372 194 372 203.5 382 c 128,-1,29
 213 392 213 392 229 392 c 2,30,-1
 266 392 l 2,31,32
 344 392 344 392 386 426.5 c 128,-1,33
 428 461 428 461 428 526 c 0,34,35
 428 583 428 583 394 613.5 c 128,-1,36
 360 644 360 644 298 644 c 0,37,38
 251 644 251 644 207 626.5 c 128,-1,39
 163 609 163 609 119 573 c 0,40,41
 105 562 105 562 91 562 c 0,42,43
 80 562 80 562 72 572 c 128,-1,44
 64 582 64 582 64 597 c 0,45,46
 64 616 64 616 80 631 c 0,47,48
 121 669 121 669 179.5 691 c 128,-1,49
 238 713 238 713 300 713 c 0,50,51
 396 713 396 713 453 664 c 128,-1,52
 510 615 510 615 509 532 c 0,53,54
 508 472 508 472 477.5 427 c 128,-1,55
 447 382 447 382 394 362 c 1,56,0
 458 344 458 344 491.5 300 c 128,-1,1
EndSplineSet
Substitution2: "'onum' Oldstyle Figures lookup 25 subtable" three.tosf
Substitution2: "'frac' Diagonal Fractions lookup 21 subtable" three.numr
Substitution2: "'dnom' Denominators lookup 19 subtable" three.dnom
Substitution2: "'numr' Numerators lookup 18 subtable" three.numr
Substitution2: "'sups' Superscript lookup 17 subtable" uni00B3
Substitution2: "'subs' Subscript lookup 16 subtable" uni2083
AlternateSubs2: "'aalt' Access All Alternates lookup 1 subtable" uni2083 uni00B3 three.numr three.dnom three.tosf
EndChar

StartChar: four
Encoding: 22 52 24
Width: 600
GlyphClass: 2
Flags: W
LayerCount: 2
Fore
SplineSet
561 211.5 m 128,-1,1
 571 202 571 202 571 187 c 0,2,3
 571 153 571 153 533 153 c 2,4,-1
 458 153 l 1,5,-1
 458 37 l 2,6,7
 458 17 458 17 446.5 6 c 128,-1,8
 435 -5 435 -5 417 -5 c 256,9,10
 399 -5 399 -5 388 6 c 128,-1,11
 377 17 377 17 377 37 c 2,12,-1
 377 153 l 1,13,-1
 81 153 l 2,14,15
 63 153 63 153 53 163 c 128,-1,16
 43 173 43 173 43 188 c 0,17,18
 43 202 43 202 54 219 c 2,19,-1
 381 692 l 2,20,21
 395 710 395 710 417 710 c 0,22,23
 434 710 434 710 446 699 c 128,-1,24
 458 688 458 688 458 668 c 2,25,-1
 458 221 l 1,26,-1
 533 221 l 2,27,0
 551 221 551 221 561 211.5 c 128,-1,1
136 221 m 1,28,-1
 377 221 l 1,29,-1
 377 568 l 1,30,-1
 136 221 l 1,28,-1
EndSplineSet
Substitution2: "'onum' Oldstyle Figures lookup 25 subtable" four.tosf
Substitution2: "'frac' Diagonal Fractions lookup 21 subtable" four.numr
Substitution2: "'dnom' Denominators lookup 19 subtable" four.dnom
Substitution2: "'numr' Numerators lookup 18 subtable" four.numr
Substitution2: "'sups' Superscript lookup 17 subtable" uni2074
Substitution2: "'subs' Subscript lookup 16 subtable" uni2084
AlternateSubs2: "'aalt' Access All Alternates lookup 1 subtable" uni2084 uni2074 four.numr four.dnom four.tosf
EndChar

StartChar: five
Encoding: 23 53 25
Width: 600
GlyphClass: 2
Flags: W
LayerCount: 2
Fore
SplineSet
444.5 414 m 128,-1,1
 495 386 495 386 522.5 335.5 c 128,-1,2
 550 285 550 285 550 219 c 256,3,4
 550 153 550 153 520 101.5 c 128,-1,5
 490 50 490 50 436.5 21.5 c 128,-1,6
 383 -7 383 -7 313 -7 c 0,7,8
 251 -7 251 -7 192 15 c 128,-1,9
 133 37 133 37 92 75 c 0,10,11
 76 90 76 90 76 109 c 0,12,13
 76 124 76 124 84 134 c 128,-1,14
 92 144 92 144 103 144 c 0,15,16
 117 144 117 144 131 133 c 0,17,18
 175 97 175 97 219 79.5 c 128,-1,19
 263 62 263 62 311 62 c 0,20,21
 385 62 385 62 427 104 c 128,-1,22
 469 146 469 146 469 218 c 0,23,24
 469 288 469 288 427 331 c 128,-1,25
 385 374 385 374 314 374 c 0,26,27
 223 374 223 374 166 304 c 0,28,29
 152 289 152 289 132 289 c 0,30,31
 118 289 118 289 108.5 297.5 c 128,-1,32
 99 306 99 306 99 321 c 2,33,-1
 99 666 l 2,34,35
 99 683 99 683 109.5 694 c 128,-1,36
 120 705 120 705 139 705 c 2,37,-1
 491 705 l 2,38,39
 509 705 509 705 519.5 696 c 128,-1,40
 530 687 530 687 530 671 c 256,41,42
 530 655 530 655 519.5 646 c 128,-1,43
 509 637 509 637 491 637 c 2,44,-1
 180 637 l 1,45,-1
 180 386 l 1,46,47
 208 413 208 413 245.5 427.5 c 128,-1,48
 283 442 283 442 327 442 c 0,49,0
 394 442 394 442 444.5 414 c 128,-1,1
EndSplineSet
Substitution2: "'onum' Oldstyle Figures lookup 25 subtable" five.tosf
Substitution2: "'frac' Diagonal Fractions lookup 21 subtable" five.numr
Substitution2: "'dnom' Denominators lookup 19 subtable" five.dnom
Substitution2: "'numr' Numerators lookup 18 subtable" five.numr
Substitution2: "'sups' Superscript lookup 17 subtable" uni2075
Substitution2: "'subs' Subscript lookup 16 subtable" uni2085
AlternateSubs2: "'aalt' Access All Alternates lookup 1 subtable" uni2085 uni2075 five.numr five.dnom five.tosf
EndChar

StartChar: six
Encoding: 24 54 26
Width: 599
GlyphClass: 2
Flags: W
LayerCount: 2
Fore
SplineSet
443 415 m 128,-1,1
 493 387 493 387 521 336 c 128,-1,2
 549 285 549 285 549 219 c 0,3,4
 549 154 549 154 520 102 c 128,-1,5
 491 50 491 50 439 21 c 128,-1,6
 387 -8 387 -8 322 -8 c 0,7,8
 194 -8 194 -8 124.5 81 c 128,-1,9
 55 170 55 170 55 335 c 0,10,11
 55 453 55 453 87 538 c 128,-1,12
 119 623 119 623 180 668 c 128,-1,13
 241 713 241 713 325 713 c 0,14,15
 382 713 382 713 438.5 691 c 128,-1,16
 495 669 495 669 535 631 c 0,17,18
 552 615 552 615 552 597 c 0,19,20
 552 582 552 582 544 572 c 128,-1,21
 536 562 536 562 525 562 c 0,22,23
 511 562 511 562 496 573 c 0,24,25
 409 644 409 644 327 644 c 0,26,27
 238 644 238 644 188 563 c 128,-1,28
 138 482 138 482 138 336 c 2,29,-1
 138 323 l 1,30,31
 161 379 161 379 212.5 411 c 128,-1,32
 264 443 264 443 329 443 c 0,33,0
 393 443 393 443 443 415 c 128,-1,1
427 104 m 128,-1,35
 468 147 468 147 468 218 c 256,36,37
 468 289 468 289 426.5 331.5 c 128,-1,38
 385 374 385 374 317 374 c 0,39,40
 248 374 248 374 204.5 330.5 c 128,-1,41
 161 287 161 287 161 218 c 0,42,43
 161 148 161 148 204.5 104.5 c 128,-1,44
 248 61 248 61 318 61 c 0,45,34
 386 61 386 61 427 104 c 128,-1,35
EndSplineSet
Substitution2: "'onum' Oldstyle Figures lookup 25 subtable" six.tosf
Substitution2: "'frac' Diagonal Fractions lookup 21 subtable" six.numr
Substitution2: "'dnom' Denominators lookup 19 subtable" six.dnom
Substitution2: "'numr' Numerators lookup 18 subtable" six.numr
Substitution2: "'sups' Superscript lookup 17 subtable" uni2076
Substitution2: "'subs' Subscript lookup 16 subtable" uni2086
AlternateSubs2: "'aalt' Access All Alternates lookup 1 subtable" uni2086 uni2076 six.numr six.dnom six.tosf
EndChar

StartChar: seven
Encoding: 25 55 27
Width: 600
GlyphClass: 2
Flags: W
LayerCount: 2
Fore
SplineSet
530.5 695.5 m 128,-1,1
 540 686 540 686 540 671 c 0,2,3
 540 657 540 657 531 640 c 2,4,-1
 199 15 l 2,5,6
 187 -7 187 -7 164 -7 c 0,7,8
 148 -7 148 -7 135.5 4 c 128,-1,9
 123 15 123 15 123 31 c 0,10,11
 123 42 123 42 130 53 c 2,12,-1
 442 636 l 1,13,-1
 97 636 l 2,14,15
 79 636 79 636 69.5 645 c 128,-1,16
 60 654 60 654 60 670 c 0,17,18
 60 687 60 687 69.5 696 c 128,-1,19
 79 705 79 705 97 705 c 2,20,-1
 503 705 l 2,21,0
 521 705 521 705 530.5 695.5 c 128,-1,1
EndSplineSet
Substitution2: "'onum' Oldstyle Figures lookup 25 subtable" seven.tosf
Substitution2: "'frac' Diagonal Fractions lookup 21 subtable" seven.numr
Substitution2: "'dnom' Denominators lookup 19 subtable" seven.dnom
Substitution2: "'numr' Numerators lookup 18 subtable" seven.numr
Substitution2: "'sups' Superscript lookup 17 subtable" uni2077
Substitution2: "'subs' Subscript lookup 16 subtable" uni2087
AlternateSubs2: "'aalt' Access All Alternates lookup 1 subtable" uni2087 uni2077 seven.numr seven.dnom seven.tosf
EndChar

StartChar: eight
Encoding: 26 56 28
Width: 600
GlyphClass: 2
Flags: W
LayerCount: 2
Fore
SplineSet
518.5 297 m 128,-1,1
 553 251 553 251 553 187 c 0,2,3
 553 96 553 96 487 44.5 c 128,-1,4
 421 -7 421 -7 300 -7 c 256,5,6
 179 -7 179 -7 113 44.5 c 128,-1,7
 47 96 47 96 47 187 c 0,8,9
 47 252 47 252 82 298 c 128,-1,10
 117 344 117 344 179 362 c 1,11,12
 126 382 126 382 95 425 c 128,-1,13
 64 468 64 468 64 526 c 0,14,15
 64 612 64 612 126.5 662.5 c 128,-1,16
 189 713 189 713 300 713 c 256,17,18
 411 713 411 713 473.5 662.5 c 128,-1,19
 536 612 536 612 536 526 c 0,20,21
 536 468 536 468 505 424.5 c 128,-1,22
 474 381 474 381 422 362 c 1,23,0
 484 343 484 343 518.5 297 c 128,-1,1
184.5 425 m 128,-1,25
 224 392 224 392 300 392 c 256,26,27
 376 392 376 392 415.5 425 c 128,-1,28
 455 458 455 458 455 520 c 0,29,30
 455 579 455 579 415.5 612 c 128,-1,31
 376 645 376 645 300 645 c 256,32,33
 224 645 224 645 184.5 612 c 128,-1,34
 145 579 145 579 145 520 c 0,35,24
 145 458 145 458 184.5 425 c 128,-1,25
472 192 m 256,37,38
 472 323 472 323 300 323 c 256,39,40
 128 323 128 323 128 192 c 256,41,42
 128 61 128 61 300 61 c 256,43,36
 472 61 472 61 472 192 c 256,37,38
EndSplineSet
Substitution2: "'onum' Oldstyle Figures lookup 25 subtable" eight.tosf
Substitution2: "'frac' Diagonal Fractions lookup 21 subtable" eight.numr
Substitution2: "'dnom' Denominators lookup 19 subtable" eight.dnom
Substitution2: "'numr' Numerators lookup 18 subtable" eight.numr
Substitution2: "'sups' Superscript lookup 17 subtable" uni2078
Substitution2: "'subs' Subscript lookup 16 subtable" uni2088
AlternateSubs2: "'aalt' Access All Alternates lookup 1 subtable" uni2088 uni2078 eight.numr eight.dnom eight.tosf
EndChar

StartChar: nine
Encoding: 27 57 29
Width: 600
GlyphClass: 2
Flags: W
LayerCount: 2
Fore
SplineSet
475.5 624 m 128,-1,1
 545 535 545 535 545 370 c 0,2,3
 545 252 545 252 513 167 c 128,-1,4
 481 82 481 82 420 37 c 128,-1,5
 359 -8 359 -8 275 -8 c 0,6,7
 218 -8 218 -8 161.5 14 c 128,-1,8
 105 36 105 36 65 74 c 0,9,10
 48 90 48 90 48 108 c 0,11,12
 48 123 48 123 56 133 c 128,-1,13
 64 143 64 143 75 143 c 0,14,15
 89 143 89 143 104 132 c 0,16,17
 191 61 191 61 273 61 c 0,18,19
 362 61 362 61 412 142 c 128,-1,20
 462 223 462 223 462 369 c 2,21,-1
 462 382 l 1,22,23
 439 326 439 326 387.5 294 c 128,-1,24
 336 262 336 262 271 262 c 0,25,26
 207 262 207 262 157 290 c 128,-1,27
 107 318 107 318 79 369 c 128,-1,28
 51 420 51 420 51 486 c 0,29,30
 51 551 51 551 80 603 c 128,-1,31
 109 655 109 655 161 684 c 128,-1,32
 213 713 213 713 278 713 c 0,33,0
 406 713 406 713 475.5 624 c 128,-1,1
395.5 374.5 m 128,-1,35
 439 418 439 418 439 487 c 0,36,37
 439 557 439 557 395.5 600.5 c 128,-1,38
 352 644 352 644 282 644 c 0,39,40
 214 644 214 644 173 601 c 128,-1,41
 132 558 132 558 132 487 c 256,42,43
 132 416 132 416 173.5 373.5 c 128,-1,44
 215 331 215 331 283 331 c 0,45,34
 352 331 352 331 395.5 374.5 c 128,-1,35
EndSplineSet
Substitution2: "'onum' Oldstyle Figures lookup 25 subtable" nine.tosf
Substitution2: "'frac' Diagonal Fractions lookup 21 subtable" nine.numr
Substitution2: "'dnom' Denominators lookup 19 subtable" nine.dnom
Substitution2: "'numr' Numerators lookup 18 subtable" nine.numr
Substitution2: "'sups' Superscript lookup 17 subtable" uni2079
Substitution2: "'subs' Subscript lookup 16 subtable" uni2089
AlternateSubs2: "'aalt' Access All Alternates lookup 1 subtable" uni2089 uni2079 nine.numr nine.dnom nine.tosf
EndChar

StartChar: colon
Encoding: 28 58 30
Width: 229
GlyphClass: 2
Flags: W
LayerCount: 2
Fore
SplineSet
75 400.5 m 128,-1,1
 59 416 59 416 59 441 c 256,2,3
 59 466 59 466 75 481.5 c 128,-1,4
 91 497 91 497 115 497 c 0,5,6
 138 497 138 497 153.5 481.5 c 128,-1,7
 169 466 169 466 169 441 c 256,8,9
 169 416 169 416 153.5 400.5 c 128,-1,10
 138 385 138 385 115 385 c 0,11,0
 91 385 91 385 75 400.5 c 128,-1,1
75 10.5 m 128,-1,13
 59 26 59 26 59 51 c 256,14,15
 59 76 59 76 75 92 c 128,-1,16
 91 108 91 108 115 108 c 0,17,18
 138 108 138 108 153.5 92 c 128,-1,19
 169 76 169 76 169 51 c 256,20,21
 169 26 169 26 153.5 10.5 c 128,-1,22
 138 -5 138 -5 115 -5 c 0,23,12
 91 -5 91 -5 75 10.5 c 128,-1,13
EndSplineSet
EndChar

StartChar: semicolon
Encoding: 29 59 31
Width: 229
GlyphClass: 2
Flags: W
LayerCount: 2
Fore
SplineSet
75 400.5 m 128,-1,1
 59 416 59 416 59 441 c 256,2,3
 59 466 59 466 75 481.5 c 128,-1,4
 91 497 91 497 115 497 c 0,5,6
 138 497 138 497 153.5 481.5 c 128,-1,7
 169 466 169 466 169 441 c 256,8,9
 169 416 169 416 153.5 400.5 c 128,-1,10
 138 385 138 385 115 385 c 0,11,0
 91 385 91 385 75 400.5 c 128,-1,1
153.5 88.5 m 128,-1,13
 169 69 169 69 169 30 c 0,14,15
 169 -49 169 -49 118 -103 c 0,16,17
 108 -114 108 -114 95 -114 c 0,18,19
 85 -114 85 -114 77 -106.5 c 128,-1,20
 69 -99 69 -99 69 -89 c 0,21,22
 69 -78 69 -78 77 -70 c 0,23,24
 103 -43 103 -43 110 -3 c 1,25,26
 88 -1 88 -1 73.5 13.5 c 128,-1,27
 59 28 59 28 59 51 c 0,28,29
 59 76 59 76 74.5 92 c 128,-1,30
 90 108 90 108 113 108 c 0,31,12
 138 108 138 108 153.5 88.5 c 128,-1,13
EndSplineSet
EndChar

StartChar: less
Encoding: 30 60 32
Width: 600
GlyphClass: 2
Flags: W
LayerCount: 2
Fore
SplineSet
544 81 m 0,1,2
 544 68 544 68 534.5 59.5 c 128,-1,3
 525 51 525 51 510 51 c 0,4,5
 499 51 499 51 490 55 c 2,6,-1
 86 238 l 2,7,8
 72 244 72 244 64 256.5 c 128,-1,9
 56 269 56 269 56 285 c 0,10,11
 56 300 56 300 64 312 c 128,-1,12
 72 324 72 324 86 330 c 2,13,-1
 490 513 l 2,14,15
 502 518 502 518 510 518 c 0,16,17
 525 518 525 518 534.5 509.5 c 128,-1,18
 544 501 544 501 544 487 c 0,19,20
 544 470 544 470 527 461 c 2,21,-1
 133 284 l 1,22,-1
 527 108 l 2,23,0
 544 98 544 98 544 81 c 0,1,2
EndSplineSet
EndChar

StartChar: greater
Encoding: 32 62 34
Width: 600
GlyphClass: 2
Flags: W
LayerCount: 2
Fore
SplineSet
536 312 m 128,-1,1
 544 300 544 300 544 285 c 0,2,3
 544 269 544 269 536 256.5 c 128,-1,4
 528 244 528 244 514 238 c 2,5,-1
 110 55 l 2,6,7
 101 51 101 51 90 51 c 0,8,9
 76 51 76 51 66 59.5 c 128,-1,10
 56 68 56 68 56 81 c 0,11,12
 56 98 56 98 74 108 c 2,13,-1
 467 284 l 1,14,-1
 74 461 l 2,15,16
 56 469 56 469 56 487 c 0,17,18
 56 501 56 501 65.5 509.5 c 128,-1,19
 75 518 75 518 90 518 c 0,20,21
 98 518 98 518 110 513 c 2,22,-1
 514 330 l 2,23,0
 528 324 528 324 536 312 c 128,-1,1
EndSplineSet
EndChar

StartChar: question
Encoding: 33 63 35
Width: 443
GlyphClass: 2
Flags: W
LayerCount: 2
Fore
SplineSet
189 187 m 128,-1,1
 182 195 182 195 182 209 c 0,2,3
 182 271 182 271 204.5 315 c 128,-1,4
 227 359 227 359 269 411 c 0,5,6
 303 454 303 454 319.5 484 c 128,-1,7
 336 514 336 514 336 551 c 0,8,9
 336 594 336 594 305 618.5 c 128,-1,10
 274 643 274 643 221 643 c 0,11,12
 176 643 176 643 138 625.5 c 128,-1,13
 100 608 100 608 52 572 c 0,14,15
 35 560 35 560 24 560 c 0,16,17
 12 560 12 560 4.5 570.5 c 128,-1,18
 -3 581 -3 581 -3 595 c 0,19,20
 -3 615 -3 615 13 630 c 0,21,22
 53 668 53 668 110.5 690.5 c 128,-1,23
 168 713 168 713 225 713 c 0,24,25
 312 713 312 713 365.5 670 c 128,-1,26
 419 627 419 627 419 557 c 0,27,28
 419 504 419 504 396.5 465.5 c 128,-1,29
 374 427 374 427 328 375 c 0,30,31
 285 326 285 326 261.5 288.5 c 128,-1,32
 238 251 238 251 233 202 c 0,33,34
 232 191 232 191 225 185 c 128,-1,35
 218 179 218 179 207 179 c 256,36,0
 196 179 196 179 189 187 c 128,-1,1
168.5 11 m 128,-1,38
 153 27 153 27 153 51 c 256,39,40
 153 75 153 75 168.5 91.5 c 128,-1,41
 184 108 184 108 208 108 c 256,42,43
 232 108 232 108 247.5 91.5 c 128,-1,44
 263 75 263 75 263 51 c 256,45,46
 263 27 263 27 247.5 11 c 128,-1,47
 232 -5 232 -5 208 -5 c 256,48,37
 184 -5 184 -5 168.5 11 c 128,-1,38
EndSplineSet
EndChar

StartChar: at
Encoding: 34 64 36
Width: 926
GlyphClass: 2
Flags: W
LayerCount: 2
Fore
SplineSet
248 -99 m 128,-1,1
 152 -46 152 -46 100.5 50.5 c 128,-1,2
 49 147 49 147 49 273 c 0,3,4
 49 405 49 405 104.5 504 c 128,-1,5
 160 603 160 603 256.5 657 c 128,-1,6
 353 711 353 711 473 711 c 0,7,8
 601 711 601 711 692.5 658.5 c 128,-1,9
 784 606 784 606 830.5 522 c 128,-1,10
 877 438 877 438 877 344 c 0,11,12
 877 246 877 246 847.5 183.5 c 128,-1,13
 818 121 818 121 772.5 92.5 c 128,-1,14
 727 64 727 64 676 64 c 0,15,16
 623 64 623 64 592.5 87.5 c 128,-1,17
 562 111 562 111 558 153 c 1,18,-1
 556 153 l 1,19,20
 531 112 531 112 493.5 88 c 128,-1,21
 456 64 456 64 406 64 c 0,22,23
 340 64 340 64 299 110.5 c 128,-1,24
 258 157 258 157 258 239 c 0,25,26
 258 307 258 307 284.5 367 c 128,-1,27
 311 427 311 427 359 463 c 128,-1,28
 407 499 407 499 469 499 c 0,29,30
 516 499 516 499 551 476.5 c 128,-1,31
 586 454 586 454 597 418 c 1,32,-1
 598 418 l 1,33,-1
 606 462 l 2,34,35
 608 474 608 474 617 481 c 128,-1,36
 626 488 626 488 639 488 c 0,37,38
 656 488 656 488 664 477.5 c 128,-1,39
 672 467 672 467 669 450 c 2,40,-1
 628 216 l 2,41,42
 624 188 624 188 624 180 c 0,43,44
 624 146 624 146 640 132 c 128,-1,45
 656 118 656 118 688 118 c 0,46,47
 716 118 716 118 745 140.5 c 128,-1,48
 774 163 774 163 794 213.5 c 128,-1,49
 814 264 814 264 814 344 c 0,50,51
 814 423 814 423 776 493 c 128,-1,52
 738 563 738 563 661 606.5 c 128,-1,53
 584 650 584 650 473 650 c 0,54,55
 371 650 371 650 289.5 604.5 c 128,-1,56
 208 559 208 559 161 473.5 c 128,-1,57
 114 388 114 388 114 273 c 0,58,59
 114 163 114 163 157 80.5 c 128,-1,60
 200 -2 200 -2 281 -46.5 c 128,-1,61
 362 -91 362 -91 473 -91 c 0,62,63
 625 -91 625 -91 710 -9 c 0,64,65
 724 4 724 4 739 4 c 0,66,67
 751 4 751 4 759 -5 c 128,-1,68
 767 -14 767 -14 767 -27 c 0,69,70
 767 -43 767 -43 755 -54 c 0,71,72
 710 -99 710 -99 636.5 -125.5 c 128,-1,73
 563 -152 563 -152 473 -152 c 0,74,0
 344 -152 344 -152 248 -99 c 128,-1,1
505.5 148.5 m 128,-1,76
 542 179 542 179 561 227 c 128,-1,77
 580 275 580 275 580 328 c 0,78,79
 580 384 580 384 552.5 413.5 c 128,-1,80
 525 443 525 443 478 443 c 0,81,82
 430 443 430 443 394.5 414 c 128,-1,83
 359 385 359 385 340.5 338.5 c 128,-1,84
 322 292 322 292 322 242 c 0,85,86
 322 183 322 183 350 150.5 c 128,-1,87
 378 118 378 118 419 118 c 0,88,75
 469 118 469 118 505.5 148.5 c 128,-1,76
EndSplineSet
EndChar

StartChar: A
Encoding: 35 65 37
Width: 727
GlyphClass: 2
Flags: W
AnchorPoint: "Anchor-11" 364 705 basechar 0
AnchorPoint: "Anchor-10" 688 10 basechar 0
AnchorPoint: "Anchor-9" 364 0 basechar 0
LayerCount: 2
Fore
SplineSet
698 30 m 0,1,2
 698 15 698 15 686.5 5 c 128,-1,3
 675 -5 675 -5 659 -5 c 0,4,5
 634 -5 634 -5 624 19 c 2,6,-1
 553 181 l 1,7,-1
 176 181 l 1,8,-1
 104 19 l 2,9,10
 94 -5 94 -5 69 -5 c 0,11,12
 53 -5 53 -5 41 5.5 c 128,-1,13
 29 16 29 16 29 31 c 0,14,15
 29 39 29 39 33 47 c 2,16,-1
 319 683 l 2,17,18
 325 697 325 697 337 704 c 128,-1,19
 349 711 349 711 363 711 c 0,20,21
 378 711 378 711 390 703.5 c 128,-1,22
 402 696 402 696 408 683 c 2,23,-1
 694 47 l 2,24,0
 698 39 698 39 698 30 c 0,1,2
206 249 m 1,25,-1
 523 249 l 1,26,-1
 364 608 l 1,27,-1
 206 249 l 1,25,-1
EndSplineSet
Substitution2: "Single Substitution lookup 33 subtable" ordfeminine
Substitution2: "'aalt' Access All Alternates lookup 0 subtable" ordfeminine
EndChar

StartChar: B
Encoding: 36 66 38
Width: 674
GlyphClass: 2
Flags: W
AnchorPoint: "Anchor-11" 340 705 basechar 0
AnchorPoint: "Anchor-9" 341 0 basechar 0
LayerCount: 2
Fore
SplineSet
581.5 302 m 128,-1,1
 615 258 615 258 615 192 c 0,2,3
 615 99 615 99 554 49.5 c 128,-1,4
 493 0 493 0 381 0 c 2,5,-1
 129 0 l 2,6,7
 110 0 110 0 98.5 11 c 128,-1,8
 87 22 87 22 87 40 c 2,9,-1
 87 665 l 2,10,11
 87 683 87 683 98.5 694 c 128,-1,12
 110 705 110 705 129 705 c 2,13,-1
 370 705 l 2,14,15
 479 705 479 705 539 657 c 128,-1,16
 599 609 599 609 599 521 c 0,17,18
 599 464 599 464 569.5 423 c 128,-1,19
 540 382 540 382 487 362 c 1,20,0
 548 346 548 346 581.5 302 c 128,-1,1
168 392 m 1,21,-1
 358 392 l 2,22,23
 437 392 437 392 477.5 424 c 128,-1,24
 518 456 518 456 518 517 c 0,25,26
 518 637 518 637 358 637 c 2,27,-1
 168 637 l 1,28,-1
 168 392 l 1,21,-1
495.5 98.5 m 128,-1,30
 535 129 535 129 535 194 c 0,31,32
 535 324 535 324 373 324 c 2,33,-1
 168 324 l 1,34,-1
 168 68 l 1,35,-1
 373 68 l 2,36,29
 456 68 456 68 495.5 98.5 c 128,-1,30
EndSplineSet
EndChar

StartChar: C
Encoding: 37 67 39
Width: 677
GlyphClass: 2
Flags: W
AnchorPoint: "Anchor-11" 386 705 basechar 0
AnchorPoint: "Anchor-9" 385 0 basechar 0
LayerCount: 2
Fore
SplineSet
213 35.5 m 128,-1,1
 140 79 140 79 100.5 160.5 c 128,-1,2
 61 242 61 242 61 353 c 0,3,4
 61 463 61 463 100.5 544.5 c 128,-1,5
 140 626 140 626 213 669.5 c 128,-1,6
 286 713 286 713 386 713 c 0,7,8
 453 713 453 713 512.5 691.5 c 128,-1,9
 572 670 572 670 616 630 c 0,10,11
 632 615 632 615 632 595 c 0,12,13
 632 581 632 581 624 570.5 c 128,-1,14
 616 560 616 560 605 560 c 0,15,16
 593 560 593 560 576 571 c 0,17,18
 525 611 525 611 483.5 627 c 128,-1,19
 442 643 442 643 388 643 c 0,20,21
 272 643 272 643 209.5 567.5 c 128,-1,22
 147 492 147 492 147 353 c 0,23,24
 147 213 147 213 209.5 137.5 c 128,-1,25
 272 62 272 62 388 62 c 0,26,27
 441 62 441 62 483 78 c 128,-1,28
 525 94 525 94 576 134 c 0,29,30
 593 145 593 145 605 145 c 0,31,32
 616 145 616 145 624 135 c 128,-1,33
 632 125 632 125 632 110 c 0,34,35
 632 90 632 90 616 75 c 0,36,37
 572 35 572 35 512.5 13.5 c 128,-1,38
 453 -8 453 -8 386 -8 c 0,39,0
 286 -8 286 -8 213 35.5 c 128,-1,1
EndSplineSet
EndChar

StartChar: D
Encoding: 38 68 40
Width: 739
GlyphClass: 2
Flags: W
AnchorPoint: "Anchor-12" 370 353 basechar 0
AnchorPoint: "Anchor-11" 369 705 basechar 0
AnchorPoint: "Anchor-9" 370 0 basechar 0
LayerCount: 2
Fore
SplineSet
98.5 11 m 128,-1,1
 87 22 87 22 87 40 c 2,2,-1
 87 665 l 2,3,4
 87 683 87 683 98.5 694 c 128,-1,5
 110 705 110 705 129 705 c 2,6,-1
 324 705 l 2,7,8
 493 705 493 705 585.5 613.5 c 128,-1,9
 678 522 678 522 678 353 c 256,10,11
 678 184 678 184 585 92 c 128,-1,12
 492 0 492 0 324 0 c 2,13,-1
 129 0 l 2,14,0
 110 0 110 0 98.5 11 c 128,-1,1
593 353 m 0,16,17
 593 635 593 635 319 635 c 2,18,-1
 169 635 l 1,19,-1
 169 70 l 1,20,-1
 319 70 l 2,21,15
 593 70 593 70 593 353 c 0,16,17
EndSplineSet
EndChar

StartChar: E
Encoding: 39 69 41
Width: 582
GlyphClass: 2
Flags: W
AnchorPoint: "Anchor-11" 324 705 basechar 0
AnchorPoint: "Anchor-10" 513 10 basechar 0
AnchorPoint: "Anchor-9" 324 0 basechar 0
LayerCount: 2
Fore
SplineSet
98.5 11 m 128,-1,1
 87 22 87 22 87 40 c 2,2,-1
 87 665 l 2,3,4
 87 683 87 683 98.5 694 c 128,-1,5
 110 705 110 705 129 705 c 2,6,-1
 503 705 l 2,7,8
 521 705 521 705 531 696 c 128,-1,9
 541 687 541 687 541 671 c 256,10,11
 541 655 541 655 531 646 c 128,-1,12
 521 637 521 637 503 637 c 2,13,-1
 168 637 l 1,14,-1
 168 392 l 1,15,-1
 483 392 l 2,16,17
 501 392 501 392 511 383 c 128,-1,18
 521 374 521 374 521 358 c 256,19,20
 521 342 521 342 511 333 c 128,-1,21
 501 324 501 324 483 324 c 2,22,-1
 168 324 l 1,23,-1
 168 68 l 1,24,-1
 503 68 l 2,25,26
 521 68 521 68 531 59.5 c 128,-1,27
 541 51 541 51 541 34 c 0,28,29
 541 18 541 18 531 9 c 128,-1,30
 521 0 521 0 503 0 c 2,31,-1
 129 0 l 2,32,0
 110 0 110 0 98.5 11 c 128,-1,1
EndSplineSet
EndChar

StartChar: F
Encoding: 40 70 42
Width: 557
GlyphClass: 2
Flags: W
AnchorPoint: "Anchor-11" 286 705 basechar 0
AnchorPoint: "Anchor-9" 309 0 basechar 0
LayerCount: 2
Fore
SplineSet
98 6.5 m 128,-1,1
 87 18 87 18 87 37 c 2,2,-1
 87 665 l 2,3,4
 87 683 87 683 98.5 694 c 128,-1,5
 110 705 110 705 129 705 c 2,6,-1
 493 705 l 2,7,8
 511 705 511 705 521 696 c 128,-1,9
 531 687 531 687 531 670 c 0,10,11
 531 654 531 654 521 645 c 128,-1,12
 511 636 511 636 493 636 c 2,13,-1
 168 636 l 1,14,-1
 168 393 l 1,15,-1
 473 393 l 2,16,17
 491 393 491 393 501 384 c 128,-1,18
 511 375 511 375 511 358 c 0,19,20
 511 342 511 342 501 333 c 128,-1,21
 491 324 491 324 473 324 c 2,22,-1
 168 324 l 1,23,-1
 168 37 l 2,24,25
 168 18 168 18 157.5 6.5 c 128,-1,26
 147 -5 147 -5 128 -5 c 256,27,0
 109 -5 109 -5 98 6.5 c 128,-1,1
EndSplineSet
EndChar

StartChar: G
Encoding: 41 71 43
Width: 724
GlyphClass: 2
Flags: W
AnchorPoint: "Anchor-11" 392 705 basechar 0
AnchorPoint: "Anchor-9" 399 0 basechar 0
LayerCount: 2
Fore
SplineSet
635.5 358 m 128,-1,1
 645 349 645 349 645 333 c 2,2,-1
 645 84 l 2,3,4
 645 60 645 60 637.5 48 c 128,-1,5
 630 36 630 36 610 29 c 0,6,7
 570 12 570 12 513 2 c 128,-1,8
 456 -8 456 -8 399 -8 c 0,9,10
 294 -8 294 -8 218 35 c 128,-1,11
 142 78 142 78 101.5 159 c 128,-1,12
 61 240 61 240 61 353 c 0,13,14
 61 464 61 464 101 545 c 128,-1,15
 141 626 141 626 216 669.5 c 128,-1,16
 291 713 291 713 392 713 c 0,17,18
 462 713 462 713 522 691.5 c 128,-1,19
 582 670 582 670 623 630 c 0,20,21
 640 613 640 613 640 595 c 0,22,23
 640 581 640 581 632 570.5 c 128,-1,24
 624 560 624 560 612 560 c 256,25,26
 600 560 600 560 584 572 c 0,27,28
 532 612 532 612 490 627.5 c 128,-1,29
 448 643 448 643 393 643 c 0,30,31
 274 643 274 643 210.5 568 c 128,-1,32
 147 493 147 493 147 353 c 0,33,34
 147 210 147 210 211.5 135.5 c 128,-1,35
 276 61 276 61 401 61 c 0,36,37
 494 61 494 61 570 89 c 1,38,-1
 570 303 l 1,39,-1
 424 303 l 2,40,41
 407 303 407 303 397 312 c 128,-1,42
 387 321 387 321 387 335 c 0,43,44
 387 350 387 350 397 358.5 c 128,-1,45
 407 367 407 367 424 367 c 2,46,-1
 611 367 l 2,47,0
 626 367 626 367 635.5 358 c 128,-1,1
EndSplineSet
EndChar

StartChar: H
Encoding: 42 72 44
Width: 758
GlyphClass: 2
Flags: W
AnchorPoint: "Anchor-12" 379 358 basechar 0
AnchorPoint: "Anchor-11" 379 705 basechar 0
AnchorPoint: "Anchor-9" 379 0 basechar 0
LayerCount: 2
Fore
SplineSet
660.5 698.5 m 128,-1,1
 671 687 671 687 671 668 c 2,2,-1
 671 37 l 2,3,4
 671 18 671 18 660.5 6.5 c 128,-1,5
 650 -5 650 -5 631 -5 c 256,6,7
 612 -5 612 -5 601 6.5 c 128,-1,8
 590 18 590 18 590 37 c 2,9,-1
 590 323 l 1,10,-1
 168 323 l 1,11,-1
 168 37 l 2,12,13
 168 18 168 18 157 6.5 c 128,-1,14
 146 -5 146 -5 127 -5 c 256,15,16
 108 -5 108 -5 97.5 6.5 c 128,-1,17
 87 18 87 18 87 37 c 2,18,-1
 87 668 l 2,19,20
 87 687 87 687 97.5 698.5 c 128,-1,21
 108 710 108 710 127 710 c 256,22,23
 146 710 146 710 157 698.5 c 128,-1,24
 168 687 168 687 168 668 c 2,25,-1
 168 393 l 1,26,-1
 590 393 l 1,27,-1
 590 668 l 2,28,29
 590 687 590 687 601 698.5 c 128,-1,30
 612 710 612 710 631 710 c 256,31,0
 650 710 650 710 660.5 698.5 c 128,-1,1
EndSplineSet
EndChar

StartChar: I
Encoding: 43 73 45
Width: 256
GlyphClass: 2
Flags: W
AnchorPoint: "Anchor-11" 128 705 basechar 0
AnchorPoint: "Anchor-10" 159 10 basechar 0
AnchorPoint: "Anchor-9" 128 0 basechar 0
LayerCount: 2
Fore
SplineSet
98 6.5 m 128,-1,1
 87 18 87 18 87 37 c 2,2,-1
 87 668 l 2,3,4
 87 687 87 687 98 698.5 c 128,-1,5
 109 710 109 710 128 710 c 256,6,7
 147 710 147 710 158 698.5 c 128,-1,8
 169 687 169 687 169 668 c 2,9,-1
 169 37 l 2,10,11
 169 18 169 18 158 6.5 c 128,-1,12
 147 -5 147 -5 128 -5 c 256,13,0
 109 -5 109 -5 98 6.5 c 128,-1,1
EndSplineSet
EndChar

StartChar: J
Encoding: 44 74 46
Width: 326
GlyphClass: 2
Flags: W
AnchorPoint: "Anchor-11" 198 705 basechar 0
AnchorPoint: "Anchor-9" 198 0 basechar 0
LayerCount: 2
Fore
SplineSet
2 2 m 128,-1,1
 -11 11 -11 11 -11 29 c 0,2,3
 -11 62 -11 62 26 63 c 2,4,-1
 56 65 l 2,5,6
 107 68 107 68 132 96.5 c 128,-1,7
 157 125 157 125 157 188 c 2,8,-1
 157 668 l 2,9,10
 157 687 157 687 169 698.5 c 128,-1,11
 181 710 181 710 198 710 c 0,12,13
 217 710 217 710 228 698.5 c 128,-1,14
 239 687 239 687 239 668 c 2,15,-1
 239 187 l 2,16,17
 239 95 239 95 197 48.5 c 128,-1,18
 155 2 155 2 70 -3 c 2,19,-1
 40 -5 l 2,20,0
 15 -7 15 -7 2 2 c 128,-1,1
EndSplineSet
EndChar

StartChar: K
Encoding: 45 75 47
Width: 628
GlyphClass: 2
Flags: W
AnchorPoint: "Anchor-11" 315 705 basechar 0
AnchorPoint: "Anchor-9" 316 0 basechar 0
LayerCount: 2
Fore
SplineSet
608 33 m 0,1,2
 608 19 608 19 596.5 7.5 c 128,-1,3
 585 -4 585 -4 570 -4 c 0,4,5
 557 -4 557 -4 543 8 c 2,6,-1
 169 335 l 1,7,-1
 169 37 l 2,8,9
 169 18 169 18 158 6.5 c 128,-1,10
 147 -5 147 -5 128 -5 c 256,11,12
 109 -5 109 -5 98 6.5 c 128,-1,13
 87 18 87 18 87 37 c 2,14,-1
 87 668 l 2,15,16
 87 687 87 687 98 698.5 c 128,-1,17
 109 710 109 710 128 710 c 256,18,19
 147 710 147 710 158 698.5 c 128,-1,20
 169 687 169 687 169 668 c 2,21,-1
 169 381 l 1,22,-1
 526 698 l 2,23,24
 537 709 537 709 552 709 c 256,25,26
 567 709 567 709 578 697.5 c 128,-1,27
 589 686 589 686 589 672 c 0,28,29
 589 657 589 657 576 644 c 2,30,-1
 253 360 l 1,31,-1
 594 62 l 2,32,0
 608 49 608 49 608 33 c 0,1,2
EndSplineSet
EndChar

StartChar: L
Encoding: 46 76 48
Width: 540
GlyphClass: 2
Flags: W
AnchorPoint: "Anchor-13" 259 705 basechar 0
AnchorPoint: "Anchor-12" 350 353 basechar 0
AnchorPoint: "Anchor-11" 128 705 basechar 0
AnchorPoint: "Anchor-9" 309 0 basechar 0
LayerCount: 2
Fore
SplineSet
98.5 10.5 m 128,-1,1
 87 21 87 21 87 38 c 2,2,-1
 87 668 l 2,3,4
 87 687 87 687 98 698.5 c 128,-1,5
 109 710 109 710 128 710 c 256,6,7
 147 710 147 710 158 698.5 c 128,-1,8
 169 687 169 687 169 668 c 2,9,-1
 169 70 l 1,10,-1
 492 70 l 2,11,12
 510 70 510 70 520 61 c 128,-1,13
 530 52 530 52 530 35 c 256,14,15
 530 18 530 18 520 9 c 128,-1,16
 510 0 510 0 492 0 c 2,17,-1
 127 0 l 2,18,0
 110 0 110 0 98.5 10.5 c 128,-1,1
EndSplineSet
EndChar

StartChar: M
Encoding: 47 77 49
Width: 841
GlyphClass: 2
Flags: W
AnchorPoint: "Anchor-11" 420 705 basechar 0
AnchorPoint: "Anchor-9" 420 0 basechar 0
LayerCount: 2
Fore
SplineSet
742.5 698.5 m 128,-1,1
 753 687 753 687 753 668 c 2,2,-1
 753 35 l 2,3,4
 753 17 753 17 743 6 c 128,-1,5
 733 -5 733 -5 715 -5 c 256,6,7
 697 -5 697 -5 688 6 c 128,-1,8
 679 17 679 17 679 35 c 2,9,-1
 679 546 l 1,10,-1
 462 130 l 2,11,12
 448 101 448 101 421 101 c 0,13,14
 395 101 395 101 380 130 c 2,15,-1
 162 541 l 1,16,-1
 162 35 l 2,17,18
 162 17 162 17 152.5 6 c 128,-1,19
 143 -5 143 -5 125 -5 c 256,20,21
 107 -5 107 -5 97 6 c 128,-1,22
 87 17 87 17 87 35 c 2,23,-1
 87 668 l 2,24,25
 87 687 87 687 98 698.5 c 128,-1,26
 109 710 109 710 128 710 c 0,27,28
 153 710 153 710 168 681 c 2,29,-1
 422 194 l 1,30,-1
 673 681 l 2,31,32
 681 697 681 697 690.5 703.5 c 128,-1,33
 700 710 700 710 713 710 c 0,34,0
 732 710 732 710 742.5 698.5 c 128,-1,1
EndSplineSet
EndChar

StartChar: N
Encoding: 48 78 50
Width: 739
GlyphClass: 2
Flags: W
AnchorPoint: "Anchor-11" 369 705 basechar 0
AnchorPoint: "Anchor-9" 370 0 basechar 0
LayerCount: 2
Fore
SplineSet
642 698.5 m 128,-1,1
 652 687 652 687 652 668 c 2,2,-1
 652 37 l 2,3,4
 652 18 652 18 641.5 6.5 c 128,-1,5
 631 -5 631 -5 612 -5 c 256,6,7
 593 -5 593 -5 579 12 c 2,8,-1
 164 567 l 1,9,-1
 164 37 l 2,10,11
 164 18 164 18 153.5 6.5 c 128,-1,12
 143 -5 143 -5 125 -5 c 256,13,14
 107 -5 107 -5 97 6.5 c 128,-1,15
 87 18 87 18 87 37 c 2,16,-1
 87 668 l 2,17,18
 87 687 87 687 97.5 698.5 c 128,-1,19
 108 710 108 710 127 710 c 0,20,21
 147 710 147 710 161 693 c 2,22,-1
 575 138 l 1,23,-1
 575 668 l 2,24,25
 575 687 575 687 585.5 698.5 c 128,-1,26
 596 710 596 710 614 710 c 256,27,0
 632 710 632 710 642 698.5 c 128,-1,1
EndSplineSet
EndChar

StartChar: O
Encoding: 49 79 51
Width: 764
GlyphClass: 2
Flags: W
AnchorPoint: "Anchor-13" 412 705 basechar 0
AnchorPoint: "Anchor-12" 383 353 basechar 0
AnchorPoint: "Anchor-11" 382 705 basechar 0
AnchorPoint: "Anchor-10" 490 10 basechar 0
AnchorPoint: "Anchor-9" 382 0 basechar 0
AnchorPoint: "Anchor-8" 600 730 basechar 0
LayerCount: 2
Fore
SplineSet
211.5 36 m 128,-1,1
 139 80 139 80 100 161 c 128,-1,2
 61 242 61 242 61 352 c 0,3,4
 61 463 61 463 99.5 544.5 c 128,-1,5
 138 626 138 626 210.5 669.5 c 128,-1,6
 283 713 283 713 382 713 c 256,7,8
 481 713 481 713 553.5 669.5 c 128,-1,9
 626 626 626 626 664.5 544.5 c 128,-1,10
 703 463 703 463 703 353 c 256,11,12
 703 243 703 243 664 161.5 c 128,-1,13
 625 80 625 80 552.5 36 c 128,-1,14
 480 -8 480 -8 382 -8 c 256,15,0
 284 -8 284 -8 211.5 36 c 128,-1,1
556.5 137.5 m 128,-1,17
 619 213 619 213 619 353 c 256,18,19
 619 493 619 493 557 568 c 128,-1,20
 495 643 495 643 382 643 c 0,21,22
 270 643 270 643 207.5 567.5 c 128,-1,23
 145 492 145 492 145 353 c 256,24,25
 145 214 145 214 207.5 138 c 128,-1,26
 270 62 270 62 382 62 c 256,27,16
 494 62 494 62 556.5 137.5 c 128,-1,17
EndSplineSet
Substitution2: "Single Substitution lookup 33 subtable" ordmasculine
Substitution2: "'aalt' Access All Alternates lookup 0 subtable" ordmasculine
EndChar

StartChar: P
Encoding: 50 80 52
Width: 645
GlyphClass: 2
Flags: W
AnchorPoint: "Anchor-11" 323 705 basechar 0
AnchorPoint: "Anchor-9" 323 0 basechar 0
LayerCount: 2
Fore
SplineSet
98 6.5 m 128,-1,1
 87 18 87 18 87 37 c 2,2,-1
 87 665 l 2,3,4
 87 683 87 683 98.5 694 c 128,-1,5
 110 705 110 705 129 705 c 2,6,-1
 366 705 l 2,7,8
 477 705 477 705 538.5 651 c 128,-1,9
 600 597 600 597 600 498 c 256,10,11
 600 399 600 399 538 344 c 128,-1,12
 476 289 476 289 366 289 c 2,13,-1
 169 289 l 1,14,-1
 169 37 l 2,15,16
 169 18 169 18 158 6.5 c 128,-1,17
 147 -5 147 -5 128 -5 c 256,18,0
 109 -5 109 -5 98 6.5 c 128,-1,1
519 498 m 0,20,21
 519 637 519 637 358 637 c 2,22,-1
 169 637 l 1,23,-1
 169 357 l 1,24,-1
 358 357 l 2,25,19
 519 357 519 357 519 498 c 0,20,21
EndSplineSet
EndChar

StartChar: Q
Encoding: 51 81 53
Width: 764
GlyphClass: 2
Flags: W
AnchorPoint: "Anchor-11" 382 705 basechar 0
AnchorPoint: "Anchor-9" 382 0 basechar 0
LayerCount: 2
Fore
SplineSet
624 -130 m 2,0,1
 631 -141 631 -141 631 -153 c 0,2,3
 631 -167 631 -167 620 -176 c 128,-1,4
 609 -185 609 -185 594 -185 c 0,5,6
 568 -185 568 -185 552 -159 c 2,7,-1
 494 -64 l 2,8,9
 458 -8 458 -8 382 -8 c 0,10,11
 284 -8 284 -8 211.5 36 c 128,-1,12
 139 80 139 80 100 161 c 128,-1,13
 61 242 61 242 61 352 c 0,14,15
 61 463 61 463 99.5 544.5 c 128,-1,16
 138 626 138 626 210.5 669.5 c 128,-1,17
 283 713 283 713 382 713 c 0,18,19
 480 713 480 713 552.5 669.5 c 128,-1,20
 625 626 625 626 664 544.5 c 128,-1,21
 703 463 703 463 703 353 c 0,22,23
 703 225 703 225 651.5 136.5 c 128,-1,24
 600 48 600 48 505 13 c 1,25,26
 527 6 527 6 544 -10.5 c 128,-1,27
 561 -27 561 -27 579 -56 c 2,28,-1
 624 -130 l 2,0,1
207.5 138 m 128,-1,30
 270 62 270 62 382 62 c 256,31,32
 494 62 494 62 556.5 137.5 c 128,-1,33
 619 213 619 213 619 353 c 256,34,35
 619 493 619 493 557 568 c 128,-1,36
 495 643 495 643 382 643 c 0,37,38
 270 643 270 643 207.5 567.5 c 128,-1,39
 145 492 145 492 145 353 c 256,40,29
 145 214 145 214 207.5 138 c 128,-1,30
EndSplineSet
EndChar

StartChar: R
Encoding: 52 82 54
Width: 686
GlyphClass: 2
Flags: W
AnchorPoint: "Anchor-11" 341 705 basechar 0
AnchorPoint: "Anchor-9" 341 0 basechar 0
LayerCount: 2
Fore
SplineSet
632 28 m 0,1,2
 632 13 632 13 620.5 3.5 c 128,-1,3
 609 -6 609 -6 594 -6 c 0,4,5
 571 -6 571 -6 558 14 c 2,6,-1
 424 226 l 2,7,8
 398 267 398 267 370 282.5 c 128,-1,9
 342 298 342 298 294 298 c 2,10,-1
 168 298 l 1,11,-1
 168 37 l 2,12,13
 168 18 168 18 157 6.5 c 128,-1,14
 146 -5 146 -5 128 -5 c 0,15,16
 109 -5 109 -5 98 6.5 c 128,-1,17
 87 18 87 18 87 37 c 2,18,-1
 87 665 l 2,19,20
 87 683 87 683 98.5 694 c 128,-1,21
 110 705 110 705 129 705 c 2,22,-1
 377 705 l 2,23,24
 492 705 492 705 552.5 654 c 128,-1,25
 613 603 613 603 613 504 c 0,26,27
 613 420 613 420 564.5 369 c 128,-1,28
 516 318 516 318 426 307 c 1,29,30
 451 299 451 299 471 281 c 128,-1,31
 491 263 491 263 511 231 c 2,32,-1
 625 51 l 2,33,0
 632 40 632 40 632 28 c 0,1,2
370 366 m 2,34,35
 452 366 452 366 492.5 400 c 128,-1,36
 533 434 533 434 533 503 c 0,37,38
 533 571 533 571 493 604 c 128,-1,39
 453 637 453 637 370 637 c 2,40,-1
 168 637 l 1,41,-1
 168 366 l 1,42,-1
 370 366 l 2,34,35
EndSplineSet
EndChar

StartChar: S
Encoding: 53 83 55
Width: 617
GlyphClass: 2
Flags: W
AnchorPoint: "Anchor-11" 309 705 basechar 0
AnchorPoint: "Anchor-9" 312 0 basechar 0
LayerCount: 2
Fore
SplineSet
168.5 14.5 m 128,-1,1
 100 37 100 37 59 75 c 0,2,3
 44 89 44 89 44 110 c 0,4,5
 44 124 44 124 52 134.5 c 128,-1,6
 60 145 60 145 71 145 c 0,7,8
 84 145 84 145 99 134 c 0,9,10
 192 62 192 62 311 62 c 0,11,12
 397 62 397 62 443 95 c 128,-1,13
 489 128 489 128 489 189 c 0,14,15
 489 224 489 224 467 245.5 c 128,-1,16
 445 267 445 267 409 280 c 128,-1,17
 373 293 373 293 312 307 c 0,18,19
 230 326 230 326 177.5 347 c 128,-1,20
 125 368 125 368 92.5 407 c 128,-1,21
 60 446 60 446 60 509 c 0,22,23
 60 569 60 569 92.5 615.5 c 128,-1,24
 125 662 125 662 183.5 687.5 c 128,-1,25
 242 713 242 713 317 713 c 0,26,27
 387 713 387 713 447.5 691.5 c 128,-1,28
 508 670 508 670 549 630 c 0,29,30
 565 614 565 614 565 595 c 0,31,32
 565 581 565 581 557 570.5 c 128,-1,33
 549 560 549 560 538 560 c 256,34,35
 527 560 527 560 509 571 c 0,36,37
 460 611 460 611 418 627 c 128,-1,38
 376 643 376 643 317 643 c 0,39,40
 234 643 234 643 188 608.5 c 128,-1,41
 142 574 142 574 142 512 c 0,42,43
 142 459 142 459 182.5 432.5 c 128,-1,44
 223 406 223 406 307 386 c 0,45,46
 398 364 398 364 450 345.5 c 128,-1,47
 502 327 502 327 536.5 290 c 128,-1,48
 571 253 571 253 571 191 c 0,49,50
 571 132 571 132 538.5 87 c 128,-1,51
 506 42 506 42 447 17 c 128,-1,52
 388 -8 388 -8 312 -8 c 0,53,0
 237 -8 237 -8 168.5 14.5 c 128,-1,1
EndSplineSet
EndChar

StartChar: T
Encoding: 54 84 56
Width: 598
GlyphClass: 2
Flags: W
AnchorPoint: "Anchor-12" 299 353 basechar 0
AnchorPoint: "Anchor-11" 299 705 basechar 0
AnchorPoint: "Anchor-9" 299 0 basechar 0
LayerCount: 2
Fore
SplineSet
268.5 6.5 m 128,-1,1
 257 18 257 18 257 37 c 2,2,-1
 257 635 l 1,3,-1
 42 635 l 2,4,5
 24 635 24 635 14 644 c 128,-1,6
 4 653 4 653 4 670 c 256,7,8
 4 687 4 687 14 696 c 128,-1,9
 24 705 24 705 42 705 c 2,10,-1
 555 705 l 2,11,12
 573 705 573 705 583 696 c 128,-1,13
 593 687 593 687 593 670 c 256,14,15
 593 653 593 653 583 644 c 128,-1,16
 573 635 573 635 555 635 c 2,17,-1
 340 635 l 1,18,-1
 340 37 l 2,19,20
 340 18 340 18 329 6.5 c 128,-1,21
 318 -5 318 -5 299 -5 c 256,22,0
 280 -5 280 -5 268.5 6.5 c 128,-1,1
EndSplineSet
EndChar

StartChar: U
Encoding: 55 85 57
Width: 724
GlyphClass: 2
Flags: W
AnchorPoint: "Anchor-13" 601 705 basechar 0
AnchorPoint: "Anchor-11" 362 705 basechar 0
AnchorPoint: "Anchor-10" 477 10 basechar 0
AnchorPoint: "Anchor-9" 362 0 basechar 0
LayerCount: 2
Fore
SplineSet
153 64 m 128,-1,1
 82 136 82 136 82 276 c 2,2,-1
 82 668 l 2,3,4
 82 687 82 687 93 698.5 c 128,-1,5
 104 710 104 710 123 710 c 0,6,7
 141 710 141 710 152 698.5 c 128,-1,8
 163 687 163 687 163 668 c 2,9,-1
 163 269 l 2,10,11
 163 166 163 166 213.5 114 c 128,-1,12
 264 62 264 62 362 62 c 256,13,14
 460 62 460 62 510 114 c 128,-1,15
 560 166 560 166 560 269 c 2,16,-1
 560 668 l 2,17,18
 560 687 560 687 571.5 698.5 c 128,-1,19
 583 710 583 710 601 710 c 0,20,21
 620 710 620 710 631 698.5 c 128,-1,22
 642 687 642 687 642 668 c 2,23,-1
 642 276 l 2,24,25
 642 137 642 137 570.5 64.5 c 128,-1,26
 499 -8 499 -8 362 -8 c 0,27,0
 224 -8 224 -8 153 64 c 128,-1,1
EndSplineSet
EndChar

StartChar: V
Encoding: 56 86 58
Width: 691
GlyphClass: 2
Flags: W
AnchorPoint: "Anchor-11" 345 705 basechar 0
AnchorPoint: "Anchor-9" 346 0 basechar 0
LayerCount: 2
Fore
SplineSet
618.5 706 m 128,-1,1
 628 712 628 712 639 712 c 0,2,3
 655 712 655 712 667.5 701.5 c 128,-1,4
 680 691 680 691 680 676 c 0,5,6
 680 668 680 668 676 660 c 2,7,-1
 389 22 l 2,8,9
 383 9 383 9 371 2 c 128,-1,10
 359 -5 359 -5 345 -5 c 256,11,12
 331 -5 331 -5 319 2 c 128,-1,13
 307 9 307 9 301 22 c 2,14,-1
 15 660 l 2,15,16
 12 668 12 668 12 675 c 0,17,18
 12 691 12 691 25 701.5 c 128,-1,19
 38 712 38 712 54 712 c 0,20,21
 78 712 78 712 89 689 c 2,22,-1
 347 106 l 1,23,-1
 604 689 l 2,24,0
 609 700 609 700 618.5 706 c 128,-1,1
EndSplineSet
EndChar

StartChar: W
Encoding: 57 87 59
Width: 1101
GlyphClass: 2
Flags: W
AnchorPoint: "Anchor-11" 550 705 basechar 0
AnchorPoint: "Anchor-9" 551 0 basechar 0
LayerCount: 2
Fore
SplineSet
1002 704.5 m 128,-1,1
 1012 711 1012 711 1024 711 c 0,2,3
 1040 711 1040 711 1051.5 701.5 c 128,-1,4
 1063 692 1063 692 1063 676 c 0,5,6
 1063 669 1063 669 1060 660 c 2,7,-1
 834 23 l 2,8,9
 829 9 829 9 817 1.5 c 128,-1,10
 805 -6 805 -6 790 -6 c 0,11,12
 776 -6 776 -6 764 1.5 c 128,-1,13
 752 9 752 9 747 23 c 2,14,-1
 551 577 l 1,15,-1
 353 23 l 2,16,17
 348 9 348 9 336 1.5 c 128,-1,18
 324 -6 324 -6 310 -6 c 256,19,20
 296 -6 296 -6 284 1.5 c 128,-1,21
 272 9 272 9 267 23 c 2,22,-1
 40 660 l 2,23,24
 37 668 37 668 37 675 c 0,25,26
 37 691 37 691 49.5 701 c 128,-1,27
 62 711 62 711 78 711 c 0,28,29
 90 711 90 711 100.5 704.5 c 128,-1,30
 111 698 111 698 115 685 c 2,31,-1
 312 117 l 1,32,-1
 512 679 l 2,33,34
 517 694 517 694 528 701.5 c 128,-1,35
 539 709 539 709 552 709 c 256,36,37
 565 709 565 709 576 701 c 128,-1,38
 587 693 587 693 592 678 c 2,39,-1
 789 115 l 1,40,-1
 988 685 l 2,41,0
 992 698 992 698 1002 704.5 c 128,-1,1
EndSplineSet
EndChar

StartChar: X
Encoding: 58 88 60
Width: 646
GlyphClass: 2
Flags: W
AnchorPoint: "Anchor-11" 323 705 basechar 0
AnchorPoint: "Anchor-9" 323 0 basechar 0
LayerCount: 2
Fore
SplineSet
620 34 m 0,1,2
 620 18 620 18 608 7 c 128,-1,3
 596 -4 596 -4 580 -4 c 256,4,5
 564 -4 564 -4 551 10 c 2,6,-1
 323 301 l 1,7,-1
 94 10 l 2,8,9
 83 -4 83 -4 65 -4 c 0,10,11
 50 -4 50 -4 38 7.5 c 128,-1,12
 26 19 26 19 26 34 c 256,13,14
 26 49 26 49 35 59 c 2,15,-1
 275 360 l 1,16,-1
 48 646 l 2,17,18
 38 657 38 657 38 672 c 256,19,20
 38 687 38 687 49.5 698 c 128,-1,21
 61 709 61 709 76 709 c 0,22,23
 93 709 93 709 105 694 c 2,24,-1
 323 418 l 1,25,-1
 540 694 l 2,26,27
 552 709 552 709 569 709 c 0,28,29
 584 709 584 709 596 697.5 c 128,-1,30
 608 686 608 686 608 670 c 0,31,32
 608 656 608 656 599 646 c 2,33,-1
 371 360 l 1,34,-1
 610 59 l 2,35,0
 620 48 620 48 620 34 c 0,1,2
EndSplineSet
EndChar

StartChar: Y
Encoding: 59 89 61
Width: 601
GlyphClass: 2
Flags: W
AnchorPoint: "Anchor-11" 300 705 basechar 0
AnchorPoint: "Anchor-9" 300 0 basechar 0
LayerCount: 2
Fore
SplineSet
557 709 m 0,1,2
 571 709 571 709 582 698 c 128,-1,3
 593 687 593 687 593 671 c 0,4,5
 593 656 593 656 584 646 c 2,6,-1
 341 339 l 1,7,-1
 341 37 l 2,8,9
 341 17 341 17 329.5 6 c 128,-1,10
 318 -5 318 -5 300 -5 c 256,11,12
 282 -5 282 -5 270.5 6 c 128,-1,13
 259 17 259 17 259 37 c 2,14,-1
 259 340 l 1,15,-1
 16 646 l 2,16,17
 6 657 6 657 6 671 c 0,18,19
 6 687 6 687 17.5 698 c 128,-1,20
 29 709 29 709 44 709 c 0,21,22
 61 709 61 709 73 694 c 2,23,-1
 301 403 l 1,24,-1
 528 694 l 2,25,0
 540 709 540 709 557 709 c 0,1,2
EndSplineSet
EndChar

StartChar: Z
Encoding: 60 90 62
Width: 590
GlyphClass: 2
Flags: W
AnchorPoint: "Anchor-11" 295 705 basechar 0
AnchorPoint: "Anchor-9" 299 0 basechar 0
LayerCount: 2
Fore
SplineSet
551 60 m 128,-1,1
 561 51 561 51 561 35 c 0,2,3
 561 18 561 18 551 9 c 128,-1,4
 541 0 541 0 523 0 c 2,5,-1
 76 0 l 2,6,7
 58 0 58 0 47.5 10 c 128,-1,8
 37 20 37 20 37 35 c 256,9,10
 37 50 37 50 48 66 c 2,11,-1
 448 636 l 1,12,-1
 76 636 l 2,13,14
 58 636 58 636 48 645 c 128,-1,15
 38 654 38 654 38 670 c 0,16,17
 38 687 38 687 48 696 c 128,-1,18
 58 705 58 705 76 705 c 2,19,-1
 512 705 l 2,20,21
 530 705 530 705 540.5 695 c 128,-1,22
 551 685 551 685 551 670 c 0,23,24
 551 656 551 656 540 640 c 2,25,-1
 139 69 l 1,26,-1
 523 69 l 2,27,0
 541 69 541 69 551 60 c 128,-1,1
EndSplineSet
EndChar

StartChar: bracketleft
Encoding: 61 91 63
Width: 314
GlyphClass: 2
Flags: W
LayerCount: 2
Fore
SplineSet
135 -153.5 m 128,-1,1
 109 -127 109 -127 109 -78 c 2,2,-1
 109 603 l 2,3,4
 109 652 109 652 135 678.5 c 128,-1,5
 161 705 161 705 210 705 c 2,6,-1
 279 705 l 2,7,8
 295 705 295 705 304.5 697 c 128,-1,9
 314 689 314 689 314 673 c 0,10,11
 314 658 314 658 304.5 649.5 c 128,-1,12
 295 641 295 641 279 641 c 2,13,-1
 232 641 l 2,14,15
 189 641 189 641 189 596 c 2,16,-1
 189 -71 l 2,17,18
 189 -116 189 -116 232 -116 c 2,19,-1
 279 -116 l 2,20,21
 295 -116 295 -116 304.5 -124.5 c 128,-1,22
 314 -133 314 -133 314 -148 c 0,23,24
 314 -164 314 -164 304.5 -172 c 128,-1,25
 295 -180 295 -180 279 -180 c 2,26,-1
 210 -180 l 2,27,0
 161 -180 161 -180 135 -153.5 c 128,-1,1
EndSplineSet
EndChar

StartChar: backslash
Encoding: 62 92 64
Width: 282
GlyphClass: 2
Flags: W
LayerCount: 2
Fore
SplineSet
-12 716 m 0,1,2
 -12 731 -12 731 -1.5 741 c 128,-1,3
 9 751 9 751 23 751 c 0,4,5
 47 751 47 751 56 724 c 2,6,-1
 293 -14 l 2,7,8
 295 -24 295 -24 295 -28 c 0,9,10
 295 -43 295 -43 284.5 -53 c 128,-1,11
 274 -63 274 -63 260 -63 c 0,12,13
 249 -63 249 -63 239.5 -56.5 c 128,-1,14
 230 -50 230 -50 226 -36 c 2,15,-1
 -10 702 l 2,16,0
 -12 707 -12 707 -12 716 c 0,1,2
EndSplineSet
EndChar

StartChar: bracketright
Encoding: 63 93 65
Width: 314
GlyphClass: 2
Flags: W
LayerCount: 2
Fore
SplineSet
9.5 -172 m 128,-1,1
 0 -164 0 -164 0 -148 c 0,2,3
 0 -133 0 -133 9.5 -124.5 c 128,-1,4
 19 -116 19 -116 35 -116 c 2,5,-1
 81 -116 l 2,6,7
 125 -116 125 -116 125 -71 c 2,8,-1
 125 596 l 2,9,10
 125 641 125 641 81 641 c 2,11,-1
 35 641 l 2,12,13
 19 641 19 641 9.5 649.5 c 128,-1,14
 0 658 0 658 0 673 c 0,15,16
 0 689 0 689 9.5 697 c 128,-1,17
 19 705 19 705 35 705 c 2,18,-1
 104 705 l 2,19,20
 153 705 153 705 179 678.5 c 128,-1,21
 205 652 205 652 205 603 c 2,22,-1
 205 -78 l 2,23,24
 205 -127 205 -127 179 -153.5 c 128,-1,25
 153 -180 153 -180 104 -180 c 2,26,-1
 35 -180 l 2,27,0
 19 -180 19 -180 9.5 -172 c 128,-1,1
EndSplineSet
EndChar

StartChar: asciicircum
Encoding: 64 94 66
Width: 600
GlyphClass: 2
Flags: W
LayerCount: 2
Fore
SplineSet
534 172 m 0,1,2
 534 158 534 158 524.5 149.5 c 128,-1,3
 515 141 515 141 502 141 c 0,4,5
 485 141 485 141 478 157 c 2,6,-1
 300 552 l 1,7,-1
 122 157 l 2,8,9
 116 141 116 141 98 141 c 0,10,11
 86 141 86 141 76 149.5 c 128,-1,12
 66 158 66 158 66 172 c 0,13,14
 66 181 66 181 70 189 c 2,15,-1
 256 600 l 2,16,17
 262 613 262 613 273.5 621 c 128,-1,18
 285 629 285 629 300 629 c 0,19,20
 314 629 314 629 326 621 c 128,-1,21
 338 613 338 613 344 600 c 2,22,-1
 530 189 l 2,23,0
 534 181 534 181 534 172 c 0,1,2
EndSplineSet
EndChar

StartChar: underscore
Encoding: 65 95 67
Width: 500
GlyphClass: 2
Flags: W
LayerCount: 2
Fore
SplineSet
9 -45.5 m 128,-1,1
 0 -38 0 -38 0 -27 c 256,2,3
 0 -16 0 -16 9 -8 c 128,-1,4
 18 0 18 0 33 0 c 2,5,-1
 467 0 l 2,6,7
 482 0 482 0 491 -8 c 128,-1,8
 500 -16 500 -16 500 -27 c 256,9,10
 500 -38 500 -38 491 -45.5 c 128,-1,11
 482 -53 482 -53 467 -53 c 2,12,-1
 33 -53 l 2,13,0
 18 -53 18 -53 9 -45.5 c 128,-1,1
EndSplineSet
EndChar

StartChar: a
Encoding: 67 97 69
Width: 530
GlyphClass: 2
Flags: W
AnchorPoint: "Anchor-11" 274 491 basechar 0
AnchorPoint: "Anchor-10" 448 10 basechar 0
AnchorPoint: "Anchor-9" 271 0 basechar 0
LayerCount: 2
Fore
SplineSet
457 307 m 2,1,-1
 457 35 l 2,2,3
 457 17 457 17 446.5 6 c 128,-1,4
 436 -5 436 -5 418 -5 c 256,5,6
 400 -5 400 -5 389 6 c 128,-1,7
 378 17 378 17 378 35 c 2,8,-1
 378 83 l 1,9,10
 359 40 359 40 320 16.5 c 128,-1,11
 281 -7 281 -7 230 -7 c 0,12,13
 183 -7 183 -7 143.5 12 c 128,-1,14
 104 31 104 31 81 65 c 128,-1,15
 58 99 58 99 58 140 c 0,16,17
 58 195 58 195 86 225.5 c 128,-1,18
 114 256 114 256 178 269.5 c 128,-1,19
 242 283 242 283 356 283 c 2,20,-1
 378 283 l 1,21,-1
 378 316 l 2,22,23
 378 376 378 376 353.5 404 c 128,-1,24
 329 432 329 432 274 432 c 0,25,26
 206 432 206 432 136 395 c 0,27,28
 109 378 109 378 98 378 c 0,29,30
 86 378 86 378 78 387 c 128,-1,31
 70 396 70 396 70 410 c 256,32,33
 70 424 70 424 78.5 434.5 c 128,-1,34
 87 445 87 445 106 456 c 0,35,36
 141 476 141 476 185.5 487.5 c 128,-1,37
 230 499 230 499 274 499 c 0,38,0
 457 499 457 499 457 307 c 2,1,-1
339.5 97.5 m 128,-1,40
 378 138 378 138 378 202 c 2,41,-1
 378 231 l 1,42,-1
 360 231 l 2,43,44
 272 231 272 231 226 223.5 c 128,-1,45
 180 216 180 216 160.5 198.5 c 128,-1,46
 141 181 141 181 141 147 c 0,47,48
 141 108 141 108 169.5 82.5 c 128,-1,49
 198 57 198 57 241 57 c 0,50,39
 301 57 301 57 339.5 97.5 c 128,-1,40
EndSplineSet
Substitution2: "Single Substitution lookup 33 subtable" ordfeminine
Substitution2: "'ss01' Style Set 1 lookup 29 subtable" a.ss01
Substitution2: "'salt' Stylistic Alternatives lookup 28 subtable" a.ss01
AlternateSubs2: "'aalt' Access All Alternates lookup 1 subtable" ordfeminine a.ss01
EndChar

StartChar: b
Encoding: 68 98 70
Width: 582
GlyphClass: 2
Flags: W
AnchorPoint: "Anchor-11" 320 491 basechar 0
AnchorPoint: "Anchor-9" 303 0 basechar 0
LayerCount: 2
Fore
SplineSet
433 468 m 128,-1,1
 482 437 482 437 509 380 c 128,-1,2
 536 323 536 323 536 248 c 0,3,4
 536 172 536 172 509 114.5 c 128,-1,5
 482 57 482 57 433 25 c 128,-1,6
 384 -7 384 -7 320 -7 c 0,7,8
 263 -7 263 -7 220.5 18 c 128,-1,9
 178 43 178 43 156 89 c 1,10,-1
 156 35 l 2,11,12
 156 17 156 17 145.5 6 c 128,-1,13
 135 -5 135 -5 116 -5 c 256,14,15
 97 -5 97 -5 86 6 c 128,-1,16
 75 17 75 17 75 35 c 2,17,-1
 75 671 l 2,18,19
 75 688 75 688 86 699 c 128,-1,20
 97 710 97 710 116 710 c 256,21,22
 135 710 135 710 145.5 699.5 c 128,-1,23
 156 689 156 689 156 671 c 2,24,-1
 156 403 l 1,25,26
 178 449 178 449 220.5 474 c 128,-1,27
 263 499 263 499 320 499 c 0,28,0
 384 499 384 499 433 468 c 128,-1,1
414 109.5 m 128,-1,30
 453 159 453 159 453 248 c 0,31,32
 453 335 453 335 414 383 c 128,-1,33
 375 431 375 431 304 431 c 256,34,35
 233 431 233 431 194.5 383 c 128,-1,36
 156 335 156 335 156 246 c 256,37,38
 156 157 156 157 194.5 108.5 c 128,-1,39
 233 60 233 60 304 60 c 256,40,29
 375 60 375 60 414 109.5 c 128,-1,30
EndSplineSet
EndChar

StartChar: c
Encoding: 69 99 71
Width: 479
GlyphClass: 2
Flags: W
AnchorPoint: "Anchor-11" 280 491 basechar 0
AnchorPoint: "Anchor-9" 276 0 basechar 0
LayerCount: 2
Fore
SplineSet
155.5 24 m 128,-1,1
 103 55 103 55 74.5 112 c 128,-1,2
 46 169 46 169 46 244 c 256,3,4
 46 319 46 319 75.5 377 c 128,-1,5
 105 435 105 435 158 467 c 128,-1,6
 211 499 211 499 280 499 c 0,7,8
 318 499 318 499 355.5 488.5 c 128,-1,9
 393 478 393 478 421 458 c 0,10,11
 439 446 439 446 446.5 434.5 c 128,-1,12
 454 423 454 423 454 409 c 256,13,14
 454 395 454 395 446.5 386 c 128,-1,15
 439 377 439 377 427 377 c 0,16,17
 420 377 420 377 412 381 c 128,-1,18
 404 385 404 385 398.5 389 c 128,-1,19
 393 393 393 393 391 394 c 0,20,21
 365 411 365 411 341.5 421 c 128,-1,22
 318 431 318 431 284 431 c 0,23,24
 211 431 211 431 170.5 381.5 c 128,-1,25
 130 332 130 332 130 244 c 256,26,27
 130 156 130 156 170.5 108 c 128,-1,28
 211 60 211 60 284 60 c 0,29,30
 318 60 318 60 342.5 70 c 128,-1,31
 367 80 367 80 392 97 c 0,32,33
 403 104 403 104 413 109 c 128,-1,34
 423 114 423 114 430 114 c 0,35,36
 441 114 441 114 448.5 105 c 128,-1,37
 456 96 456 96 456 82 c 0,38,39
 456 69 456 69 449 58.5 c 128,-1,40
 442 48 442 48 423 35 c 0,41,42
 395 16 395 16 355.5 4.5 c 128,-1,43
 316 -7 316 -7 276 -7 c 0,44,0
 208 -7 208 -7 155.5 24 c 128,-1,1
EndSplineSet
EndChar

StartChar: d
Encoding: 70 100 72
Width: 582
GlyphClass: 2
Flags: W
AnchorPoint: "Anchor-13" 543 705 basechar 0
AnchorPoint: "Anchor-12" 293 246 basechar 0
AnchorPoint: "Anchor-11" 293 491 basechar 0
AnchorPoint: "Anchor-9" 293 0 basechar 0
LayerCount: 2
Fore
SplineSet
496 699 m 128,-1,1
 507 688 507 688 507 671 c 2,2,-1
 507 35 l 2,3,4
 507 17 507 17 496 6 c 128,-1,5
 485 -5 485 -5 466 -5 c 256,6,7
 447 -5 447 -5 436.5 6 c 128,-1,8
 426 17 426 17 426 35 c 2,9,-1
 426 89 l 1,10,11
 404 43 404 43 361.5 18 c 128,-1,12
 319 -7 319 -7 262 -7 c 0,13,14
 198 -7 198 -7 149 25 c 128,-1,15
 100 57 100 57 73 114.5 c 128,-1,16
 46 172 46 172 46 248 c 0,17,18
 46 323 46 323 73 380 c 128,-1,19
 100 437 100 437 149 468 c 128,-1,20
 198 499 198 499 262 499 c 0,21,22
 319 499 319 499 361.5 474 c 128,-1,23
 404 449 404 449 426 403 c 1,24,-1
 426 671 l 2,25,26
 426 689 426 689 436.5 699.5 c 128,-1,27
 447 710 447 710 466 710 c 256,28,0
 485 710 485 710 496 699 c 128,-1,1
387.5 108.5 m 128,-1,30
 426 157 426 157 426 246 c 256,31,32
 426 335 426 335 387.5 383 c 128,-1,33
 349 431 349 431 278 431 c 256,34,35
 207 431 207 431 167.5 383 c 128,-1,36
 128 335 128 335 128 248 c 0,37,38
 128 159 128 159 167.5 109.5 c 128,-1,39
 207 60 207 60 278 60 c 256,40,29
 349 60 349 60 387.5 108.5 c 128,-1,30
EndSplineSet
EndChar

StartChar: e
Encoding: 71 101 73
Width: 527
GlyphClass: 2
Flags: W
AnchorPoint: "Anchor-11" 276 491 basechar 0
AnchorPoint: "Anchor-10" 383 10 basechar 0
AnchorPoint: "Anchor-9" 290 0 basechar 0
LayerCount: 2
Fore
SplineSet
471 104 m 128,-1,1
 479 95 479 95 479 81 c 0,2,3
 479 56 479 56 444 35 c 0,4,5
 408 14 408 14 368 3.5 c 128,-1,6
 328 -7 328 -7 290 -7 c 0,7,8
 177 -7 177 -7 111.5 60 c 128,-1,9
 46 127 46 127 46 245 c 0,10,11
 46 320 46 320 75 377.5 c 128,-1,12
 104 435 104 435 156.5 467 c 128,-1,13
 209 499 209 499 276 499 c 0,14,15
 371 499 371 499 427 437 c 128,-1,16
 483 375 483 375 483 269 c 0,17,18
 483 249 483 249 475 240 c 128,-1,19
 467 231 467 231 449 231 c 2,20,-1
 127 231 l 1,21,22
 136 59 136 59 290 59 c 0,23,24
 329 59 329 59 357 69.5 c 128,-1,25
 385 80 385 80 417 98 c 0,26,27
 443 113 443 113 452 113 c 0,28,0
 463 113 463 113 471 104 c 128,-1,1
174.5 396 m 128,-1,30
 136 356 136 356 129 283 c 1,31,-1
 412 283 l 1,32,33
 410 357 410 357 375 396.5 c 128,-1,34
 340 436 340 436 277 436 c 0,35,29
 213 436 213 436 174.5 396 c 128,-1,30
EndSplineSet
EndChar

StartChar: f
Encoding: 72 102 74
Width: 328
GlyphClass: 2
Flags: W
AnchorPoint: "Anchor-11" 143 491 basechar 0
AnchorPoint: "Anchor-9" 143 0 basechar 0
LayerCount: 2
Fore
SplineSet
210 607.5 m 128,-1,1
 183 578 183 578 183 519 c 2,2,-1
 183 487 l 1,3,-1
 294 487 l 2,4,5
 311 487 311 487 320 478 c 128,-1,6
 329 469 329 469 329 454 c 256,7,8
 329 439 329 439 320 431 c 128,-1,9
 311 423 311 423 294 423 c 2,10,-1
 183 423 l 1,11,-1
 183 35 l 2,12,13
 183 16 183 16 171.5 5.5 c 128,-1,14
 160 -5 160 -5 143 -5 c 0,15,16
 125 -5 125 -5 113.5 5.5 c 128,-1,17
 102 16 102 16 102 35 c 2,18,-1
 102 423 l 1,19,-1
 35 423 l 2,20,21
 18 423 18 423 8.5 431.5 c 128,-1,22
 -1 440 -1 440 -1 454 c 0,23,24
 -1 469 -1 469 8.5 478 c 128,-1,25
 18 487 18 487 35 487 c 2,26,-1
 102 487 l 1,27,-1
 102 505 l 2,28,29
 102 595 102 595 147 646.5 c 128,-1,30
 192 698 192 698 276 704 c 2,31,-1
 302 706 l 2,32,33
 328 708 328 708 339.5 701 c 128,-1,34
 351 694 351 694 351 676 c 0,35,36
 351 647 351 647 316 643 c 2,37,-1
 290 641 l 2,38,0
 237 637 237 637 210 607.5 c 128,-1,1
EndSplineSet
EndChar

StartChar: g
Encoding: 73 103 75
Width: 586
GlyphClass: 2
Flags: W
AnchorPoint: "Anchor-11" 295 491 basechar 0
AnchorPoint: "Anchor-9" 295 0 basechar 0
LayerCount: 2
Fore
SplineSet
500 486 m 128,-1,1
 511 475 511 475 511 457 c 2,2,-1
 511 33 l 2,3,4
 511 -76 511 -76 455 -131.5 c 128,-1,5
 399 -187 399 -187 289 -187 c 0,6,7
 182 -187 182 -187 111 -145 c 0,8,9
 75 -125 75 -125 75 -99 c 0,10,11
 75 -85 75 -85 82.5 -76 c 128,-1,12
 90 -67 90 -67 102 -67 c 0,13,14
 112 -67 112 -67 138 -81 c 0,15,16
 173 -99 173 -99 207 -110 c 128,-1,17
 241 -121 241 -121 288 -121 c 0,18,19
 359 -121 359 -121 395 -83.5 c 128,-1,20
 431 -46 431 -46 431 26 c 2,21,-1
 431 112 l 1,22,23
 410 65 410 65 366.5 40 c 128,-1,24
 323 15 323 15 264 15 c 0,25,26
 200 15 200 15 150.5 45 c 128,-1,27
 101 75 101 75 73.5 130 c 128,-1,28
 46 185 46 185 46 257 c 256,29,30
 46 329 46 329 73.5 384 c 128,-1,31
 101 439 101 439 150.5 469 c 128,-1,32
 200 499 200 499 264 499 c 0,33,34
 322 499 322 499 365 474 c 128,-1,35
 408 449 408 449 430 403 c 1,36,-1
 430 457 l 2,37,38
 430 475 430 475 440.5 486 c 128,-1,39
 451 497 451 497 470 497 c 256,40,0
 489 497 489 497 500 486 c 128,-1,1
390 128.5 m 128,-1,42
 430 175 430 175 430 257 c 0,43,44
 430 338 430 338 390.5 384.5 c 128,-1,45
 351 431 351 431 280 431 c 256,46,47
 209 431 209 431 168.5 384.5 c 128,-1,48
 128 338 128 338 128 257 c 0,49,50
 128 175 128 175 168.5 128.5 c 128,-1,51
 209 82 209 82 280 82 c 0,52,41
 350 82 350 82 390 128.5 c 128,-1,42
EndSplineSet
EndChar

StartChar: h
Encoding: 74 104 76
Width: 568
GlyphClass: 2
Flags: W
AnchorPoint: "Anchor-12" 285 246 basechar 0
AnchorPoint: "Anchor-11" 116 705 basechar 0
AnchorPoint: "Anchor-9" 285 0 basechar 0
LayerCount: 2
Fore
SplineSet
451 450.5 m 128,-1,1
 495 402 495 402 495 306 c 2,2,-1
 495 35 l 2,3,4
 495 16 495 16 484 5.5 c 128,-1,5
 473 -5 473 -5 455 -5 c 0,6,7
 436 -5 436 -5 425 5.5 c 128,-1,8
 414 16 414 16 414 35 c 2,9,-1
 414 304 l 2,10,11
 414 369 414 369 387.5 400 c 128,-1,12
 361 431 361 431 303 431 c 0,13,14
 236 431 236 431 196 390 c 128,-1,15
 156 349 156 349 156 279 c 2,16,-1
 156 35 l 2,17,18
 156 16 156 16 145.5 5.5 c 128,-1,19
 135 -5 135 -5 116 -5 c 256,20,21
 97 -5 97 -5 86 5.5 c 128,-1,22
 75 16 75 16 75 35 c 2,23,-1
 75 671 l 2,24,25
 75 688 75 688 86.5 699 c 128,-1,26
 98 710 98 710 116 710 c 0,27,28
 135 710 135 710 145.5 699.5 c 128,-1,29
 156 689 156 689 156 671 c 2,30,-1
 156 409 l 1,31,32
 180 453 180 453 223 476 c 128,-1,33
 266 499 266 499 321 499 c 0,34,0
 407 499 407 499 451 450.5 c 128,-1,1
EndSplineSet
EndChar

StartChar: k
Encoding: 77 107 79
Width: 500
GlyphClass: 2
Flags: W
AnchorPoint: "Anchor-11" 250 491 basechar 0
AnchorPoint: "Anchor-9" 250 0 basechar 0
LayerCount: 2
Fore
SplineSet
480 32 m 0,1,2
 480 17 480 17 469.5 6 c 128,-1,3
 459 -5 459 -5 444 -5 c 0,4,5
 431 -5 431 -5 417 7 c 2,6,-1
 156 232 l 1,7,-1
 156 35 l 2,8,9
 156 16 156 16 144.5 5.5 c 128,-1,10
 133 -5 133 -5 116 -5 c 0,11,12
 98 -5 98 -5 86.5 5.5 c 128,-1,13
 75 16 75 16 75 35 c 2,14,-1
 75 670 l 2,15,16
 75 689 75 689 86.5 699.5 c 128,-1,17
 98 710 98 710 116 710 c 0,18,19
 133 710 133 710 144.5 699.5 c 128,-1,20
 156 689 156 689 156 670 c 2,21,-1
 156 264 l 1,22,-1
 395 483 l 2,23,24
 407 495 407 495 422 495 c 256,25,26
 437 495 437 495 448 484 c 128,-1,27
 459 473 459 473 459 458 c 0,28,29
 459 441 459 441 445 428 c 2,30,-1
 248 252 l 1,31,-1
 464 64 l 2,32,0
 480 49 480 49 480 32 c 0,1,2
EndSplineSet
EndChar

StartChar: l
Encoding: 78 108 80
Width: 232
GlyphClass: 2
Flags: W
AnchorPoint: "Anchor-13" 192 705 basechar 0
AnchorPoint: "Anchor-12" 116 246 basechar 0
AnchorPoint: "Anchor-11" 116 705 basechar 0
AnchorPoint: "Anchor-9" 116 0 basechar 0
LayerCount: 2
Fore
SplineSet
86.5 5.5 m 128,-1,1
 75 16 75 16 75 35 c 2,2,-1
 75 670 l 2,3,4
 75 689 75 689 86.5 699.5 c 128,-1,5
 98 710 98 710 116 710 c 0,6,7
 133 710 133 710 144.5 699.5 c 128,-1,8
 156 689 156 689 156 670 c 2,9,-1
 156 35 l 2,10,11
 156 16 156 16 144.5 5.5 c 128,-1,12
 133 -5 133 -5 116 -5 c 0,13,0
 98 -5 98 -5 86.5 5.5 c 128,-1,1
EndSplineSet
EndChar

StartChar: m
Encoding: 79 109 81
Width: 852
GlyphClass: 2
Flags: W
AnchorPoint: "Anchor-11" 427 491 basechar 0
AnchorPoint: "Anchor-9" 427 0 basechar 0
LayerCount: 2
Fore
SplineSet
779 306 m 2,1,-1
 779 35 l 2,2,3
 779 16 779 16 768 5.5 c 128,-1,4
 757 -5 757 -5 739 -5 c 256,5,6
 721 -5 721 -5 709.5 5.5 c 128,-1,7
 698 16 698 16 698 35 c 2,8,-1
 698 304 l 2,9,10
 698 371 698 371 674 401 c 128,-1,11
 650 431 650 431 599 431 c 0,12,13
 538 431 538 431 503 390 c 128,-1,14
 468 349 468 349 468 279 c 2,15,-1
 468 35 l 2,16,17
 468 16 468 16 456.5 5.5 c 128,-1,18
 445 -5 445 -5 427 -5 c 256,19,20
 409 -5 409 -5 398 5.5 c 128,-1,21
 387 16 387 16 387 35 c 2,22,-1
 387 304 l 2,23,24
 387 371 387 371 363 401 c 128,-1,25
 339 431 339 431 287 431 c 0,26,27
 227 431 227 431 191.5 390 c 128,-1,28
 156 349 156 349 156 279 c 2,29,-1
 156 35 l 2,30,31
 156 16 156 16 145 5.5 c 128,-1,32
 134 -5 134 -5 116 -5 c 256,33,34
 98 -5 98 -5 86.5 5.5 c 128,-1,35
 75 16 75 16 75 35 c 2,36,-1
 75 457 l 2,37,38
 75 475 75 475 86.5 486 c 128,-1,39
 98 497 98 497 116 497 c 0,40,41
 133 497 133 497 144 486.5 c 128,-1,42
 155 476 155 476 155 458 c 2,43,-1
 155 410 l 1,44,45
 177 453 177 453 216 476 c 128,-1,46
 255 499 255 499 306 499 c 0,47,48
 420 499 420 499 455 403 c 1,49,50
 476 447 476 447 519 473 c 128,-1,51
 562 499 562 499 617 499 c 0,52,0
 779 499 779 499 779 306 c 2,1,-1
EndSplineSet
EndChar

StartChar: n
Encoding: 80 110 82
Width: 568
GlyphClass: 2
Flags: W
AnchorPoint: "Anchor-11" 285 491 basechar 0
AnchorPoint: "Anchor-9" 285 0 basechar 0
LayerCount: 2
Fore
SplineSet
495 306 m 2,1,-1
 495 35 l 2,2,3
 495 16 495 16 484.5 5.5 c 128,-1,4
 474 -5 474 -5 455 -5 c 256,5,6
 436 -5 436 -5 425 5.5 c 128,-1,7
 414 16 414 16 414 35 c 2,8,-1
 414 301 l 2,9,10
 414 369 414 369 387.5 400 c 128,-1,11
 361 431 361 431 303 431 c 0,12,13
 236 431 236 431 196 390 c 128,-1,14
 156 349 156 349 156 279 c 2,15,-1
 156 35 l 2,16,17
 156 16 156 16 145.5 5.5 c 128,-1,18
 135 -5 135 -5 116 -5 c 256,19,20
 97 -5 97 -5 86 5.5 c 128,-1,21
 75 16 75 16 75 35 c 2,22,-1
 75 457 l 2,23,24
 75 475 75 475 86 486 c 128,-1,25
 97 497 97 497 116 497 c 0,26,27
 134 497 134 497 144.5 486 c 128,-1,28
 155 475 155 475 155 458 c 2,29,-1
 155 407 l 1,30,31
 179 452 179 452 222 475.5 c 128,-1,32
 265 499 265 499 320 499 c 0,33,0
 495 499 495 499 495 306 c 2,1,-1
EndSplineSet
EndChar

StartChar: o
Encoding: 81 111 83
Width: 555
GlyphClass: 2
Flags: W
AnchorPoint: "Anchor-13" 330 491 basechar 0
AnchorPoint: "Anchor-12" 277 246 basechar 0
AnchorPoint: "Anchor-11" 277 491 basechar 0
AnchorPoint: "Anchor-10" 365 10 basechar 0
AnchorPoint: "Anchor-9" 277 0 basechar 0
AnchorPoint: "Anchor-8" 440 530 basechar 0
LayerCount: 2
Fore
SplineSet
155.5 24 m 128,-1,1
 103 55 103 55 74.5 112.5 c 128,-1,2
 46 170 46 170 46 246 c 256,3,4
 46 322 46 322 74.5 379.5 c 128,-1,5
 103 437 103 437 155.5 468 c 128,-1,6
 208 499 208 499 277 499 c 256,7,8
 346 499 346 499 399 468 c 128,-1,9
 452 437 452 437 480.5 379.5 c 128,-1,10
 509 322 509 322 509 246 c 256,11,12
 509 170 509 170 480.5 112.5 c 128,-1,13
 452 55 452 55 399 24 c 128,-1,14
 346 -7 346 -7 277 -7 c 256,15,0
 208 -7 208 -7 155.5 24 c 128,-1,1
387.5 107.5 m 128,-1,17
 426 155 426 155 426 246 c 0,18,19
 426 335 426 335 387 383.5 c 128,-1,20
 348 432 348 432 277 432 c 256,21,22
 206 432 206 432 167 383.5 c 128,-1,23
 128 335 128 335 128 246 c 0,24,25
 128 156 128 156 166.5 108 c 128,-1,26
 205 60 205 60 277 60 c 256,27,16
 349 60 349 60 387.5 107.5 c 128,-1,17
EndSplineSet
Substitution2: "Single Substitution lookup 33 subtable" ordmasculine
Substitution2: "'aalt' Access All Alternates lookup 0 subtable" ordmasculine
EndChar

StartChar: p
Encoding: 82 112 84
Width: 582
GlyphClass: 2
Flags: W
AnchorPoint: "Anchor-11" 290 491 basechar 0
AnchorPoint: "Anchor-9" 290 0 basechar 0
LayerCount: 2
Fore
SplineSet
433 467 m 128,-1,1
 482 435 482 435 509 377.5 c 128,-1,2
 536 320 536 320 536 244 c 256,3,4
 536 168 536 168 509 111.5 c 128,-1,5
 482 55 482 55 433.5 24 c 128,-1,6
 385 -7 385 -7 320 -7 c 0,7,8
 263 -7 263 -7 220.5 18 c 128,-1,9
 178 43 178 43 156 89 c 1,10,-1
 156 -146 l 2,11,12
 156 -164 156 -164 145.5 -174.5 c 128,-1,13
 135 -185 135 -185 116 -185 c 256,14,15
 97 -185 97 -185 86 -174 c 128,-1,16
 75 -163 75 -163 75 -146 c 2,17,-1
 75 457 l 2,18,19
 75 475 75 475 86 486 c 128,-1,20
 97 497 97 497 116 497 c 256,21,22
 135 497 135 497 145.5 486 c 128,-1,23
 156 475 156 475 156 457 c 2,24,-1
 156 403 l 1,25,26
 178 449 178 449 220.5 474 c 128,-1,27
 263 499 263 499 320 499 c 0,28,0
 384 499 384 499 433 467 c 128,-1,1
414 108 m 128,-1,30
 453 156 453 156 453 244 c 256,31,32
 453 332 453 332 414 381.5 c 128,-1,33
 375 431 375 431 304 431 c 256,34,35
 233 431 233 431 194.5 383 c 128,-1,36
 156 335 156 335 156 246 c 256,37,38
 156 157 156 157 194.5 108.5 c 128,-1,39
 233 60 233 60 304 60 c 256,40,29
 375 60 375 60 414 108 c 128,-1,30
EndSplineSet
EndChar

StartChar: q
Encoding: 83 113 85
Width: 582
GlyphClass: 2
Flags: W
AnchorPoint: "Anchor-11" 293 491 basechar 0
AnchorPoint: "Anchor-9" 293 0 basechar 0
LayerCount: 2
Fore
SplineSet
496 486 m 128,-1,1
 507 475 507 475 507 457 c 2,2,-1
 507 -146 l 2,3,4
 507 -163 507 -163 496 -174 c 128,-1,5
 485 -185 485 -185 466 -185 c 256,6,7
 447 -185 447 -185 436.5 -174.5 c 128,-1,8
 426 -164 426 -164 426 -146 c 2,9,-1
 426 89 l 1,10,11
 404 43 404 43 361.5 18 c 128,-1,12
 319 -7 319 -7 262 -7 c 0,13,14
 197 -7 197 -7 148.5 24 c 128,-1,15
 100 55 100 55 73 111.5 c 128,-1,16
 46 168 46 168 46 244 c 256,17,18
 46 320 46 320 73 377.5 c 128,-1,19
 100 435 100 435 149 467 c 128,-1,20
 198 499 198 499 262 499 c 0,21,22
 319 499 319 499 361.5 474 c 128,-1,23
 404 449 404 449 426 403 c 1,24,-1
 426 457 l 2,25,26
 426 475 426 475 436.5 486 c 128,-1,27
 447 497 447 497 466 497 c 256,28,0
 485 497 485 497 496 486 c 128,-1,1
387.5 108.5 m 128,-1,30
 426 157 426 157 426 246 c 256,31,32
 426 335 426 335 387.5 383 c 128,-1,33
 349 431 349 431 278 431 c 256,34,35
 207 431 207 431 167.5 381.5 c 128,-1,36
 128 332 128 332 128 244 c 256,37,38
 128 156 128 156 167.5 108 c 128,-1,39
 207 60 207 60 278 60 c 256,40,29
 349 60 349 60 387.5 108.5 c 128,-1,30
EndSplineSet
EndChar

StartChar: r
Encoding: 84 114 86
Width: 353
GlyphClass: 2
Flags: W
AnchorPoint: "Anchor-11" 214 491 basechar 0
AnchorPoint: "Anchor-9" 116 0 basechar 0
LayerCount: 2
Fore
SplineSet
358 463 m 0,1,2
 358 447 358 447 349 437.5 c 128,-1,3
 340 428 340 428 318 426 c 2,4,-1
 288 423 l 2,5,6
 221 417 221 417 188.5 375.5 c 128,-1,7
 156 334 156 334 156 278 c 2,8,-1
 156 35 l 2,9,10
 156 15 156 15 145 5 c 128,-1,11
 134 -5 134 -5 116 -5 c 256,12,13
 98 -5 98 -5 86.5 5.5 c 128,-1,14
 75 16 75 16 75 35 c 2,15,-1
 75 457 l 2,16,17
 75 476 75 476 87 486.5 c 128,-1,18
 99 497 99 497 116 497 c 0,19,20
 132 497 132 497 143 486.5 c 128,-1,21
 154 476 154 476 154 458 c 2,22,-1
 154 402 l 1,23,24
 175 446 175 446 213.5 469 c 128,-1,25
 252 492 252 492 302 496 c 2,26,-1
 316 497 l 2,27,0
 358 500 358 500 358 463 c 0,1,2
EndSplineSet
EndChar

StartChar: s
Encoding: 85 115 87
Width: 480
GlyphClass: 2
Flags: W
AnchorPoint: "Anchor-11" 249 491 basechar 0
AnchorPoint: "Anchor-9" 239 0 basechar 0
LayerCount: 2
Fore
SplineSet
151.5 4 m 128,-1,1
 110 15 110 15 78 35 c 0,2,3
 60 47 60 47 52.5 57.5 c 128,-1,4
 45 68 45 68 45 83 c 0,5,6
 45 96 45 96 52.5 104.5 c 128,-1,7
 60 113 60 113 72 113 c 256,8,9
 84 113 84 113 107 98 c 0,10,11
 137 80 137 80 166.5 69.5 c 128,-1,12
 196 59 196 59 240 59 c 0,13,14
 294 59 294 59 324 78 c 128,-1,15
 354 97 354 97 354 133 c 0,16,17
 354 155 354 155 343 168.5 c 128,-1,18
 332 182 332 182 305 192.5 c 128,-1,19
 278 203 278 203 226 214 c 0,20,21
 138 233 138 233 100 265 c 128,-1,22
 62 297 62 297 62 352 c 0,23,24
 62 395 62 395 86 428 c 128,-1,25
 110 461 110 461 152.5 480 c 128,-1,26
 195 499 195 499 249 499 c 0,27,28
 288 499 288 499 324.5 488.5 c 128,-1,29
 361 478 361 478 389 459 c 0,30,31
 423 435 423 435 423 409 c 0,32,33
 423 396 423 396 415 387 c 128,-1,34
 407 378 407 378 396 378 c 0,35,36
 384 378 384 378 360 395 c 0,37,38
 332 413 332 413 307 423 c 128,-1,39
 282 433 282 433 245 433 c 0,40,41
 198 433 198 433 169.5 412 c 128,-1,42
 141 391 141 391 141 356 c 0,43,44
 141 334 141 334 151.5 320.5 c 128,-1,45
 162 307 162 307 186.5 296.5 c 128,-1,46
 211 286 211 286 257 276 c 0,47,48
 325 261 325 261 362.5 243 c 128,-1,49
 400 225 400 225 416 199 c 128,-1,50
 432 173 432 173 432 133 c 0,51,52
 432 70 432 70 379 31.5 c 128,-1,53
 326 -7 326 -7 239 -7 c 0,54,0
 193 -7 193 -7 151.5 4 c 128,-1,1
EndSplineSet
EndChar

StartChar: t
Encoding: 86 116 88
Width: 340
GlyphClass: 2
Flags: W
AnchorPoint: "Anchor-13" 238 705 basechar 0
AnchorPoint: "Anchor-12" 164 246 basechar 0
AnchorPoint: "Anchor-11" 143 635 basechar 0
AnchorPoint: "Anchor-9" 219 0 basechar 0
LayerCount: 2
Fore
SplineSet
335 27 m 0,1,2
 335 10 335 10 322.5 1.5 c 128,-1,3
 310 -7 310 -7 285 -5 c 2,4,-1
 258 -3 l 2,5,6
 178 3 178 3 140 45 c 128,-1,7
 102 87 102 87 102 172 c 2,8,-1
 102 423 l 1,9,-1
 35 423 l 2,10,11
 18 423 18 423 8.5 431.5 c 128,-1,12
 -1 440 -1 440 -1 454 c 0,13,14
 -1 469 -1 469 8.5 478 c 128,-1,15
 18 487 18 487 35 487 c 2,16,-1
 102 487 l 1,17,-1
 102 600 l 2,18,19
 102 619 102 619 113 629.5 c 128,-1,20
 124 640 124 640 143 640 c 0,21,22
 161 640 161 640 172 629.5 c 128,-1,23
 183 619 183 619 183 600 c 2,24,-1
 183 487 l 1,25,-1
 294 487 l 2,26,27
 310 487 310 487 319.5 478 c 128,-1,28
 329 469 329 469 329 454 c 0,29,30
 329 440 329 440 319.5 431.5 c 128,-1,31
 310 423 310 423 294 423 c 2,32,-1
 183 423 l 1,33,-1
 183 168 l 2,34,35
 183 113 183 113 205.5 88.5 c 128,-1,36
 228 64 228 64 273 61 c 2,37,-1
 300 59 l 2,38,0
 335 56 335 56 335 27 c 0,1,2
EndSplineSet
EndChar

StartChar: u
Encoding: 87 117 89
Width: 561
GlyphClass: 2
Flags: W
AnchorPoint: "Anchor-13" 433 491 basechar 0
AnchorPoint: "Anchor-11" 280 491 basechar 0
AnchorPoint: "Anchor-10" 476 10 basechar 0
AnchorPoint: "Anchor-9" 280 0 basechar 0
LayerCount: 2
Fore
SplineSet
474.5 486 m 128,-1,1
 485 475 485 475 485 457 c 2,2,-1
 485 34 l 2,3,4
 485 17 485 17 474.5 6 c 128,-1,5
 464 -5 464 -5 445 -5 c 0,6,7
 427 -5 427 -5 416.5 5.5 c 128,-1,8
 406 16 406 16 406 33 c 2,9,-1
 406 83 l 1,10,11
 383 39 383 39 341.5 16 c 128,-1,12
 300 -7 300 -7 248 -7 c 0,13,14
 161 -7 161 -7 117 41.5 c 128,-1,15
 73 90 73 90 73 185 c 2,16,-1
 73 457 l 2,17,18
 73 475 73 475 84 486 c 128,-1,19
 95 497 95 497 114 497 c 256,20,21
 133 497 133 497 143.5 486 c 128,-1,22
 154 475 154 475 154 457 c 2,23,-1
 154 187 l 2,24,25
 154 122 154 122 180 91.5 c 128,-1,26
 206 61 206 61 262 61 c 0,27,28
 326 61 326 61 365 102.5 c 128,-1,29
 404 144 404 144 404 212 c 2,30,-1
 404 457 l 2,31,32
 404 475 404 475 415 486 c 128,-1,33
 426 497 426 497 445 497 c 256,34,0
 464 497 464 497 474.5 486 c 128,-1,1
EndSplineSet
EndChar

StartChar: v
Encoding: 88 118 90
Width: 514
GlyphClass: 2
Flags: W
AnchorPoint: "Anchor-11" 258 491 basechar 0
AnchorPoint: "Anchor-9" 258 0 basechar 0
LayerCount: 2
Fore
SplineSet
461 496 m 0,1,2
 476 496 476 496 488 486 c 128,-1,3
 500 476 500 476 500 461 c 0,4,5
 500 452 500 452 496 445 c 2,6,-1
 301 25 l 2,7,8
 295 12 295 12 283 4.5 c 128,-1,9
 271 -3 271 -3 257 -3 c 0,10,11
 244 -3 244 -3 232 4.5 c 128,-1,12
 220 12 220 12 213 25 c 2,13,-1
 19 445 l 2,14,15
 15 452 15 452 15 460 c 0,16,17
 15 475 15 475 28.5 486 c 128,-1,18
 42 497 42 497 58 497 c 0,19,20
 68 497 68 497 77.5 491 c 128,-1,21
 87 485 87 485 92 474 c 2,22,-1
 259 99 l 1,23,-1
 426 472 l 2,24,0
 437 496 437 496 461 496 c 0,1,2
EndSplineSet
EndChar

StartChar: w
Encoding: 89 119 91
Width: 842
GlyphClass: 2
Flags: W
AnchorPoint: "Anchor-11" 421 491 basechar 0
AnchorPoint: "Anchor-9" 421 0 basechar 0
LayerCount: 2
Fore
SplineSet
774 495 m 0,1,2
 789 495 789 495 801 485 c 128,-1,3
 813 475 813 475 813 460 c 0,4,5
 813 453 813 453 810 445 c 2,6,-1
 644 25 l 2,7,8
 638 12 638 12 626.5 4.5 c 128,-1,9
 615 -3 615 -3 601 -3 c 0,10,11
 588 -3 588 -3 576.5 4.5 c 128,-1,12
 565 12 565 12 559 25 c 2,13,-1
 421 376 l 1,14,-1
 284 25 l 2,15,16
 279 12 279 12 267 4.5 c 128,-1,17
 255 -3 255 -3 241 -3 c 0,18,19
 228 -3 228 -3 216 4.5 c 128,-1,20
 204 12 204 12 198 25 c 2,21,-1
 32 444 l 2,22,23
 29 452 29 452 29 458 c 0,24,25
 29 474 29 474 42.5 485 c 128,-1,26
 56 496 56 496 72 496 c 0,27,28
 96 496 96 496 106 472 c 2,29,-1
 243 103 l 1,30,-1
 384 469 l 2,31,32
 390 482 390 482 400.5 489 c 128,-1,33
 411 496 411 496 423 496 c 0,34,35
 436 496 436 496 446.5 489 c 128,-1,36
 457 482 457 482 462 469 c 2,37,-1
 603 104 l 1,38,-1
 741 471 l 2,39,0
 751 495 751 495 774 495 c 0,1,2
EndSplineSet
EndChar

StartChar: x
Encoding: 90 120 92
Width: 518
GlyphClass: 2
Flags: W
AnchorPoint: "Anchor-11" 259 491 basechar 0
AnchorPoint: "Anchor-9" 259 0 basechar 0
LayerCount: 2
Fore
SplineSet
487 33 m 0,1,2
 487 18 487 18 476 7 c 128,-1,3
 465 -4 465 -4 450 -4 c 0,4,5
 434 -4 434 -4 421 10 c 2,6,-1
 259 195 l 1,7,-1
 98 10 l 2,8,9
 85 -4 85 -4 69 -4 c 0,10,11
 54 -4 54 -4 42.5 7 c 128,-1,12
 31 18 31 18 31 34 c 0,13,14
 31 49 31 49 43 62 c 2,15,-1
 209 249 l 1,16,-1
 50 430 l 2,17,18
 38 444 38 444 38 458 c 0,19,20
 38 474 38 474 49.5 485 c 128,-1,21
 61 496 61 496 75 496 c 0,22,23
 91 496 91 496 104 482 c 2,24,-1
 259 304 l 1,25,-1
 414 482 l 2,26,27
 427 496 427 496 443 496 c 0,28,29
 458 496 458 496 469 485 c 128,-1,30
 480 474 480 474 480 459 c 0,31,32
 480 442 480 442 468 430 c 2,33,-1
 309 249 l 1,34,-1
 475 62 l 2,35,0
 487 50 487 50 487 33 c 0,1,2
EndSplineSet
EndChar

StartChar: y
Encoding: 91 121 93
Width: 514
GlyphClass: 2
Flags: W
AnchorPoint: "Anchor-11" 258 491 basechar 0
AnchorPoint: "Anchor-9" 390 0 basechar 0
LayerCount: 2
Fore
SplineSet
461 496 m 0,1,2
 476 496 476 496 488 486 c 128,-1,3
 500 476 500 476 500 461 c 0,4,5
 500 452 500 452 496 445 c 2,6,-1
 215 -161 l 2,7,8
 210 -172 210 -172 200.5 -178 c 128,-1,9
 191 -184 191 -184 181 -184 c 0,10,11
 166 -184 166 -184 154.5 -174.5 c 128,-1,12
 143 -165 143 -165 143 -150 c 0,13,14
 143 -142 143 -142 147 -134 c 2,15,-1
 217 17 l 1,16,-1
 19 445 l 2,17,18
 15 452 15 452 15 460 c 0,19,20
 15 475 15 475 28.5 486 c 128,-1,21
 42 497 42 497 58 497 c 0,22,23
 68 497 68 497 77.5 491 c 128,-1,24
 87 485 87 485 92 474 c 2,25,-1
 259 99 l 1,26,-1
 426 472 l 2,27,0
 437 496 437 496 461 496 c 0,1,2
EndSplineSet
EndChar

StartChar: z
Encoding: 92 122 94
Width: 503
GlyphClass: 2
Flags: W
AnchorPoint: "Anchor-11" 256 491 basechar 0
AnchorPoint: "Anchor-9" 250 0 basechar 0
LayerCount: 2
Fore
SplineSet
459 55.5 m 128,-1,1
 468 47 468 47 468 32 c 256,2,3
 468 17 468 17 459 8.5 c 128,-1,4
 450 0 450 0 433 0 c 2,5,-1
 83 0 l 2,6,7
 66 0 66 0 55 10.5 c 128,-1,8
 44 21 44 21 44 36 c 0,9,10
 44 52 44 52 56 67 c 2,11,-1
 352 423 l 1,12,-1
 78 423 l 2,13,14
 61 423 61 423 51.5 431.5 c 128,-1,15
 42 440 42 440 42 454 c 0,16,17
 42 469 42 469 51.5 478 c 128,-1,18
 61 487 61 487 78 487 c 2,19,-1
 417 487 l 2,20,21
 435 487 435 487 446 476.5 c 128,-1,22
 457 466 457 466 457 451 c 0,23,24
 457 435 457 435 445 420 c 2,25,-1
 148 64 l 1,26,-1
 433 64 l 2,27,0
 450 64 450 64 459 55.5 c 128,-1,1
EndSplineSet
EndChar

StartChar: braceleft
Encoding: 93 123 95
Width: 351
GlyphClass: 2
Flags: W
LayerCount: 2
Fore
SplineSet
341.5 -124.5 m 128,-1,1
 351 -133 351 -133 351 -148 c 0,2,3
 351 -164 351 -164 341.5 -172 c 128,-1,4
 332 -180 332 -180 316 -180 c 2,5,-1
 247 -180 l 2,6,7
 198 -180 198 -180 172 -153.5 c 128,-1,8
 146 -127 146 -127 146 -78 c 2,9,-1
 146 149 l 2,10,11
 146 190 146 190 130.5 209 c 128,-1,12
 115 228 115 228 76 230 c 0,13,14
 59 231 59 231 50 240 c 128,-1,15
 41 249 41 249 41 263 c 256,16,17
 41 277 41 277 50 286 c 128,-1,18
 59 295 59 295 76 296 c 0,19,20
 115 298 115 298 130.5 316.5 c 128,-1,21
 146 335 146 335 146 376 c 2,22,-1
 146 603 l 2,23,24
 146 652 146 652 172 678.5 c 128,-1,25
 198 705 198 705 247 705 c 2,26,-1
 316 705 l 2,27,28
 332 705 332 705 341.5 697 c 128,-1,29
 351 689 351 689 351 673 c 0,30,31
 351 658 351 658 341.5 649.5 c 128,-1,32
 332 641 332 641 316 641 c 2,33,-1
 269 641 l 2,34,35
 226 641 226 641 226 596 c 2,36,-1
 226 368 l 2,37,38
 226 324 226 324 204.5 297 c 128,-1,39
 183 270 183 270 153 263 c 1,40,41
 183 256 183 256 204.5 229 c 128,-1,42
 226 202 226 202 226 158 c 2,43,-1
 226 -71 l 2,44,45
 226 -116 226 -116 269 -116 c 2,46,-1
 316 -116 l 2,47,0
 332 -116 332 -116 341.5 -124.5 c 128,-1,1
EndSplineSet
EndChar

StartChar: bar
Encoding: 94 124 96
Width: 261
GlyphClass: 2
Flags: W
LayerCount: 2
Fore
SplineSet
103 -173.5 m 128,-1,1
 92 -162 92 -162 92 -145 c 2,2,-1
 92 670 l 2,3,4
 92 687 92 687 103 698.5 c 128,-1,5
 114 710 114 710 131 710 c 0,6,7
 147 710 147 710 158 698.5 c 128,-1,8
 169 687 169 687 169 670 c 2,9,-1
 169 -145 l 2,10,11
 169 -162 169 -162 158 -173.5 c 128,-1,12
 147 -185 147 -185 131 -185 c 0,13,0
 114 -185 114 -185 103 -173.5 c 128,-1,1
EndSplineSet
EndChar

StartChar: braceright
Encoding: 95 125 97
Width: 351
GlyphClass: 2
Flags: W
LayerCount: 2
Fore
SplineSet
301 286 m 128,-1,1
 310 277 310 277 310 263 c 256,2,3
 310 249 310 249 301 240 c 128,-1,4
 292 231 292 231 275 230 c 0,5,6
 236 228 236 228 221 209.5 c 128,-1,7
 206 191 206 191 206 149 c 2,8,-1
 205 -78 l 2,9,10
 205 -127 205 -127 179 -153.5 c 128,-1,11
 153 -180 153 -180 104 -180 c 2,12,-1
 35 -180 l 2,13,14
 19 -180 19 -180 9.5 -172 c 128,-1,15
 0 -164 0 -164 0 -148 c 0,16,17
 0 -133 0 -133 9.5 -124.5 c 128,-1,18
 19 -116 19 -116 35 -116 c 2,19,-1
 81 -116 l 2,20,21
 125 -116 125 -116 125 -71 c 2,22,-1
 125 158 l 2,23,24
 125 202 125 202 146.5 229 c 128,-1,25
 168 256 168 256 198 263 c 1,26,27
 168 270 168 270 146.5 297 c 128,-1,28
 125 324 125 324 125 368 c 2,29,-1
 125 596 l 2,30,31
 125 641 125 641 81 641 c 2,32,-1
 35 641 l 2,33,34
 19 641 19 641 9.5 649.5 c 128,-1,35
 0 658 0 658 0 673 c 0,36,37
 0 689 0 689 9.5 697 c 128,-1,38
 19 705 19 705 35 705 c 2,39,-1
 104 705 l 2,40,41
 153 705 153 705 179 678.5 c 128,-1,42
 205 652 205 652 205 603 c 2,43,-1
 205 376 l 2,44,45
 205 335 205 335 220.5 316.5 c 128,-1,46
 236 298 236 298 275 296 c 0,47,0
 292 295 292 295 301 286 c 128,-1,1
EndSplineSet
EndChar

StartChar: asciitilde
Encoding: 96 126 98
Width: 600
GlyphClass: 2
Flags: W
LayerCount: 2
Fore
SplineSet
353 227 m 128,-1,1
 323 239 323 239 281 261 c 0,2,3
 250 278 250 278 229 286.5 c 128,-1,4
 208 295 208 295 190 295 c 0,5,6
 148 295 148 295 121 256 c 0,7,8
 107 239 107 239 92 239 c 0,9,10
 85 239 85 239 78 243 c 0,11,12
 64 252 64 252 64 267 c 0,13,14
 64 274 64 274 69 284 c 0,15,16
 89 318 89 318 118.5 336 c 128,-1,17
 148 354 148 354 185 354 c 0,18,19
 217 354 217 354 246 342.5 c 128,-1,20
 275 331 275 331 319 309 c 0,21,22
 350 292 350 292 371 283.5 c 128,-1,23
 392 275 392 275 410 275 c 0,24,25
 453 275 453 275 479 313 c 0,26,27
 493 330 493 330 507 330 c 0,28,29
 515 330 515 330 522 326 c 0,30,31
 535 320 535 320 535 303 c 0,32,33
 535 293 535 293 530 285 c 0,34,35
 489 215 489 215 415 215 c 0,36,0
 383 215 383 215 353 227 c 128,-1,1
EndSplineSet
EndChar

StartChar: exclamdown
Encoding: 98 161 100
Width: 229
GlyphClass: 2
Flags: W
LayerCount: 2
Fore
SplineSet
75 400 m 128,-1,1
 59 416 59 416 59 440 c 0,2,3
 59 465 59 465 75 481 c 128,-1,4
 91 497 91 497 114 497 c 0,5,6
 138 497 138 497 153.5 481 c 128,-1,7
 169 465 169 465 169 440 c 256,8,9
 169 415 169 415 153.5 399.5 c 128,-1,10
 138 384 138 384 114 384 c 0,11,0
 91 384 91 384 75 400 c 128,-1,1
79 -171.5 m 128,-1,13
 65 -158 65 -158 67 -135 c 2,14,-1
 90 285 l 2,15,16
 91 298 91 298 98 305 c 128,-1,17
 105 312 105 312 115 312 c 256,18,19
 125 312 125 312 132 304.5 c 128,-1,20
 139 297 139 297 140 285 c 2,21,-1
 162 -135 l 2,22,23
 164 -158 164 -158 150.5 -171.5 c 128,-1,24
 137 -185 137 -185 115 -185 c 256,25,12
 93 -185 93 -185 79 -171.5 c 128,-1,13
EndSplineSet
EndChar

StartChar: cent
Encoding: 99 162 101
Width: 600
GlyphClass: 2
Flags: W
LayerCount: 2
Fore
SplineSet
494.5 105 m 128,-1,1
 502 96 502 96 502 82 c 0,2,3
 502 69 502 69 495 59 c 128,-1,4
 488 49 488 49 469 35 c 0,5,6
 446 19 446 19 415 8.5 c 128,-1,7
 384 -2 384 -2 351 -5 c 1,8,-1
 351 -83 l 2,9,10
 351 -100 351 -100 341.5 -110 c 128,-1,11
 332 -120 332 -120 316 -120 c 256,12,13
 300 -120 300 -120 290.5 -110 c 128,-1,14
 281 -100 281 -100 281 -83 c 2,15,-1
 281 -4 l 1,16,17
 194 10 194 10 142.5 76.5 c 128,-1,18
 91 143 91 143 91 244 c 256,19,20
 91 345 91 345 142.5 412.5 c 128,-1,21
 194 480 194 480 281 495 c 1,22,-1
 281 574 l 2,23,24
 281 591 281 591 290.5 601 c 128,-1,25
 300 611 300 611 316 611 c 256,26,27
 332 611 332 611 341.5 601 c 128,-1,28
 351 591 351 591 351 574 c 2,29,-1
 351 498 l 1,30,31
 421 491 421 491 467 458 c 0,32,33
 485 446 485 446 492.5 434.5 c 128,-1,34
 500 423 500 423 500 409 c 256,35,36
 500 395 500 395 492.5 386 c 128,-1,37
 485 377 485 377 473 377 c 0,38,39
 466 377 466 377 458 381 c 128,-1,40
 450 385 450 385 444.5 389 c 128,-1,41
 439 393 439 393 437 394 c 0,42,43
 411 411 411 411 387.5 421 c 128,-1,44
 364 431 364 431 330 431 c 0,45,46
 257 431 257 431 216.5 381.5 c 128,-1,47
 176 332 176 332 176 244 c 256,48,49
 176 156 176 156 216.5 108 c 128,-1,50
 257 60 257 60 330 60 c 0,51,52
 364 60 364 60 388.5 70 c 128,-1,53
 413 80 413 80 438 97 c 0,54,55
 449 104 449 104 459 109 c 128,-1,56
 469 114 469 114 476 114 c 0,57,0
 487 114 487 114 494.5 105 c 128,-1,1
EndSplineSet
EndChar

StartChar: sterling
Encoding: 100 163 102
Width: 600
GlyphClass: 2
Flags: W
LayerCount: 2
Fore
SplineSet
558 60 m 128,-1,1
 568 51 568 51 568 35 c 0,2,3
 568 18 568 18 558 9 c 128,-1,4
 548 0 548 0 530 0 c 2,5,-1
 78 0 l 2,6,7
 60 0 60 0 50 9 c 128,-1,8
 40 18 40 18 40 35 c 0,9,10
 40 51 40 51 50 60 c 128,-1,11
 60 69 60 69 78 69 c 2,12,-1
 146 69 l 1,13,-1
 146 324 l 1,14,-1
 70 324 l 2,15,16
 57 324 57 324 48.5 332 c 128,-1,17
 40 340 40 340 40 353 c 256,18,19
 40 366 40 366 48.5 374 c 128,-1,20
 57 382 57 382 70 382 c 2,21,-1
 146 382 l 1,22,-1
 146 521 l 2,23,24
 146 609 146 609 197.5 661 c 128,-1,25
 249 713 249 713 340 713 c 0,26,27
 400 713 400 713 455 691 c 128,-1,28
 510 669 510 669 552 630 c 0,29,30
 568 615 568 615 568 595 c 0,31,32
 568 581 568 581 560 570.5 c 128,-1,33
 552 560 552 560 541 560 c 0,34,35
 529 560 529 560 513 571 c 0,36,37
 464 611 464 611 424.5 627.5 c 128,-1,38
 385 644 385 644 342 644 c 0,39,40
 290 644 290 644 259 612.5 c 128,-1,41
 228 581 228 581 228 515 c 2,42,-1
 228 382 l 1,43,-1
 386 382 l 2,44,45
 399 382 399 382 407.5 374 c 128,-1,46
 416 366 416 366 416 353 c 256,47,48
 416 340 416 340 407.5 332 c 128,-1,49
 399 324 399 324 386 324 c 2,50,-1
 228 324 l 1,51,-1
 228 69 l 1,52,-1
 530 69 l 2,53,0
 548 69 548 69 558 60 c 128,-1,1
EndSplineSet
EndChar

StartChar: currency
Encoding: 101 164 103
Width: 600
GlyphClass: 2
Flags: W
LayerCount: 2
Fore
SplineSet
93 42 m 128,-1,1
 86 50 86 50 86 61 c 0,2,3
 86 70 86 70 94 78 c 2,4,-1
 136 119 l 1,5,6
 91 173 91 173 91 250 c 0,7,8
 91 323 91 323 134 378 c 1,9,-1
 96 418 l 2,10,11
 86 427 86 427 86 439 c 0,12,13
 86 449 86 449 93.5 456 c 128,-1,14
 101 463 101 463 112 463 c 0,15,16
 121 463 121 463 131 453 c 2,17,-1
 170 414 l 1,18,19
 223 454 223 454 300 454 c 256,20,21
 377 454 377 454 431 414 c 1,22,-1
 470 453 l 2,23,24
 480 463 480 463 490 463 c 256,25,26
 500 463 500 463 507.5 455.5 c 128,-1,27
 515 448 515 448 515 438 c 0,28,29
 515 427 515 427 506 418 c 2,30,-1
 466 378 l 1,31,32
 487 351 487 351 498.5 318 c 128,-1,33
 510 285 510 285 510 250 c 0,34,35
 510 176 510 176 465 119 c 1,36,-1
 505 81 l 2,37,38
 515 70 515 70 515 58 c 0,39,40
 514 47 514 47 505.5 40.5 c 128,-1,41
 497 34 497 34 487 34 c 0,42,43
 478 34 478 34 470 44 c 2,44,-1
 429 84 l 1,45,46
 379 46 379 46 300 46 c 0,47,48
 226 46 226 46 171 83 c 1,49,-1
 132 45 l 2,50,51
 121 34 121 34 110 34 c 0,52,0
 100 34 100 34 93 42 c 128,-1,1
380.5 118.5 m 128,-1,54
 414 140 414 140 431.5 175 c 128,-1,55
 449 210 449 210 449 250 c 0,56,57
 449 289 449 289 432 324.5 c 128,-1,58
 415 360 415 360 381 382 c 128,-1,59
 347 404 347 404 300 404 c 256,60,61
 253 404 253 404 219.5 382 c 128,-1,62
 186 360 186 360 168.5 324.5 c 128,-1,63
 151 289 151 289 151 250 c 0,64,65
 151 210 151 210 168.5 175 c 128,-1,66
 186 140 186 140 219.5 118.5 c 128,-1,67
 253 97 253 97 300 97 c 256,68,53
 347 97 347 97 380.5 118.5 c 128,-1,54
EndSplineSet
EndChar

StartChar: yen
Encoding: 102 165 104
Width: 600
GlyphClass: 2
Flags: W
LayerCount: 2
Fore
SplineSet
550 709 m 0,1,2
 565 709 565 709 576 698 c 128,-1,3
 587 687 587 687 587 671 c 0,4,5
 587 657 587 657 577 646 c 2,6,-1
 371 385 l 1,7,-1
 505 385 l 2,8,9
 518 385 518 385 526.5 377 c 128,-1,10
 535 369 535 369 535 356 c 256,11,12
 535 343 535 343 527 334.5 c 128,-1,13
 519 326 519 326 505 326 c 2,14,-1
 341 326 l 1,15,-1
 341 234 l 1,16,-1
 505 234 l 2,17,18
 519 234 519 234 527 226 c 128,-1,19
 535 218 535 218 535 204 c 0,20,21
 535 191 535 191 526.5 183 c 128,-1,22
 518 175 518 175 505 175 c 2,23,-1
 341 175 l 1,24,-1
 341 37 l 2,25,26
 341 17 341 17 329.5 6 c 128,-1,27
 318 -5 318 -5 300 -5 c 256,28,29
 282 -5 282 -5 270.5 6 c 128,-1,30
 259 17 259 17 259 37 c 2,31,-1
 259 175 l 1,32,-1
 95 175 l 2,33,34
 82 175 82 175 73.5 183 c 128,-1,35
 65 191 65 191 65 204 c 0,36,37
 65 218 65 218 73.5 226 c 128,-1,38
 82 234 82 234 95 234 c 2,39,-1
 259 234 l 1,40,-1
 259 326 l 1,41,-1
 95 326 l 2,42,43
 82 326 82 326 73.5 334.5 c 128,-1,44
 65 343 65 343 65 356 c 256,45,46
 65 369 65 369 73.5 377 c 128,-1,47
 82 385 82 385 95 385 c 2,48,-1
 229 385 l 1,49,-1
 23 647 l 2,50,51
 13 658 13 658 13 673 c 256,52,53
 13 688 13 688 24.5 699 c 128,-1,54
 36 710 36 710 51 710 c 0,55,56
 68 710 68 710 79 695 c 2,57,-1
 300 412 l 1,58,-1
 521 694 l 2,59,0
 533 709 533 709 550 709 c 0,1,2
EndSplineSet
EndChar

StartChar: brokenbar
Encoding: 103 166 105
Width: 261
GlyphClass: 2
Flags: W
LayerCount: 2
Fore
SplineSet
103 377.5 m 128,-1,1
 92 389 92 389 92 406 c 2,2,-1
 92 670 l 2,3,4
 92 687 92 687 103 698.5 c 128,-1,5
 114 710 114 710 131 710 c 0,6,7
 147 710 147 710 158 698.5 c 128,-1,8
 169 687 169 687 169 670 c 2,9,-1
 169 406 l 2,10,11
 169 389 169 389 158 377.5 c 128,-1,12
 147 366 147 366 131 366 c 0,13,0
 114 366 114 366 103 377.5 c 128,-1,1
103 -173.5 m 128,-1,15
 92 -162 92 -162 92 -145 c 2,16,-1
 92 119 l 2,17,18
 92 136 92 136 103 147.5 c 128,-1,19
 114 159 114 159 131 159 c 0,20,21
 147 159 147 159 158 147.5 c 128,-1,22
 169 136 169 136 169 119 c 2,23,-1
 169 -145 l 2,24,25
 169 -162 169 -162 158 -173.5 c 128,-1,26
 147 -185 147 -185 131 -185 c 0,27,14
 114 -185 114 -185 103 -173.5 c 128,-1,15
EndSplineSet
EndChar

StartChar: section
Encoding: 104 167 106
Width: 537
GlyphClass: 2
Flags: W
LayerCount: 2
Fore
SplineSet
480.5 125 m 128,-1,1
 465 92 465 92 438 67 c 1,2,3
 456 35 456 35 456 -12 c 0,4,5
 456 -92 456 -92 403.5 -139.5 c 128,-1,6
 351 -187 351 -187 260 -187 c 0,7,8
 159 -187 159 -187 94 -144 c 0,9,10
 76 -132 76 -132 68.5 -121.5 c 128,-1,11
 61 -111 61 -111 61 -97 c 0,12,13
 61 -84 61 -84 69 -75 c 128,-1,14
 77 -66 77 -66 88 -66 c 0,15,16
 100 -66 100 -66 123 -81 c 0,17,18
 155 -99 155 -99 185.5 -110 c 128,-1,19
 216 -121 216 -121 262 -121 c 0,20,21
 317 -121 317 -121 346.5 -93.5 c 128,-1,22
 376 -66 376 -66 376 -16 c 0,23,24
 376 24 376 24 355.5 51 c 128,-1,25
 335 78 335 78 286 103 c 2,26,-1
 190 150 l 2,27,28
 109 189 109 189 75 231 c 128,-1,29
 41 273 41 273 41 332 c 0,30,31
 41 368 41 368 56.5 402 c 128,-1,32
 72 436 72 436 98 460 c 1,33,34
 81 491 81 491 81 537 c 0,35,36
 81 617 81 617 134.5 664.5 c 128,-1,37
 188 712 188 712 278 712 c 0,38,39
 367 712 367 712 423 672 c 0,40,41
 457 649 457 649 457 623 c 0,42,43
 457 610 457 610 449 600.5 c 128,-1,44
 441 591 441 591 430 591 c 0,45,46
 418 591 418 591 394 608 c 0,47,48
 366 626 366 626 341 636 c 128,-1,49
 316 646 316 646 278 646 c 0,50,51
 222 646 222 646 191.5 619 c 128,-1,52
 161 592 161 592 161 541 c 0,53,54
 161 501 161 501 181.5 474.5 c 128,-1,55
 202 448 202 448 251 423 c 2,56,-1
 347 375 l 2,57,58
 427 335 427 335 461.5 293 c 128,-1,59
 496 251 496 251 496 193 c 0,60,0
 496 158 496 158 480.5 125 c 128,-1,1
398 117 m 1,62,63
 419 147 419 147 419 186 c 0,64,65
 419 221 419 221 395 248.5 c 128,-1,66
 371 276 371 276 314 306 c 2,67,-1
 221 355 l 2,68,69
 168 383 168 383 139 408 c 1,70,71
 117 377 117 377 117 339 c 0,72,73
 117 304 117 304 141 277 c 128,-1,74
 165 250 165 250 223 219 c 2,75,-1
 316 171 l 2,76,61
 366 145 366 145 398 117 c 1,62,63
EndSplineSet
EndChar

StartChar: copyright
Encoding: 106 169 108
Width: 815
GlyphClass: 2
Flags: W
LayerCount: 2
Fore
SplineSet
226 42.5 m 128,-1,1
 144 90 144 90 97 171.5 c 128,-1,2
 50 253 50 253 50 353 c 256,3,4
 50 453 50 453 97 534.5 c 128,-1,5
 144 616 144 616 226 663 c 128,-1,6
 308 710 308 710 408 710 c 256,7,8
 508 710 508 710 589.5 663 c 128,-1,9
 671 616 671 616 718 534.5 c 128,-1,10
 765 453 765 453 765 353 c 256,11,12
 765 253 765 253 718 171.5 c 128,-1,13
 671 90 671 90 589 42.5 c 128,-1,14
 507 -5 507 -5 408 -5 c 0,15,0
 308 -5 308 -5 226 42.5 c 128,-1,1
566 81 m 128,-1,17
 637 122 637 122 677.5 194 c 128,-1,18
 718 266 718 266 718 353 c 256,19,20
 718 440 718 440 677.5 511.5 c 128,-1,21
 637 583 637 583 566 624 c 128,-1,22
 495 665 495 665 408 665 c 0,23,24
 320 665 320 665 249 624 c 128,-1,25
 178 583 178 583 137.5 511.5 c 128,-1,26
 97 440 97 440 97 353 c 256,27,28
 97 266 97 266 137.5 194 c 128,-1,29
 178 122 178 122 249 81 c 128,-1,30
 320 40 320 40 408 40 c 0,31,16
 495 40 495 40 566 81 c 128,-1,17
268 195 m 128,-1,33
 213 253 213 253 213 353 c 0,34,35
 213 452 213 452 268 510 c 128,-1,36
 323 568 323 568 415 568 c 0,37,38
 491 568 491 568 549 523 c 0,39,40
 563 513 563 513 563 495 c 0,41,42
 563 483 563 483 556.5 473.5 c 128,-1,43
 550 464 550 464 538 464 c 0,44,45
 529 464 529 464 515 472 c 0,46,47
 486 490 486 490 466 498.5 c 128,-1,48
 446 507 446 507 418 507 c 0,49,50
 356 507 356 507 323.5 467.5 c 128,-1,51
 291 428 291 428 291 353 c 0,52,53
 291 277 291 277 323.5 237.5 c 128,-1,54
 356 198 356 198 418 198 c 0,55,56
 446 198 446 198 466 206.5 c 128,-1,57
 486 215 486 215 515 233 c 0,58,59
 529 241 529 241 538 241 c 0,60,61
 550 241 550 241 556.5 231.5 c 128,-1,62
 563 222 563 222 563 210 c 0,63,64
 563 193 563 193 549 182 c 0,65,66
 498 137 498 137 415 137 c 0,67,32
 323 137 323 137 268 195 c 128,-1,33
EndSplineSet
EndChar

StartChar: ordfeminine
Encoding: 107 170 109
Width: 330
GlyphClass: 2
Flags: W
LayerCount: 2
Fore
SplineSet
257.5 681 m 128,-1,1
 288 652 288 652 288 588 c 2,2,-1
 288 442 l 2,3,4
 288 425 288 425 278.5 416 c 128,-1,5
 269 407 269 407 254 407 c 0,6,7
 240 407 240 407 230 416 c 128,-1,8
 220 425 220 425 220 442 c 2,9,-1
 220 458 l 1,10,11
 208 434 208 434 185 420.5 c 128,-1,12
 162 407 162 407 133 407 c 0,13,14
 88 407 88 407 59 433.5 c 128,-1,15
 30 460 30 460 30 496 c 0,16,17
 30 528 30 528 46.5 546.5 c 128,-1,18
 63 565 63 565 100 573.5 c 128,-1,19
 137 582 137 582 203 582 c 2,20,-1
 219 582 l 1,21,-1
 219 599 l 2,22,23
 219 630 219 630 205.5 643 c 128,-1,24
 192 656 192 656 164 656 c 0,25,26
 128 656 128 656 86 636 c 0,27,28
 70 627 70 627 63 627 c 0,29,30
 52 627 52 627 45.5 635.5 c 128,-1,31
 39 644 39 644 39 654 c 0,32,33
 39 673 39 673 62 685 c 0,34,35
 82 696 82 696 111 703 c 128,-1,36
 140 710 140 710 168 710 c 0,37,0
 227 710 227 710 257.5 681 c 128,-1,1
199 477.5 m 128,-1,39
 219 497 219 497 219 530 c 2,40,-1
 219 544 l 1,41,-1
 209 544 l 2,42,43
 163 544 163 544 139 539.5 c 128,-1,44
 115 535 115 535 106.5 526 c 128,-1,45
 98 517 98 517 98 501 c 0,46,47
 98 483 98 483 112 470.5 c 128,-1,48
 126 458 126 458 149 458 c 0,49,38
 179 458 179 458 199 477.5 c 128,-1,39
EndSplineSet
EndChar

StartChar: logicalnot
Encoding: 109 172 111
Width: 600
GlyphClass: 2
Flags: W
LayerCount: 2
Fore
SplineSet
491 158.5 m 128,-1,1
 483 168 483 168 483 182 c 2,2,-1
 483 358 l 1,3,-1
 88 358 l 2,4,5
 75 358 75 358 65.5 367.5 c 128,-1,6
 56 377 56 377 56 390 c 256,7,8
 56 403 56 403 65 411 c 128,-1,9
 74 419 74 419 88 419 c 2,10,-1
 512 419 l 2,11,12
 526 419 526 419 535 410 c 128,-1,13
 544 401 544 401 544 387 c 2,14,-1
 544 182 l 2,15,16
 544 168 544 168 534.5 158.5 c 128,-1,17
 525 149 525 149 511 149 c 0,18,0
 499 149 499 149 491 158.5 c 128,-1,1
EndSplineSet
EndChar

StartChar: registered
Encoding: 111 174 113
Width: 815
GlyphClass: 2
Flags: W
LayerCount: 2
Fore
SplineSet
589.5 663 m 128,-1,1
 671 616 671 616 718 534.5 c 128,-1,2
 765 453 765 453 765 353 c 256,3,4
 765 253 765 253 718 171.5 c 128,-1,5
 671 90 671 90 589 42.5 c 128,-1,6
 507 -5 507 -5 408 -5 c 0,7,8
 308 -5 308 -5 226 42.5 c 128,-1,9
 144 90 144 90 97 171.5 c 128,-1,10
 50 253 50 253 50 353 c 256,11,12
 50 453 50 453 97 534.5 c 128,-1,13
 144 616 144 616 226 663 c 128,-1,14
 308 710 308 710 408 710 c 256,15,0
 508 710 508 710 589.5 663 c 128,-1,1
566 81 m 128,-1,17
 637 122 637 122 677.5 194 c 128,-1,18
 718 266 718 266 718 353 c 256,19,20
 718 440 718 440 677.5 511.5 c 128,-1,21
 637 583 637 583 566 624 c 128,-1,22
 495 665 495 665 408 665 c 0,23,24
 320 665 320 665 249 624 c 128,-1,25
 178 583 178 583 137.5 511.5 c 128,-1,26
 97 440 97 440 97 353 c 256,27,28
 97 266 97 266 137.5 194 c 128,-1,29
 178 122 178 122 249 81 c 128,-1,30
 320 40 320 40 408 40 c 0,31,16
 495 40 495 40 566 81 c 128,-1,17
585 186 m 2,32,33
 593 175 593 175 593 166 c 0,34,35
 593 153 593 153 582 144.5 c 128,-1,36
 571 136 571 136 557 136 c 0,37,38
 535 136 535 136 522 156 c 2,39,-1
 443 277 l 2,40,41
 431 296 431 296 417.5 303.5 c 128,-1,42
 404 311 404 311 381 311 c 2,43,-1
 332 311 l 1,44,-1
 332 174 l 2,45,46
 332 156 332 156 322 146.5 c 128,-1,47
 312 137 312 137 295 137 c 256,48,49
 278 137 278 137 268 146.5 c 128,-1,50
 258 156 258 156 258 174 c 2,51,-1
 258 527 l 2,52,53
 258 544 258 544 267.5 554 c 128,-1,54
 277 564 277 564 294 564 c 2,55,-1
 435 564 l 2,56,57
 504 564 504 564 542.5 531.5 c 128,-1,58
 581 499 581 499 581 439 c 0,59,60
 581 389 581 389 552.5 357.5 c 128,-1,61
 524 326 524 326 473 318 c 1,62,63
 490 314 490 314 503 303 c 128,-1,64
 516 292 516 292 530 273 c 2,65,-1
 585 186 l 2,32,33
487.5 385 m 128,-1,67
 508 401 508 401 508 437 c 0,68,69
 508 474 508 474 488 489.5 c 128,-1,70
 468 505 468 505 426 505 c 2,71,-1
 332 505 l 1,72,-1
 332 369 l 1,73,-1
 426 369 l 2,74,66
 467 369 467 369 487.5 385 c 128,-1,67
EndSplineSet
EndChar

StartChar: degree
Encoding: 113 176 115
Width: 365
GlyphClass: 2
Flags: W
LayerCount: 2
Fore
SplineSet
109 439 m 128,-1,1
 76 458 76 458 56.5 491 c 128,-1,2
 37 524 37 524 37 565 c 256,3,4
 37 606 37 606 56.5 639 c 128,-1,5
 76 672 76 672 109 691 c 128,-1,6
 142 710 142 710 183 710 c 0,7,8
 223 710 223 710 256 691 c 128,-1,9
 289 672 289 672 308.5 639 c 128,-1,10
 328 606 328 606 328 565 c 256,11,12
 328 524 328 524 308.5 491 c 128,-1,13
 289 458 289 458 256 439 c 128,-1,14
 223 420 223 420 183 420 c 0,15,0
 142 420 142 420 109 439 c 128,-1,1
246 499 m 128,-1,17
 271 525 271 525 271 565 c 256,18,19
 271 605 271 605 246 631 c 128,-1,20
 221 657 221 657 183 657 c 0,21,22
 144 657 144 657 119 631 c 128,-1,23
 94 605 94 605 94 565 c 256,24,25
 94 525 94 525 119 499 c 128,-1,26
 144 473 144 473 183 473 c 0,27,16
 221 473 221 473 246 499 c 128,-1,17
EndSplineSet
EndChar

StartChar: plusminus
Encoding: 114 177 116
Width: 600
GlyphClass: 2
Flags: W
LayerCount: 2
Fore
SplineSet
65.5 304.5 m 128,-1,1
 56 314 56 314 56 327 c 256,2,3
 56 340 56 340 65 348.5 c 128,-1,4
 74 357 74 357 88 357 c 2,5,-1
 269 357 l 1,6,-1
 269 496 l 2,7,8
 269 510 269 510 278 519.5 c 128,-1,9
 287 529 287 529 301 529 c 0,10,11
 314 529 314 529 322.5 519.5 c 128,-1,12
 331 510 331 510 331 496 c 2,13,-1
 331 357 l 1,14,-1
 512 357 l 2,15,16
 526 357 526 357 535 348 c 128,-1,17
 544 339 544 339 544 325 c 0,18,19
 544 312 544 312 535 303.5 c 128,-1,20
 526 295 526 295 512 295 c 2,21,-1
 331 295 l 1,22,-1
 331 157 l 2,23,24
 331 143 331 143 321.5 133 c 128,-1,25
 312 123 312 123 299 123 c 256,26,27
 286 123 286 123 277.5 132.5 c 128,-1,28
 269 142 269 142 269 156 c 2,29,-1
 269 295 l 1,30,-1
 88 295 l 2,31,0
 75 295 75 295 65.5 304.5 c 128,-1,1
540.5 53.5 m 128,-1,33
 550 44 550 44 550 30 c 0,34,35
 550 17 550 17 541 8.5 c 128,-1,36
 532 0 532 0 518 0 c 2,37,-1
 94 0 l 2,38,39
 81 0 81 0 71.5 9.5 c 128,-1,40
 62 19 62 19 62 32 c 256,41,42
 62 45 62 45 71.5 54 c 128,-1,43
 81 63 81 63 94 63 c 2,44,-1
 518 63 l 2,45,32
 531 63 531 63 540.5 53.5 c 128,-1,33
EndSplineSet
EndChar

StartChar: uni00B5
Encoding: 118 181 120
Width: 561
GlyphClass: 2
Flags: W
LayerCount: 2
Fore
SplineSet
474 486.5 m 128,-1,1
 485 476 485 476 485 457 c 2,2,-1
 485 34 l 2,3,4
 485 16 485 16 474 5.5 c 128,-1,5
 463 -5 463 -5 445 -5 c 256,6,7
 427 -5 427 -5 416.5 5 c 128,-1,8
 406 15 406 15 406 33 c 2,9,-1
 406 83 l 1,10,11
 383 39 383 39 341.5 16 c 128,-1,12
 300 -7 300 -7 248 -7 c 0,13,14
 192 -7 192 -7 154 18 c 1,15,-1
 154 -146 l 2,16,17
 154 -164 154 -164 143 -174.5 c 128,-1,18
 132 -185 132 -185 113 -185 c 0,19,20
 95 -185 95 -185 84 -174.5 c 128,-1,21
 73 -164 73 -164 73 -146 c 2,22,-1
 73 457 l 2,23,24
 73 476 73 476 84 486.5 c 128,-1,25
 95 497 95 497 114 497 c 0,26,27
 132 497 132 497 143 486.5 c 128,-1,28
 154 476 154 476 154 457 c 2,29,-1
 154 187 l 2,30,31
 154 120 154 120 181.5 90.5 c 128,-1,32
 209 61 209 61 262 61 c 0,33,34
 324 61 324 61 364 101 c 128,-1,35
 404 141 404 141 404 212 c 2,36,-1
 404 457 l 2,37,38
 404 475 404 475 415.5 486 c 128,-1,39
 427 497 427 497 445 497 c 256,40,0
 463 497 463 497 474 486.5 c 128,-1,1
EndSplineSet
EndChar

StartChar: paragraph
Encoding: 119 182 121
Width: 582
GlyphClass: 2
Flags: W
LayerCount: 2
Fore
SplineSet
253 -175 m 128,-1,1
 243 -165 243 -165 243 -151 c 2,2,-1
 243 310 l 1,3,4
 184 310 184 310 139 335 c 128,-1,5
 94 360 94 360 69.5 405 c 128,-1,6
 45 450 45 450 45 508 c 0,7,8
 45 565 45 565 69.5 610 c 128,-1,9
 94 655 94 655 139.5 680 c 128,-1,10
 185 705 185 705 245 705 c 2,11,-1
 461 705 l 2,12,13
 476 705 476 705 486 695 c 128,-1,14
 496 685 496 685 496 671 c 2,15,-1
 496 -151 l 2,16,17
 496 -165 496 -165 486 -175 c 128,-1,18
 476 -185 476 -185 462 -185 c 256,19,20
 448 -185 448 -185 438.5 -175 c 128,-1,21
 429 -165 429 -165 429 -151 c 2,22,-1
 429 644 l 1,23,-1
 310 644 l 1,24,-1
 310 -151 l 2,25,26
 310 -165 310 -165 300.5 -175 c 128,-1,27
 291 -185 291 -185 277 -185 c 256,28,0
 263 -185 263 -185 253 -175 c 128,-1,1
EndSplineSet
EndChar

StartChar: periodcentered
Encoding: 120 183 122
Width: 229
GlyphClass: 2
Flags: W
LayerCount: 2
Fore
SplineSet
75 225 m 128,-1,1
 59 241 59 241 59 266 c 256,2,3
 59 291 59 291 75 306.5 c 128,-1,4
 91 322 91 322 115 322 c 0,5,6
 138 322 138 322 153.5 306.5 c 128,-1,7
 169 291 169 291 169 266 c 256,8,9
 169 241 169 241 153.5 225 c 128,-1,10
 138 209 138 209 115 209 c 0,11,0
 91 209 91 209 75 225 c 128,-1,1
EndSplineSet
Substitution2: "Single Substitution lookup 31 subtable" periodcentered.loclCAT
Substitution2: "'aalt' Access All Alternates lookup 0 subtable" periodcentered.loclCAT
EndChar

StartChar: ordmasculine
Encoding: 123 186 125
Width: 342
GlyphClass: 2
Flags: W
LayerCount: 2
Fore
SplineSet
61.5 449 m 128,-1,1
 22 491 22 491 22 559 c 0,2,3
 22 626 22 626 61.5 668 c 128,-1,4
 101 710 101 710 170 710 c 0,5,6
 240 710 240 710 280 668 c 128,-1,7
 320 626 320 626 320 559 c 0,8,9
 320 491 320 491 280 449 c 128,-1,10
 240 407 240 407 170 407 c 0,11,0
 101 407 101 407 61.5 449 c 128,-1,1
228.5 488.5 m 128,-1,13
 248 513 248 513 248 559 c 0,14,15
 248 604 248 604 228 628.5 c 128,-1,16
 208 653 208 653 170 653 c 0,17,18
 133 653 133 653 113.5 628.5 c 128,-1,19
 94 604 94 604 94 559 c 0,20,21
 94 513 94 513 113.5 488.5 c 128,-1,22
 133 464 133 464 170 464 c 0,23,12
 209 464 209 464 228.5 488.5 c 128,-1,13
EndSplineSet
EndChar

StartChar: questiondown
Encoding: 128 191 130
Width: 443
GlyphClass: 2
Flags: W
LayerCount: 2
Fore
SplineSet
195.5 400 m 128,-1,1
 180 416 180 416 180 440 c 0,2,3
 180 465 180 465 195.5 481 c 128,-1,4
 211 497 211 497 235 497 c 256,5,6
 259 497 259 497 274.5 481 c 128,-1,7
 290 465 290 465 290 440 c 0,8,9
 290 416 290 416 274.5 400 c 128,-1,10
 259 384 259 384 235 384 c 256,11,0
 211 384 211 384 195.5 400 c 128,-1,1
77.5 -145 m 128,-1,13
 24 -103 24 -103 24 -34 c 0,14,15
 24 2 24 2 36 30.5 c 128,-1,16
 48 59 48 59 65.5 79.5 c 128,-1,17
 83 100 83 100 114 130 c 0,18,19
 157 172 157 172 181 206 c 128,-1,20
 205 240 205 240 210 289 c 0,21,22
 211 299 211 299 218 305.5 c 128,-1,23
 225 312 225 312 235 312 c 0,24,25
 247 312 247 312 254 304 c 128,-1,26
 261 296 261 296 261 282 c 0,27,28
 261 239 261 239 249 206 c 128,-1,29
 237 173 237 173 219.5 150.5 c 128,-1,30
 202 128 202 128 174 97 c 0,31,32
 140 61 140 61 123.5 34.5 c 128,-1,33
 107 8 107 8 107 -29 c 0,34,35
 107 -70 107 -70 138 -94 c 128,-1,36
 169 -118 169 -118 222 -118 c 0,37,38
 267 -118 267 -118 305 -100.5 c 128,-1,39
 343 -83 343 -83 391 -47 c 0,40,41
 407 -36 407 -36 419 -36 c 256,42,43
 431 -36 431 -36 438.5 -46 c 128,-1,44
 446 -56 446 -56 446 -71 c 0,45,46
 446 -90 446 -90 430 -105 c 0,47,48
 390 -143 390 -143 333 -165 c 128,-1,49
 276 -187 276 -187 218 -187 c 0,50,12
 131 -187 131 -187 77.5 -145 c 128,-1,13
EndSplineSet
EndChar

StartChar: Aring
Encoding: 134 197 136
Width: 727
GlyphClass: 2
Flags: W
LayerCount: 2
Fore
SplineSet
698 30 m 0,1,2
 698 15 698 15 686.5 5 c 128,-1,3
 675 -5 675 -5 659 -5 c 0,4,5
 634 -5 634 -5 624 19 c 2,6,-1
 553 181 l 1,7,-1
 176 181 l 1,8,-1
 104 19 l 2,9,10
 94 -5 94 -5 69 -5 c 0,11,12
 53 -5 53 -5 41 5.5 c 128,-1,13
 29 16 29 16 29 31 c 0,14,15
 29 39 29 39 33 47 c 2,16,-1
 320 683 l 1,17,18
 294 695 294 695 278.5 719 c 128,-1,19
 263 743 263 743 263 773 c 0,20,21
 263 815 263 815 292.5 843.5 c 128,-1,22
 322 872 322 872 364 872 c 256,23,24
 406 872 406 872 435.5 843.5 c 128,-1,25
 465 815 465 815 465 773 c 0,26,27
 465 743 465 743 449.5 719 c 128,-1,28
 434 695 434 695 408 683 c 1,29,-1
 694 47 l 2,30,0
 698 39 698 39 698 30 c 0,1,2
329.5 808.5 m 128,-1,32
 316 794 316 794 316 773 c 256,33,34
 316 752 316 752 329.5 737.5 c 128,-1,35
 343 723 343 723 364 723 c 256,36,37
 385 723 385 723 398.5 737.5 c 128,-1,38
 412 752 412 752 412 773 c 256,39,40
 412 794 412 794 398.5 808.5 c 128,-1,41
 385 823 385 823 364 823 c 256,42,31
 343 823 343 823 329.5 808.5 c 128,-1,32
206 249 m 1,43,-1
 523 249 l 1,44,-1
 364 608 l 1,45,-1
 206 249 l 1,43,-1
EndSplineSet
EndChar

StartChar: AE
Encoding: 135 198 137
Width: 991
GlyphClass: 2
Flags: W
AnchorPoint: "Anchor-11" 498 705 basechar 0
AnchorPoint: "Anchor-9" 499 0 basechar 0
LayerCount: 2
Fore
SplineSet
940 60 m 128,-1,1
 950 51 950 51 950 34 c 0,2,3
 950 18 950 18 940 9 c 128,-1,4
 930 0 930 0 912 0 c 2,5,-1
 607 0 l 2,6,7
 591 0 591 0 580.5 9.5 c 128,-1,8
 570 19 570 19 566 34 c 2,9,-1
 535 181 l 1,10,-1
 187 181 l 1,11,-1
 89 19 l 2,12,13
 73 -6 73 -6 47 -6 c 0,14,15
 32 -6 32 -6 22 2.5 c 128,-1,16
 12 11 12 11 12 25 c 0,17,18
 12 36 12 36 19 47 c 2,19,-1
 412 683 l 2,20,21
 427 705 427 705 460 705 c 2,22,-1
 912 705 l 2,23,24
 930 705 930 705 940 696 c 128,-1,25
 950 687 950 687 950 671 c 0,26,27
 950 654 950 654 940 645 c 128,-1,28
 930 636 930 636 912 636 c 2,29,-1
 513 636 l 1,30,-1
 566 392 l 1,31,-1
 892 392 l 2,32,33
 910 392 910 392 920 383 c 128,-1,34
 930 374 930 374 930 358 c 256,35,36
 930 342 930 342 920 333 c 128,-1,37
 910 324 910 324 892 324 c 2,38,-1
 580 324 l 1,39,-1
 635 69 l 1,40,-1
 912 69 l 2,41,0
 930 69 930 69 940 60 c 128,-1,1
229 249 m 1,42,-1
 520 249 l 1,43,-1
 445 605 l 1,44,-1
 229 249 l 1,42,-1
EndSplineSet
EndChar

StartChar: Ccedilla
Encoding: 136 199 138
Width: 677
GlyphClass: 2
Flags: W
AnchorPoint: "Anchor-11" 386 705 basechar 0
AnchorPoint: "Anchor-9" 385 0 basechar 0
LayerCount: 2
Fore
SplineSet
624 135 m 128,-1,1
 632 125 632 125 632 110 c 0,2,3
 632 90 632 90 616 75 c 0,4,5
 575 38 575 38 520 16.5 c 128,-1,6
 465 -5 465 -5 404 -8 c 1,7,-1
 400 -44 l 1,8,9
 412 -41 412 -41 426 -41 c 0,10,11
 457 -41 457 -41 478.5 -58.5 c 128,-1,12
 500 -76 500 -76 500 -110 c 0,13,14
 500 -147 500 -147 469 -170 c 128,-1,15
 438 -193 438 -193 382 -193 c 0,16,17
 345 -193 345 -193 314 -181 c 0,18,19
 306 -178 306 -178 301.5 -171.5 c 128,-1,20
 297 -165 297 -165 297 -158 c 0,21,22
 297 -149 297 -149 303 -142.5 c 128,-1,23
 309 -136 309 -136 319 -136 c 0,24,25
 324 -136 324 -136 327 -137 c 0,26,27
 354 -145 354 -145 383 -145 c 0,28,29
 411 -145 411 -145 425.5 -136 c 128,-1,30
 440 -127 440 -127 440 -110 c 0,31,32
 440 -97 440 -97 432 -90 c 128,-1,33
 424 -83 424 -83 409 -83 c 0,34,35
 398 -83 398 -83 381 -87.5 c 128,-1,36
 364 -92 364 -92 360 -92 c 0,37,38
 352 -92 352 -92 345.5 -86.5 c 128,-1,39
 339 -81 339 -81 340 -73 c 2,40,-1
 348 -6 l 1,41,42
 259 2 259 2 194.5 47.5 c 128,-1,43
 130 93 130 93 95.5 171 c 128,-1,44
 61 249 61 249 61 353 c 0,45,46
 61 463 61 463 100.5 544.5 c 128,-1,47
 140 626 140 626 213 669.5 c 128,-1,48
 286 713 286 713 386 713 c 0,49,50
 453 713 453 713 512.5 691.5 c 128,-1,51
 572 670 572 670 616 630 c 0,52,53
 632 615 632 615 632 595 c 0,54,55
 632 581 632 581 624 570.5 c 128,-1,56
 616 560 616 560 605 560 c 0,57,58
 593 560 593 560 576 571 c 0,59,60
 525 611 525 611 483.5 627 c 128,-1,61
 442 643 442 643 388 643 c 0,62,63
 272 643 272 643 209.5 567.5 c 128,-1,64
 147 492 147 492 147 353 c 0,65,66
 147 213 147 213 209.5 137.5 c 128,-1,67
 272 62 272 62 388 62 c 0,68,69
 441 62 441 62 483 78 c 128,-1,70
 525 94 525 94 576 134 c 0,71,72
 593 145 593 145 605 145 c 0,73,0
 616 145 616 145 624 135 c 128,-1,1
EndSplineSet
EndChar

StartChar: Eth
Encoding: 145 208 147
Width: 752
GlyphClass: 2
Flags: W
LayerCount: 2
Fore
SplineSet
598.5 613.5 m 128,-1,1
 691 522 691 522 691 353 c 256,2,3
 691 184 691 184 598 92 c 128,-1,4
 505 0 505 0 337 0 c 2,5,-1
 142 0 l 2,6,7
 123 0 123 0 111.5 11.5 c 128,-1,8
 100 23 100 23 100 40 c 2,9,-1
 100 324 l 1,10,-1
 37 324 l 2,11,12
 20 324 20 324 10 332.5 c 128,-1,13
 0 341 0 341 0 357 c 256,14,15
 0 373 0 373 10 382 c 128,-1,16
 20 391 20 391 37 391 c 2,17,-1
 100 391 l 1,18,-1
 100 665 l 2,19,20
 100 683 100 683 111.5 694 c 128,-1,21
 123 705 123 705 142 705 c 2,22,-1
 337 705 l 2,23,0
 506 705 506 705 598.5 613.5 c 128,-1,1
607 353 m 0,25,26
 607 635 607 635 333 635 c 2,27,-1
 182 635 l 1,28,-1
 182 391 l 1,29,-1
 346 391 l 2,30,31
 363 391 363 391 372.5 382 c 128,-1,32
 382 373 382 373 382 357 c 256,33,34
 382 341 382 341 372.5 332.5 c 128,-1,35
 363 324 363 324 346 324 c 2,36,-1
 182 324 l 1,37,-1
 182 70 l 1,38,-1
 333 70 l 2,39,24
 607 70 607 70 607 353 c 0,25,26
EndSplineSet
EndChar

StartChar: multiply
Encoding: 152 215 154
Width: 600
GlyphClass: 2
Flags: W
LayerCount: 2
Fore
SplineSet
521 95 m 0,1,2
 521 82 521 82 510 71 c 0,3,4
 503 63 503 63 491 63 c 0,5,6
 477 63 477 63 467 74 c 2,7,-1
 300 241 l 1,8,-1
 133 74 l 2,9,10
 124 64 124 64 109 64 c 0,11,12
 96 64 96 64 87 73 c 0,13,14
 79 81 79 81 79 94 c 0,15,16
 79 108 79 108 89 117 c 2,17,-1
 256 284 l 1,18,-1
 89 451 l 2,19,20
 79 463 79 463 79 474 c 0,21,22
 79 487 79 487 89 497 c 0,23,24
 98 506 98 506 110 506 c 0,25,26
 123 506 123 506 133 496 c 2,27,-1
 300 329 l 1,28,-1
 467 496 l 2,29,30
 478 505 478 505 490 505 c 0,31,32
 504 505 504 505 513 496 c 0,33,34
 521 488 521 488 521 475 c 0,35,36
 521 461 521 461 511 451 c 2,37,-1
 344 284 l 1,38,-1
 511 117 l 2,39,0
 521 107 521 107 521 95 c 0,1,2
EndSplineSet
EndChar

StartChar: Oslash
Encoding: 153 216 155
Width: 764
GlyphClass: 2
Flags: W
AnchorPoint: "Anchor-11" 382 705 basechar 0
AnchorPoint: "Anchor-9" 382 0 basechar 0
LayerCount: 2
Fore
SplineSet
674 522 m 128,-1,1
 703 448 703 448 703 353 c 0,2,3
 703 243 703 243 664 161.5 c 128,-1,4
 625 80 625 80 552.5 36 c 128,-1,5
 480 -8 480 -8 382 -8 c 0,6,7
 297 -8 297 -8 229 26 c 1,8,-1
 203 -19 l 2,9,10
 191 -40 191 -40 172 -40 c 0,11,12
 159 -40 159 -40 149.5 -31 c 128,-1,13
 140 -22 140 -22 140 -8 c 0,14,15
 140 3 140 3 147 14 c 2,16,-1
 175 62 l 1,17,18
 120 109 120 109 90.5 183 c 128,-1,19
 61 257 61 257 61 352 c 0,20,21
 61 463 61 463 99.5 544.5 c 128,-1,22
 138 626 138 626 210.5 669.5 c 128,-1,23
 283 713 283 713 382 713 c 0,24,25
 466 713 466 713 535 680 c 1,26,-1
 561 725 l 2,27,28
 572 744 572 744 592 744 c 0,29,30
 605 744 605 744 614.5 735 c 128,-1,31
 624 726 624 726 624 713 c 0,32,33
 624 703 624 703 618 692 c 2,34,-1
 590 643 l 1,35,0
 645 596 645 596 674 522 c 128,-1,1
214 130 m 1,37,-1
 498 617 l 1,38,39
 448 643 448 643 382 643 c 0,40,41
 270 643 270 643 207.5 567.5 c 128,-1,42
 145 492 145 492 145 353 c 0,43,36
 145 205 145 205 214 130 c 1,37,-1
556.5 137.5 m 128,-1,45
 619 213 619 213 619 353 c 0,46,47
 619 501 619 501 550 576 c 1,48,-1
 266 89 l 1,49,50
 316 62 316 62 382 62 c 0,51,44
 494 62 494 62 556.5 137.5 c 128,-1,45
EndSplineSet
EndChar

StartChar: Thorn
Encoding: 159 222 161
Width: 645
GlyphClass: 2
Flags: W
AnchorPoint: "Anchor-11" 323 705 basechar 0
AnchorPoint: "Anchor-9" 323 0 basechar 0
LayerCount: 2
Fore
SplineSet
541 500 m 128,-1,1
 600 450 600 450 600 359 c 256,2,3
 600 268 600 268 540 217.5 c 128,-1,4
 480 167 480 167 373 167 c 2,5,-1
 168 167 l 1,6,-1
 168 37 l 2,7,8
 168 18 168 18 157 6.5 c 128,-1,9
 146 -5 146 -5 127 -5 c 0,10,11
 109 -5 109 -5 98 6.5 c 128,-1,12
 87 18 87 18 87 37 c 2,13,-1
 87 668 l 2,14,15
 87 687 87 687 98 698.5 c 128,-1,16
 109 710 109 710 127 710 c 0,17,18
 146 710 146 710 157 698.5 c 128,-1,19
 168 687 168 687 168 668 c 2,20,-1
 168 550 l 1,21,-1
 373 550 l 2,22,0
 482 550 482 550 541 500 c 128,-1,1
481 265.5 m 128,-1,24
 519 296 519 296 519 359 c 256,25,26
 519 422 519 422 481 452 c 128,-1,27
 443 482 443 482 364 482 c 2,28,-1
 168 482 l 1,29,-1
 168 235 l 1,30,-1
 364 235 l 2,31,23
 443 235 443 235 481 265.5 c 128,-1,24
EndSplineSet
EndChar

StartChar: germandbls
Encoding: 160 223 162
Width: 616
GlyphClass: 2
Flags: W
LayerCount: 2
Fore
SplineSet
324 4.5 m 128,-1,1
 284 16 284 16 254 35 c 0,2,3
 236 48 236 48 228.5 58.5 c 128,-1,4
 221 69 221 69 221 83 c 0,5,6
 221 96 221 96 228.5 104.5 c 128,-1,7
 236 113 236 113 248 113 c 0,8,9
 259 113 259 113 284 97 c 0,10,11
 312 80 312 80 339 69.5 c 128,-1,12
 366 59 366 59 404 59 c 0,13,14
 452 59 452 59 479.5 78.5 c 128,-1,15
 507 98 507 98 507 133 c 0,16,17
 507 166 507 166 480.5 183.5 c 128,-1,18
 454 201 454 201 399 220 c 0,19,20
 353 235 353 235 324.5 249.5 c 128,-1,21
 296 264 296 264 276 290 c 128,-1,22
 256 316 256 316 256 357 c 0,23,24
 256 393 256 393 274 418.5 c 128,-1,25
 292 444 292 444 329 479 c 0,26,27
 361 508 361 508 376.5 528.5 c 128,-1,28
 392 549 392 549 392 576 c 0,29,30
 392 609 392 609 368 627 c 128,-1,31
 344 645 344 645 300 645 c 0,32,33
 231 645 231 645 193.5 603.5 c 128,-1,34
 156 562 156 562 156 486 c 2,35,-1
 156 35 l 2,36,37
 156 16 156 16 145.5 5.5 c 128,-1,38
 135 -5 135 -5 116 -5 c 256,39,40
 97 -5 97 -5 86 5.5 c 128,-1,41
 75 16 75 16 75 35 c 2,42,-1
 75 477 l 2,43,44
 75 587 75 587 134.5 648.5 c 128,-1,45
 194 710 194 710 301 710 c 0,46,47
 380 710 380 710 425 675.5 c 128,-1,48
 470 641 470 641 470 579 c 0,49,50
 470 538 470 538 449.5 509 c 128,-1,51
 429 480 429 480 391 446 c 0,52,53
 363 422 363 422 349 404 c 128,-1,54
 335 386 335 386 335 365 c 0,55,56
 335 333 335 333 360.5 316 c 128,-1,57
 386 299 386 299 439 281 c 0,58,59
 485 265 485 265 514.5 250 c 128,-1,60
 544 235 544 235 565 207 c 128,-1,61
 586 179 586 179 586 136 c 0,62,63
 586 72 586 72 535 32.5 c 128,-1,64
 484 -7 484 -7 402 -7 c 0,65,0
 364 -7 364 -7 324 4.5 c 128,-1,1
EndSplineSet
EndChar

StartChar: ae
Encoding: 167 230 169
Width: 853
GlyphClass: 2
Flags: W
AnchorPoint: "Anchor-11" 421 491 basechar 0
AnchorPoint: "Anchor-9" 421 0 basechar 0
LayerCount: 2
Fore
SplineSet
797.5 104 m 128,-1,1
 805 95 805 95 805 81 c 0,2,3
 805 55 805 55 770 35 c 0,4,5
 736 15 736 15 696.5 4 c 128,-1,6
 657 -7 657 -7 620 -7 c 0,7,8
 546 -7 546 -7 494 25 c 128,-1,9
 442 57 442 57 415 117 c 1,10,11
 396 58 396 58 350 25.5 c 128,-1,12
 304 -7 304 -7 238 -7 c 0,13,14
 188 -7 188 -7 147 12 c 128,-1,15
 106 31 106 31 82 64.5 c 128,-1,16
 58 98 58 98 58 140 c 0,17,18
 58 195 58 195 86 225.5 c 128,-1,19
 114 256 114 256 178.5 269.5 c 128,-1,20
 243 283 243 283 358 283 c 2,21,-1
 381 283 l 1,22,-1
 381 313 l 2,23,24
 381 375 381 375 356 403.5 c 128,-1,25
 331 432 331 432 276 432 c 0,26,27
 227 432 227 432 195 421 c 128,-1,28
 163 410 163 410 130 392 c 0,29,30
 120 386 120 386 111.5 382 c 128,-1,31
 103 378 103 378 97 378 c 0,32,33
 85 378 85 378 77.5 387 c 128,-1,34
 70 396 70 396 70 410 c 0,35,36
 70 436 70 436 106 456 c 0,37,38
 180 499 180 499 274 499 c 0,39,40
 397 499 397 499 436 412 c 1,41,42
 465 454 465 454 509.5 476.5 c 128,-1,43
 554 499 554 499 608 499 c 0,44,45
 668 499 668 499 713.5 470.5 c 128,-1,46
 759 442 759 442 784 390 c 128,-1,47
 809 338 809 338 809 269 c 0,48,49
 809 249 809 249 800.5 240 c 128,-1,50
 792 231 792 231 774 231 c 2,51,-1
 460 231 l 1,52,53
 464 146 464 146 505 102.5 c 128,-1,54
 546 59 546 59 620 59 c 0,55,56
 658 59 658 59 684.5 69 c 128,-1,57
 711 79 711 79 743 97 c 0,58,59
 753 103 753 103 762.5 108 c 128,-1,60
 772 113 772 113 779 113 c 0,61,0
 790 113 790 113 797.5 104 c 128,-1,1
507 396 m 128,-1,63
 469 356 469 356 462 283 c 1,64,-1
 738 283 l 1,65,66
 736 357 736 357 701.5 396.5 c 128,-1,67
 667 436 667 436 607 436 c 0,68,62
 545 436 545 436 507 396 c 128,-1,63
343 99 m 128,-1,70
 381 141 381 141 381 205 c 2,71,-1
 381 231 l 1,72,-1
 362 231 l 2,73,74
 274 231 274 231 227 223.5 c 128,-1,75
 180 216 180 216 160.5 198.5 c 128,-1,76
 141 181 141 181 141 147 c 0,77,78
 141 107 141 107 170.5 82 c 128,-1,79
 200 57 200 57 246 57 c 0,80,69
 305 57 305 57 343 99 c 128,-1,70
EndSplineSet
EndChar

StartChar: ccedilla
Encoding: 168 231 170
Width: 479
GlyphClass: 2
Flags: W
AnchorPoint: "Anchor-11" 280 491 basechar 0
AnchorPoint: "Anchor-9" 276 0 basechar 0
LayerCount: 2
Fore
SplineSet
448.5 105 m 128,-1,1
 456 96 456 96 456 82 c 0,2,3
 456 69 456 69 449 58.5 c 128,-1,4
 442 48 442 48 423 35 c 0,5,6
 398 18 398 18 364.5 7 c 128,-1,7
 331 -4 331 -4 295 -6 c 1,8,-1
 291 -44 l 1,9,10
 303 -41 303 -41 317 -41 c 0,11,12
 348 -41 348 -41 369.5 -58.5 c 128,-1,13
 391 -76 391 -76 391 -110 c 0,14,15
 391 -147 391 -147 360 -170 c 128,-1,16
 329 -193 329 -193 273 -193 c 0,17,18
 237 -193 237 -193 205 -181 c 0,19,20
 197 -178 197 -178 192.5 -171.5 c 128,-1,21
 188 -165 188 -165 188 -158 c 0,22,23
 188 -149 188 -149 194 -142.5 c 128,-1,24
 200 -136 200 -136 210 -136 c 0,25,26
 215 -136 215 -136 218 -137 c 0,27,28
 245 -145 245 -145 274 -145 c 0,29,30
 302 -145 302 -145 316.5 -136 c 128,-1,31
 331 -127 331 -127 331 -110 c 0,32,33
 331 -97 331 -97 323 -90 c 128,-1,34
 315 -83 315 -83 300 -83 c 0,35,36
 289 -83 289 -83 272 -87.5 c 128,-1,37
 255 -92 255 -92 251 -92 c 0,38,39
 243 -92 243 -92 236.5 -86.5 c 128,-1,40
 230 -81 230 -81 231 -73 c 2,41,-1
 239 -5 l 1,42,43
 151 8 151 8 98.5 74.5 c 128,-1,44
 46 141 46 141 46 244 c 0,45,46
 46 319 46 319 75.5 377 c 128,-1,47
 105 435 105 435 158 467 c 128,-1,48
 211 499 211 499 280 499 c 0,49,50
 318 499 318 499 355.5 488.5 c 128,-1,51
 393 478 393 478 421 458 c 0,52,53
 439 446 439 446 446.5 434.5 c 128,-1,54
 454 423 454 423 454 409 c 256,55,56
 454 395 454 395 446.5 386 c 128,-1,57
 439 377 439 377 427 377 c 0,58,59
 420 377 420 377 412 381 c 128,-1,60
 404 385 404 385 398.5 389 c 128,-1,61
 393 393 393 393 391 394 c 0,62,63
 365 411 365 411 341.5 421 c 128,-1,64
 318 431 318 431 284 431 c 0,65,66
 211 431 211 431 170.5 381.5 c 128,-1,67
 130 332 130 332 130 244 c 256,68,69
 130 156 130 156 170.5 108 c 128,-1,70
 211 60 211 60 284 60 c 0,71,72
 318 60 318 60 342.5 70 c 128,-1,73
 367 80 367 80 392 97 c 0,74,75
 403 104 403 104 413 109 c 128,-1,76
 423 114 423 114 430 114 c 0,77,0
 441 114 441 114 448.5 105 c 128,-1,1
EndSplineSet
EndChar

StartChar: eth
Encoding: 177 240 179
Width: 559
GlyphClass: 2
Flags: W
LayerCount: 2
Fore
SplineSet
513 282 m 0,1,2
 513 141 513 141 452 67 c 128,-1,3
 391 -7 391 -7 275 -7 c 0,4,5
 207 -7 207 -7 155 21.5 c 128,-1,6
 103 50 103 50 74.5 102.5 c 128,-1,7
 46 155 46 155 46 224 c 256,8,9
 46 293 46 293 74.5 345 c 128,-1,10
 103 397 103 397 154 426 c 128,-1,11
 205 455 205 455 272 455 c 0,12,13
 374 455 374 455 425 388 c 1,14,15
 403 479 403 479 331 551 c 1,16,-1
 199 503 l 2,17,18
 191 501 191 501 189 501 c 0,19,20
 178 501 178 501 170.5 509.5 c 128,-1,21
 163 518 163 518 163 529 c 0,22,23
 163 547 163 547 182 554 c 2,24,-1
 284 590 l 1,25,26
 239 623 239 623 190 643 c 0,27,28
 162 656 162 656 162 678 c 0,29,30
 162 691 162 691 172 700.5 c 128,-1,31
 182 710 182 710 198 710 c 0,32,33
 208 710 208 710 221 705 c 0,34,35
 300 674 300 674 363 619 c 1,36,-1
 472 658 l 2,37,38
 480 660 480 660 483 660 c 0,39,40
 494 660 494 660 501.5 652 c 128,-1,41
 509 644 509 644 509 634 c 0,42,43
 509 626 509 626 504 619 c 128,-1,44
 499 612 499 612 489 608 c 2,45,-1
 404 577 l 1,46,0
 513 455 513 455 513 282 c 0,1,2
386.5 103.5 m 128,-1,48
 426 147 426 147 426 225 c 0,49,50
 426 302 426 302 387.5 345.5 c 128,-1,51
 349 389 349 389 277 389 c 0,52,53
 206 389 206 389 167 346 c 128,-1,54
 128 303 128 303 128 224 c 256,55,56
 128 145 128 145 167 102.5 c 128,-1,57
 206 60 206 60 277 60 c 0,58,47
 347 60 347 60 386.5 103.5 c 128,-1,48
EndSplineSet
EndChar

StartChar: divide
Encoding: 184 247 186
Width: 600
GlyphClass: 2
Flags: W
LayerCount: 2
Fore
SplineSet
266 450 m 128,-1,1
 252 464 252 464 252 486 c 256,2,3
 252 508 252 508 266 521.5 c 128,-1,4
 280 535 280 535 300 535 c 0,5,6
 321 535 321 535 334.5 521.5 c 128,-1,7
 348 508 348 508 348 486 c 256,8,9
 348 464 348 464 334 450 c 128,-1,10
 320 436 320 436 300 436 c 256,11,0
 280 436 280 436 266 450 c 128,-1,1
71 262.5 m 128,-1,13
 62 272 62 272 62 286 c 0,14,15
 62 298 62 298 71.5 307 c 128,-1,16
 81 316 81 316 94 316 c 2,17,-1
 518 316 l 2,18,19
 532 316 532 316 541 306.5 c 128,-1,20
 550 297 550 297 550 283 c 0,21,22
 550 271 550 271 540.5 262 c 128,-1,23
 531 253 531 253 518 253 c 2,24,-1
 94 253 l 2,25,12
 80 253 80 253 71 262.5 c 128,-1,13
266 49 m 128,-1,27
 252 63 252 63 252 84 c 0,28,29
 252 106 252 106 266 119.5 c 128,-1,30
 280 133 280 133 300 133 c 0,31,32
 321 133 321 133 334.5 119.5 c 128,-1,33
 348 106 348 106 348 84 c 0,34,35
 348 63 348 63 334.5 49 c 128,-1,36
 321 35 321 35 300 35 c 0,37,26
 280 35 280 35 266 49 c 128,-1,27
EndSplineSet
EndChar

StartChar: oslash
Encoding: 185 248 187
Width: 555
GlyphClass: 2
Flags: W
AnchorPoint: "Anchor-11" 277 491 basechar 0
LayerCount: 2
Fore
SplineSet
488 362 m 128,-1,1
 509 311 509 311 509 246 c 0,2,3
 509 170 509 170 480.5 112.5 c 128,-1,4
 452 55 452 55 399 24 c 128,-1,5
 346 -7 346 -7 277 -7 c 0,6,7
 220 -7 220 -7 175 14 c 1,8,-1
 154 -23 l 2,9,10
 145 -38 145 -38 129 -38 c 0,11,12
 118 -38 118 -38 109 -30 c 128,-1,13
 100 -22 100 -22 100 -11 c 0,14,15
 100 -4 100 -4 105 4 c 2,16,-1
 128 43 l 1,17,18
 89 76 89 76 67.5 128.5 c 128,-1,19
 46 181 46 181 46 246 c 0,20,21
 46 322 46 322 74.5 379.5 c 128,-1,22
 103 437 103 437 155.5 468 c 128,-1,23
 208 499 208 499 277 499 c 0,24,25
 336 499 336 499 381 477 c 1,26,-1
 402 514 l 2,27,28
 410 529 410 529 427 529 c 0,29,30
 438 529 438 529 447 521 c 128,-1,31
 456 513 456 513 456 502 c 0,32,33
 456 495 456 495 451 487 c 2,34,-1
 428 447 l 1,35,0
 467 413 467 413 488 362 c 128,-1,1
166 108 m 1,37,-1
 346 417 l 1,38,39
 316 432 316 432 277 432 c 0,40,41
 206 432 206 432 167 383.5 c 128,-1,42
 128 335 128 335 128 246 c 0,43,36
 128 155 128 155 166 108 c 1,37,-1
388.5 107.5 m 128,-1,45
 427 155 427 155 427 246 c 0,46,47
 427 334 427 334 389 381 c 1,48,-1
 210 73 l 1,49,50
 237 60 237 60 277 60 c 0,51,44
 350 60 350 60 388.5 107.5 c 128,-1,45
EndSplineSet
EndChar

StartChar: thorn
Encoding: 191 254 193
Width: 582
GlyphClass: 2
Flags: W
AnchorPoint: "Anchor-11" 290 491 basechar 0
AnchorPoint: "Anchor-9" 290 0 basechar 0
LayerCount: 2
Fore
SplineSet
431.5 467.5 m 128,-1,1
 481 436 481 436 508.5 378.5 c 128,-1,2
 536 321 536 321 536 244 c 256,3,4
 536 167 536 167 508.5 110 c 128,-1,5
 481 53 481 53 432 23 c 128,-1,6
 383 -7 383 -7 320 -7 c 0,7,8
 263 -7 263 -7 220.5 18 c 128,-1,9
 178 43 178 43 156 89 c 1,10,-1
 156 -146 l 2,11,12
 156 -164 156 -164 145 -174.5 c 128,-1,13
 134 -185 134 -185 116 -185 c 256,14,15
 98 -185 98 -185 86.5 -174.5 c 128,-1,16
 75 -164 75 -164 75 -146 c 2,17,-1
 75 671 l 2,18,19
 75 689 75 689 86.5 699.5 c 128,-1,20
 98 710 98 710 116 710 c 256,21,22
 134 710 134 710 145 699.5 c 128,-1,23
 156 689 156 689 156 671 c 2,24,-1
 156 403 l 1,25,26
 178 449 178 449 220.5 474 c 128,-1,27
 263 499 263 499 320 499 c 0,28,0
 382 499 382 499 431.5 467.5 c 128,-1,1
414.5 108.5 m 128,-1,30
 453 157 453 157 453 244 c 256,31,32
 453 331 453 331 414 381 c 128,-1,33
 375 431 375 431 304 431 c 256,34,35
 233 431 233 431 194.5 383 c 128,-1,36
 156 335 156 335 156 246 c 256,37,38
 156 157 156 157 194.5 108.5 c 128,-1,39
 233 60 233 60 304 60 c 0,40,29
 376 60 376 60 414.5 108.5 c 128,-1,30
EndSplineSet
EndChar

StartChar: Aogonek
Encoding: 197 260 199
Width: 727
GlyphClass: 2
Flags: W
LayerCount: 2
Fore
SplineSet
727 -125 m 0,1,2
 736 -125 736 -125 741 -132 c 128,-1,3
 746 -139 746 -139 746 -148 c 0,4,5
 746 -165 746 -165 731 -174 c 0,6,7
 697 -193 697 -193 657 -193 c 0,8,9
 605 -193 605 -193 572.5 -163 c 128,-1,10
 540 -133 540 -133 540 -85 c 0,11,12
 540 -49 540 -49 561 -19.5 c 128,-1,13
 582 10 582 10 620 27 c 1,14,-1
 553 181 l 1,15,-1
 176 181 l 1,16,-1
 104 19 l 2,17,18
 94 -5 94 -5 69 -5 c 0,19,20
 53 -5 53 -5 41 5.5 c 128,-1,21
 29 16 29 16 29 31 c 0,22,23
 29 39 29 39 33 47 c 2,24,-1
 319 683 l 2,25,26
 325 697 325 697 337 704 c 128,-1,27
 349 711 349 711 363 711 c 0,28,29
 378 711 378 711 390 703.5 c 128,-1,30
 402 696 402 696 408 683 c 2,31,-1
 694 47 l 2,32,33
 698 39 698 39 698 30 c 0,34,35
 698 19 698 19 691 10.5 c 128,-1,36
 684 2 684 2 674 -1 c 0,37,38
 641 -8 641 -8 622 -27.5 c 128,-1,39
 603 -47 603 -47 603 -77 c 256,40,41
 603 -107 603 -107 620.5 -123.5 c 128,-1,42
 638 -140 638 -140 667 -140 c 0,43,44
 690 -140 690 -140 715 -128 c 0,45,0
 721 -125 721 -125 727 -125 c 0,1,2
206 249 m 1,46,-1
 523 249 l 1,47,-1
 364 608 l 1,48,-1
 206 249 l 1,46,-1
EndSplineSet
EndChar

StartChar: aogonek
Encoding: 198 261 200
Width: 530
GlyphClass: 2
Flags: W
LayerCount: 2
Fore
SplineSet
485 -126 m 0,1,2
 494 -126 494 -126 499.5 -133 c 128,-1,3
 505 -140 505 -140 505 -149 c 0,4,5
 505 -166 505 -166 490 -174 c 0,6,7
 452 -193 452 -193 416 -193 c 0,8,9
 364 -193 364 -193 331.5 -163.5 c 128,-1,10
 299 -134 299 -134 299 -87 c 0,11,12
 299 -50 299 -50 320 -21 c 128,-1,13
 341 8 341 8 379 25 c 0,14,15
 378 28 378 28 378 35 c 2,16,-1
 378 83 l 1,17,18
 359 40 359 40 320 16.5 c 128,-1,19
 281 -7 281 -7 230 -7 c 0,20,21
 183 -7 183 -7 143.5 12 c 128,-1,22
 104 31 104 31 81 65 c 128,-1,23
 58 99 58 99 58 140 c 0,24,25
 58 194 58 194 86 225 c 128,-1,26
 114 256 114 256 178 269.5 c 128,-1,27
 242 283 242 283 356 283 c 2,28,-1
 378 283 l 1,29,-1
 378 316 l 2,30,31
 378 376 378 376 353.5 404 c 128,-1,32
 329 432 329 432 274 432 c 0,33,34
 206 432 206 432 136 395 c 0,35,36
 124 388 124 388 114.5 383 c 128,-1,37
 105 378 105 378 98 378 c 0,38,39
 86 378 86 378 78 387 c 128,-1,40
 70 396 70 396 70 410 c 256,41,42
 70 424 70 424 78.5 434.5 c 128,-1,43
 87 445 87 445 106 456 c 0,44,45
 141 476 141 476 185.5 487.5 c 128,-1,46
 230 499 230 499 274 499 c 0,47,48
 457 499 457 499 457 307 c 2,49,-1
 457 35 l 2,50,51
 457 21 457 21 450.5 11.5 c 128,-1,52
 444 2 444 2 433 -1 c 0,53,54
 362 -19 362 -19 362 -77 c 0,55,56
 362 -106 362 -106 379 -123 c 128,-1,57
 396 -140 396 -140 426 -140 c 0,58,59
 446 -140 446 -140 474 -128 c 0,60,0
 478 -126 478 -126 485 -126 c 0,1,2
339.5 97.5 m 128,-1,62
 378 138 378 138 378 202 c 2,63,-1
 378 231 l 1,64,-1
 360 231 l 2,65,66
 273 231 273 231 226.5 223.5 c 128,-1,67
 180 216 180 216 160.5 198 c 128,-1,68
 141 180 141 180 141 147 c 0,69,70
 141 108 141 108 169.5 82.5 c 128,-1,71
 198 57 198 57 241 57 c 0,72,61
 301 57 301 57 339.5 97.5 c 128,-1,62
EndSplineSet
Substitution2: "'ss01' Style Set 1 lookup 29 subtable" aogonek.ss01
Substitution2: "'salt' Stylistic Alternatives lookup 28 subtable" aogonek.ss01
Substitution2: "'aalt' Access All Alternates lookup 0 subtable" aogonek.ss01
EndChar

StartChar: dcaron
Encoding: 208 271 210
Width: 582
GlyphClass: 2
Flags: W
AnchorPoint: "Anchor-13" 543 705 basechar 0
AnchorPoint: "Anchor-12" 293 246 basechar 0
AnchorPoint: "Anchor-11" 293 491 basechar 0
AnchorPoint: "Anchor-9" 293 0 basechar 0
LayerCount: 2
Fore
SplineSet
549.5 701.5 m 128,-1,1
 559 711 559 711 571 711 c 0,2,3
 586 711 586 711 595.5 700 c 128,-1,4
 605 689 605 689 602 671 c 2,5,-1
 580 525 l 2,6,7
 579 516 579 516 573 511.5 c 128,-1,8
 567 507 567 507 560 507 c 0,9,10
 552 507 552 507 546 513 c 128,-1,11
 540 519 540 519 540 529 c 2,12,-1
 540 675 l 2,13,0
 540 692 540 692 549.5 701.5 c 128,-1,1
496 699 m 128,-1,15
 507 688 507 688 507 671 c 2,16,-1
 507 35 l 2,17,18
 507 17 507 17 496 6 c 128,-1,19
 485 -5 485 -5 466 -5 c 256,20,21
 447 -5 447 -5 436.5 6 c 128,-1,22
 426 17 426 17 426 35 c 2,23,-1
 426 89 l 1,24,25
 404 43 404 43 361.5 18 c 128,-1,26
 319 -7 319 -7 262 -7 c 0,27,28
 198 -7 198 -7 149 25 c 128,-1,29
 100 57 100 57 73 114.5 c 128,-1,30
 46 172 46 172 46 248 c 0,31,32
 46 323 46 323 73 380 c 128,-1,33
 100 437 100 437 149 468 c 128,-1,34
 198 499 198 499 262 499 c 0,35,36
 319 499 319 499 361.5 474 c 128,-1,37
 404 449 404 449 426 403 c 1,38,-1
 426 671 l 2,39,40
 426 689 426 689 436.5 699.5 c 128,-1,41
 447 710 447 710 466 710 c 256,42,14
 485 710 485 710 496 699 c 128,-1,15
387.5 108.5 m 128,-1,44
 426 157 426 157 426 246 c 256,45,46
 426 335 426 335 387.5 383 c 128,-1,47
 349 431 349 431 278 431 c 256,48,49
 207 431 207 431 167.5 383 c 128,-1,50
 128 335 128 335 128 248 c 0,51,52
 128 159 128 159 167.5 109.5 c 128,-1,53
 207 60 207 60 278 60 c 256,54,43
 349 60 349 60 387.5 108.5 c 128,-1,44
EndSplineSet
EndChar

StartChar: dcroat
Encoding: 210 273 212
Width: 582
GlyphClass: 2
Flags: W
LayerCount: 2
Fore
SplineSet
597.5 607.5 m 128,-1,1
 607 599 607 599 607 585 c 256,2,3
 607 571 607 571 597.5 563 c 128,-1,4
 588 555 588 555 572 555 c 2,5,-1
 507 555 l 1,6,-1
 507 35 l 2,7,8
 507 17 507 17 496 6 c 128,-1,9
 485 -5 485 -5 466 -5 c 256,10,11
 447 -5 447 -5 436.5 6 c 128,-1,12
 426 17 426 17 426 35 c 2,13,-1
 426 89 l 1,14,15
 404 43 404 43 361.5 18 c 128,-1,16
 319 -7 319 -7 262 -7 c 0,17,18
 198 -7 198 -7 149 25 c 128,-1,19
 100 57 100 57 73 114.5 c 128,-1,20
 46 172 46 172 46 248 c 0,21,22
 46 323 46 323 73 380 c 128,-1,23
 100 437 100 437 149 468 c 128,-1,24
 198 499 198 499 262 499 c 0,25,26
 319 499 319 499 361.5 474 c 128,-1,27
 404 449 404 449 426 403 c 1,28,-1
 426 555 l 1,29,-1
 260 555 l 2,30,31
 244 555 244 555 235 563 c 128,-1,32
 226 571 226 571 226 585 c 256,33,34
 226 599 226 599 235 607.5 c 128,-1,35
 244 616 244 616 260 616 c 2,36,-1
 426 616 l 1,37,-1
 426 671 l 2,38,39
 426 689 426 689 436.5 699.5 c 128,-1,40
 447 710 447 710 466 710 c 256,41,42
 485 710 485 710 496 699 c 128,-1,43
 507 688 507 688 507 671 c 2,44,-1
 507 616 l 1,45,-1
 572 616 l 2,46,0
 588 616 588 616 597.5 607.5 c 128,-1,1
387.5 108.5 m 128,-1,48
 426 157 426 157 426 246 c 256,49,50
 426 335 426 335 387.5 383 c 128,-1,51
 349 431 349 431 278 431 c 256,52,53
 207 431 207 431 167.5 383 c 128,-1,54
 128 335 128 335 128 248 c 0,55,56
 128 159 128 159 167.5 109.5 c 128,-1,57
 207 60 207 60 278 60 c 256,58,47
 349 60 349 60 387.5 108.5 c 128,-1,48
EndSplineSet
EndChar

StartChar: Eogonek
Encoding: 217 280 219
Width: 582
GlyphClass: 2
Flags: W
AnchorPoint: "Anchor-11" 324 705 basechar 0
LayerCount: 2
Fore
SplineSet
551 -125 m 0,1,2
 560 -125 560 -125 565 -132 c 128,-1,3
 570 -139 570 -139 570 -148 c 0,4,5
 570 -166 570 -166 556 -174 c 0,6,7
 522 -193 522 -193 481 -193 c 0,8,9
 429 -193 429 -193 396.5 -163.5 c 128,-1,10
 364 -134 364 -134 364 -88 c 0,11,12
 364 -34 364 -34 404 0 c 1,13,-1
 129 0 l 2,14,15
 110 0 110 0 98.5 11 c 128,-1,16
 87 22 87 22 87 40 c 2,17,-1
 87 665 l 2,18,19
 87 683 87 683 98.5 694 c 128,-1,20
 110 705 110 705 129 705 c 2,21,-1
 503 705 l 2,22,23
 521 705 521 705 531 696 c 128,-1,24
 541 687 541 687 541 671 c 0,25,26
 541 654 541 654 531 645.5 c 128,-1,27
 521 637 521 637 503 637 c 2,28,-1
 168 637 l 1,29,-1
 168 392 l 1,30,-1
 483 392 l 2,31,32
 501 392 501 392 511 383 c 128,-1,33
 521 374 521 374 521 358 c 256,34,35
 521 342 521 342 511 333 c 128,-1,36
 501 324 501 324 483 324 c 2,37,-1
 168 324 l 1,38,-1
 168 68 l 1,39,-1
 503 68 l 2,40,41
 521 68 521 68 531 59.5 c 128,-1,42
 541 51 541 51 541 34 c 0,43,44
 541 5 541 5 508 0 c 0,45,46
 468 -4 468 -4 447.5 -24.5 c 128,-1,47
 427 -45 427 -45 427 -77 c 0,48,49
 427 -107 427 -107 444.5 -123.5 c 128,-1,50
 462 -140 462 -140 491 -140 c 0,51,52
 509 -140 509 -140 539 -128 c 0,53,0
 545 -125 545 -125 551 -125 c 0,1,2
EndSplineSet
EndChar

StartChar: eogonek
Encoding: 218 281 220
Width: 527
GlyphClass: 2
Flags: W
AnchorPoint: "Anchor-11" 276 491 basechar 0
LayerCount: 2
Fore
SplineSet
358.5 -23 m 128,-1,1
 336 -47 336 -47 336 -77 c 0,2,3
 336 -106 336 -106 353.5 -123 c 128,-1,4
 371 -140 371 -140 399 -140 c 0,5,6
 420 -140 420 -140 447 -128 c 0,7,8
 455 -125 455 -125 459 -125 c 0,9,10
 468 -125 468 -125 473.5 -131.5 c 128,-1,11
 479 -138 479 -138 479 -148 c 0,12,13
 479 -165 479 -165 464 -174 c 0,14,15
 430 -193 430 -193 390 -193 c 0,16,17
 338 -193 338 -193 305.5 -163.5 c 128,-1,18
 273 -134 273 -134 273 -88 c 0,19,20
 273 -39 273 -39 308 -7 c 1,21,-1
 290 -7 l 2,22,23
 177 -7 177 -7 111.5 60 c 128,-1,24
 46 127 46 127 46 245 c 0,25,26
 46 320 46 320 75 377.5 c 128,-1,27
 104 435 104 435 156.5 467 c 128,-1,28
 209 499 209 499 276 499 c 0,29,30
 371 499 371 499 427 437 c 128,-1,31
 483 375 483 375 483 269 c 0,32,33
 483 249 483 249 475 240 c 128,-1,34
 467 231 467 231 449 231 c 2,35,-1
 127 231 l 1,36,37
 136 59 136 59 290 59 c 0,38,39
 329 59 329 59 357 69.5 c 128,-1,40
 385 80 385 80 417 98 c 0,41,42
 443 113 443 113 452 113 c 0,43,44
 463 113 463 113 471 104 c 128,-1,45
 479 95 479 95 479 81 c 0,46,47
 479 68 479 68 469.5 56.5 c 128,-1,48
 460 45 460 45 440 34 c 0,49,0
 381 1 381 1 358.5 -23 c 128,-1,1
174.5 396 m 128,-1,51
 136 356 136 356 129 283 c 1,52,-1
 412 283 l 1,53,54
 410 357 410 357 375 396.5 c 128,-1,55
 340 436 340 436 277 436 c 0,56,50
 213 436 213 436 174.5 396 c 128,-1,51
EndSplineSet
EndChar

StartChar: Hbar
Encoding: 231 294 233
Width: 785
GlyphClass: 2
Flags: W
LayerCount: 2
Fore
SplineSet
775.5 576.5 m 128,-1,1
 785 568 785 568 785 552 c 0,2,3
 785 537 785 537 775.5 528.5 c 128,-1,4
 766 520 766 520 749 520 c 2,5,-1
 685 520 l 1,6,-1
 685 37 l 2,7,8
 685 17 685 17 673.5 6 c 128,-1,9
 662 -5 662 -5 644 -5 c 256,10,11
 626 -5 626 -5 614.5 6 c 128,-1,12
 603 17 603 17 603 37 c 2,13,-1
 603 323 l 1,14,-1
 182 323 l 1,15,-1
 182 37 l 2,16,17
 182 17 182 17 170.5 6 c 128,-1,18
 159 -5 159 -5 141 -5 c 256,19,20
 123 -5 123 -5 111.5 6 c 128,-1,21
 100 17 100 17 100 37 c 2,22,-1
 100 520 l 1,23,-1
 37 520 l 2,24,25
 20 520 20 520 10 528.5 c 128,-1,26
 0 537 0 537 0 552 c 0,27,28
 0 568 0 568 10 576.5 c 128,-1,29
 20 585 20 585 37 585 c 2,30,-1
 100 585 l 1,31,-1
 100 668 l 2,32,33
 100 687 100 687 111.5 698.5 c 128,-1,34
 123 710 123 710 141 710 c 256,35,36
 159 710 159 710 170.5 698.5 c 128,-1,37
 182 687 182 687 182 668 c 2,38,-1
 182 585 l 1,39,-1
 603 585 l 1,40,-1
 603 668 l 2,41,42
 603 687 603 687 614.5 698.5 c 128,-1,43
 626 710 626 710 644 710 c 256,44,45
 662 710 662 710 673.5 698.5 c 128,-1,46
 685 687 685 687 685 668 c 2,47,-1
 685 585 l 1,48,-1
 749 585 l 2,49,0
 766 585 766 585 775.5 576.5 c 128,-1,1
603 393 m 1,50,-1
 603 520 l 1,51,-1
 182 520 l 1,52,-1
 182 393 l 1,53,-1
 603 393 l 1,50,-1
EndSplineSet
EndChar

StartChar: hbar
Encoding: 232 295 234
Width: 568
GlyphClass: 2
Flags: W
LayerCount: 2
Fore
SplineSet
451 450.5 m 128,-1,1
 495 402 495 402 495 306 c 2,2,-1
 495 35 l 2,3,4
 495 16 495 16 484 5.5 c 128,-1,5
 473 -5 473 -5 455 -5 c 0,6,7
 436 -5 436 -5 425 5.5 c 128,-1,8
 414 16 414 16 414 35 c 2,9,-1
 414 304 l 2,10,11
 414 369 414 369 387.5 400 c 128,-1,12
 361 431 361 431 303 431 c 0,13,14
 236 431 236 431 196 390 c 128,-1,15
 156 349 156 349 156 279 c 2,16,-1
 156 35 l 2,17,18
 156 16 156 16 145.5 5.5 c 128,-1,19
 135 -5 135 -5 116 -5 c 256,20,21
 97 -5 97 -5 86 5.5 c 128,-1,22
 75 16 75 16 75 35 c 2,23,-1
 75 555 l 1,24,-1
 10 555 l 2,25,26
 -6 555 -6 555 -15.5 563 c 128,-1,27
 -25 571 -25 571 -25 585 c 256,28,29
 -25 599 -25 599 -15.5 607.5 c 128,-1,30
 -6 616 -6 616 10 616 c 2,31,-1
 75 616 l 1,32,-1
 75 671 l 2,33,34
 75 688 75 688 86.5 699 c 128,-1,35
 98 710 98 710 116 710 c 0,36,37
 135 710 135 710 145.5 699.5 c 128,-1,38
 156 689 156 689 156 671 c 2,39,-1
 156 616 l 1,40,-1
 322 616 l 2,41,42
 338 616 338 616 347 607.5 c 128,-1,43
 356 599 356 599 356 585 c 256,44,45
 356 571 356 571 347 563 c 128,-1,46
 338 555 338 555 322 555 c 2,47,-1
 156 555 l 1,48,-1
 156 409 l 1,49,50
 180 453 180 453 223 476 c 128,-1,51
 266 499 266 499 321 499 c 0,52,0
 407 499 407 499 451 450.5 c 128,-1,1
EndSplineSet
EndChar

StartChar: Iogonek
Encoding: 239 302 241
Width: 256
GlyphClass: 2
Flags: W
LayerCount: 2
Fore
SplineSet
198 -125 m 0,1,2
 207 -125 207 -125 212 -132 c 128,-1,3
 217 -139 217 -139 217 -148 c 0,4,5
 217 -155 217 -155 213 -162.5 c 128,-1,6
 209 -170 209 -170 202 -174 c 0,7,8
 168 -193 168 -193 128 -193 c 0,9,10
 76 -193 76 -193 43.5 -163.5 c 128,-1,11
 11 -134 11 -134 11 -87 c 0,12,13
 11 -51 11 -51 31 -22 c 128,-1,14
 51 7 51 7 89 24 c 1,15,16
 87 32 87 32 87 37 c 2,17,-1
 87 668 l 2,18,19
 87 687 87 687 98 698.5 c 128,-1,20
 109 710 109 710 128 710 c 256,21,22
 147 710 147 710 158 698.5 c 128,-1,23
 169 687 169 687 169 668 c 2,24,-1
 169 37 l 2,25,26
 169 23 169 23 162.5 13 c 128,-1,27
 156 3 156 3 145 0 c 0,28,29
 110 -8 110 -8 92 -28 c 128,-1,30
 74 -48 74 -48 74 -77 c 0,31,32
 74 -107 74 -107 91.5 -123.5 c 128,-1,33
 109 -140 109 -140 138 -140 c 0,34,35
 158 -140 158 -140 186 -128 c 0,36,0
 192 -125 192 -125 198 -125 c 0,1,2
EndSplineSet
EndChar

StartChar: iogonek
Encoding: 240 303 242
Width: 232
GlyphClass: 2
Flags: W
LayerCount: 2
Fore
SplineSet
77 616 m 128,-1,1
 62 630 62 630 62 653 c 0,2,3
 62 675 62 675 77 689 c 128,-1,4
 92 703 92 703 116 703 c 256,5,6
 140 703 140 703 155 689 c 128,-1,7
 170 675 170 675 170 653 c 0,8,9
 170 630 170 630 155 616 c 128,-1,10
 140 602 140 602 116 602 c 256,11,0
 92 602 92 602 77 616 c 128,-1,1
185 -125 m 0,13,14
 194 -125 194 -125 199 -132 c 128,-1,15
 204 -139 204 -139 204 -148 c 0,16,17
 204 -165 204 -165 189 -174 c 0,18,19
 155 -193 155 -193 115 -193 c 0,20,21
 63 -193 63 -193 30.5 -163.5 c 128,-1,22
 -2 -134 -2 -134 -2 -87 c 0,23,24
 -2 -51 -2 -51 18 -22 c 128,-1,25
 38 7 38 7 76 25 c 0,26,27
 75 28 75 28 75 35 c 2,28,-1
 75 457 l 2,29,30
 75 476 75 476 86.5 486.5 c 128,-1,31
 98 497 98 497 116 497 c 256,32,33
 134 497 134 497 145 486.5 c 128,-1,34
 156 476 156 476 156 457 c 2,35,-1
 156 35 l 2,36,37
 156 23 156 23 150 13.5 c 128,-1,38
 144 4 144 4 132 0 c 0,39,40
 99 -8 99 -8 80 -27.5 c 128,-1,41
 61 -47 61 -47 61 -77 c 256,42,43
 61 -107 61 -107 78.5 -123.5 c 128,-1,44
 96 -140 96 -140 125 -140 c 0,45,46
 148 -140 148 -140 173 -128 c 0,47,12
 179 -125 179 -125 185 -125 c 0,13,14
EndSplineSet
EndChar

StartChar: dotlessi
Encoding: 242 305 244
Width: 232
GlyphClass: 2
Flags: W
AnchorPoint: "Anchor-11" 116 491 basechar 0
AnchorPoint: "Anchor-10" 147 10 basechar 0
AnchorPoint: "Anchor-9" 116 0 basechar 0
LayerCount: 2
Fore
SplineSet
86.5 5.5 m 128,-1,1
 75 16 75 16 75 35 c 2,2,-1
 75 457 l 2,3,4
 75 476 75 476 86.5 486.5 c 128,-1,5
 98 497 98 497 116 497 c 256,6,7
 134 497 134 497 145 486.5 c 128,-1,8
 156 476 156 476 156 457 c 2,9,-1
 156 35 l 2,10,11
 156 15 156 15 145 5 c 128,-1,12
 134 -5 134 -5 116 -5 c 256,13,0
 98 -5 98 -5 86.5 5.5 c 128,-1,1
EndSplineSet
EndChar

StartChar: kgreenlandic
Encoding: 247 312 249
Width: 500
GlyphClass: 2
Flags: W
AnchorPoint: "Anchor-11" 250 491 basechar 0
AnchorPoint: "Anchor-9" 250 0 basechar 0
LayerCount: 2
Fore
SplineSet
480 32 m 0,1,2
 480 17 480 17 469.5 6 c 128,-1,3
 459 -5 459 -5 444 -5 c 0,4,5
 431 -5 431 -5 417 7 c 2,6,-1
 156 232 l 1,7,-1
 156 35 l 2,8,9
 156 16 156 16 144.5 5.5 c 128,-1,10
 133 -5 133 -5 116 -5 c 0,11,12
 98 -5 98 -5 86.5 5.5 c 128,-1,13
 75 16 75 16 75 35 c 2,14,-1
 75 457 l 2,15,16
 75 476 75 476 86.5 486.5 c 128,-1,17
 98 497 98 497 116 497 c 0,18,19
 133 497 133 497 144.5 486.5 c 128,-1,20
 156 476 156 476 156 457 c 2,21,-1
 156 264 l 1,22,-1
 395 483 l 2,23,24
 407 495 407 495 422 495 c 256,25,26
 437 495 437 495 448 484 c 128,-1,27
 459 473 459 473 459 458 c 0,28,29
 459 441 459 441 445 428 c 2,30,-1
 248 252 l 1,31,-1
 464 64 l 2,32,0
 480 49 480 49 480 32 c 0,1,2
EndSplineSet
EndChar

StartChar: lcaron
Encoding: 253 318 255
Width: 232
GlyphClass: 2
Flags: W
AnchorPoint: "Anchor-13" 192 705 basechar 0
AnchorPoint: "Anchor-12" 116 246 basechar 0
AnchorPoint: "Anchor-11" 116 705 basechar 0
AnchorPoint: "Anchor-9" 116 0 basechar 0
LayerCount: 2
Fore
SplineSet
225 511.5 m 128,-1,1
 219 507 219 507 212 507 c 0,2,3
 204 507 204 507 198 513 c 128,-1,4
 192 519 192 519 192 529 c 2,5,-1
 192 675 l 2,6,7
 192 692 192 692 201.5 701.5 c 128,-1,8
 211 711 211 711 224 711 c 0,9,10
 238 711 238 711 247.5 700 c 128,-1,11
 257 689 257 689 254 671 c 2,12,-1
 232 525 l 2,13,0
 231 516 231 516 225 511.5 c 128,-1,1
86.5 5.5 m 128,-1,15
 75 16 75 16 75 35 c 2,16,-1
 75 670 l 2,17,18
 75 689 75 689 86.5 699.5 c 128,-1,19
 98 710 98 710 116 710 c 0,20,21
 133 710 133 710 144.5 699.5 c 128,-1,22
 156 689 156 689 156 670 c 2,23,-1
 156 35 l 2,24,25
 156 16 156 16 144.5 5.5 c 128,-1,26
 133 -5 133 -5 116 -5 c 0,27,14
 98 -5 98 -5 86.5 5.5 c 128,-1,15
EndSplineSet
EndChar

StartChar: Lslash
Encoding: 256 321 258
Width: 553
GlyphClass: 2
Flags: W
LayerCount: 2
Fore
SplineSet
533 61 m 128,-1,1
 543 52 543 52 543 35 c 256,2,3
 543 18 543 18 533 9 c 128,-1,4
 523 0 523 0 505 0 c 2,5,-1
 140 0 l 2,6,7
 123 0 123 0 111.5 10.5 c 128,-1,8
 100 21 100 21 100 38 c 2,9,-1
 100 295 l 1,10,-1
 52 267 l 2,11,12
 42 261 42 261 32 261 c 0,13,14
 18 261 18 261 9 271 c 128,-1,15
 0 281 0 281 0 294 c 0,16,17
 0 313 0 313 19 325 c 2,18,-1
 100 371 l 1,19,-1
 100 668 l 2,20,21
 100 687 100 687 111 698.5 c 128,-1,22
 122 710 122 710 141 710 c 0,23,24
 161 710 161 710 171.5 698.5 c 128,-1,25
 182 687 182 687 182 668 c 2,26,-1
 182 418 l 1,27,-1
 326 501 l 2,28,29
 337 507 337 507 345 507 c 0,30,31
 358 507 358 507 367.5 497 c 128,-1,32
 377 487 377 487 377 474 c 0,33,34
 377 456 377 456 359 445 c 2,35,-1
 182 342 l 1,36,-1
 182 70 l 1,37,-1
 505 70 l 2,38,0
 523 70 523 70 533 61 c 128,-1,1
EndSplineSet
EndChar

StartChar: lslash
Encoding: 257 322 259
Width: 282
GlyphClass: 2
Flags: W
LayerCount: 2
Fore
SplineSet
249 452 m 0,1,2
 263 452 263 452 272.5 442 c 128,-1,3
 282 432 282 432 282 419 c 0,4,5
 282 401 282 401 263 389 c 2,6,-1
 182 342 l 1,7,-1
 182 35 l 2,8,9
 182 16 182 16 170.5 5.5 c 128,-1,10
 159 -5 159 -5 141 -5 c 0,11,12
 124 -5 124 -5 112.5 5.5 c 128,-1,13
 101 16 101 16 101 35 c 2,14,-1
 101 295 l 1,15,-1
 53 267 l 2,16,17
 42 261 42 261 33 261 c 0,18,19
 19 261 19 261 10 271 c 128,-1,20
 1 281 1 281 1 294 c 0,21,22
 1 313 1 313 20 325 c 2,23,-1
 101 372 l 1,24,-1
 101 670 l 2,25,26
 101 689 101 689 112.5 699.5 c 128,-1,27
 124 710 124 710 141 710 c 0,28,29
 159 710 159 710 170.5 699.5 c 128,-1,30
 182 689 182 689 182 670 c 2,31,-1
 182 419 l 1,32,-1
 229 446 l 2,33,0
 240 452 240 452 249 452 c 0,1,2
EndSplineSet
EndChar

StartChar: Eng
Encoding: 265 330 267
Width: 739
GlyphClass: 2
Flags: W
LayerCount: 2
Fore
SplineSet
642 698.5 m 128,-1,1
 652 687 652 687 652 668 c 2,2,-1
 652 8 l 2,3,4
 652 -84 652 -84 610.5 -130.5 c 128,-1,5
 569 -177 569 -177 483 -183 c 2,6,-1
 453 -185 l 2,7,8
 429 -186 429 -186 415.5 -177 c 128,-1,9
 402 -168 402 -168 402 -152 c 0,10,11
 402 -137 402 -137 411.5 -128 c 128,-1,12
 421 -119 421 -119 439 -118 c 2,13,-1
 469 -116 l 2,14,15
 522 -113 522 -113 548.5 -84 c 128,-1,16
 575 -55 575 -55 575 7 c 2,17,-1
 575 17 l 1,18,-1
 164 567 l 1,19,-1
 164 37 l 2,20,21
 164 18 164 18 153.5 6.5 c 128,-1,22
 143 -5 143 -5 125 -5 c 256,23,24
 107 -5 107 -5 97 6.5 c 128,-1,25
 87 18 87 18 87 37 c 2,26,-1
 87 668 l 2,27,28
 87 687 87 687 97.5 698.5 c 128,-1,29
 108 710 108 710 127 710 c 0,30,31
 149 710 149 710 161 693 c 2,32,-1
 575 138 l 1,33,-1
 575 668 l 2,34,35
 575 687 575 687 585.5 698.5 c 128,-1,36
 596 710 596 710 614 710 c 256,37,0
 632 710 632 710 642 698.5 c 128,-1,1
EndSplineSet
EndChar

StartChar: eng
Encoding: 266 331 268
Width: 568
GlyphClass: 2
Flags: W
LayerCount: 2
Fore
SplineSet
495 306 m 2,1,-1
 495 -6 l 2,2,3
 495 -91 495 -91 458 -132.5 c 128,-1,4
 421 -174 421 -174 341 -180 c 2,5,-1
 313 -182 l 2,6,7
 289 -184 289 -184 276 -176 c 128,-1,8
 263 -168 263 -168 263 -150 c 0,9,10
 263 -122 263 -122 298 -119 c 2,11,-1
 325 -117 l 2,12,13
 372 -114 372 -114 393 -89 c 128,-1,14
 414 -64 414 -64 414 -11 c 2,15,-1
 414 304 l 2,16,17
 414 369 414 369 387.5 400 c 128,-1,18
 361 431 361 431 303 431 c 0,19,20
 236 431 236 431 196 390 c 128,-1,21
 156 349 156 349 156 279 c 2,22,-1
 156 35 l 2,23,24
 156 16 156 16 145.5 5.5 c 128,-1,25
 135 -5 135 -5 116 -5 c 256,26,27
 97 -5 97 -5 86 5.5 c 128,-1,28
 75 16 75 16 75 35 c 2,29,-1
 75 457 l 2,30,31
 75 475 75 475 86 486 c 128,-1,32
 97 497 97 497 116 497 c 0,33,34
 134 497 134 497 144.5 486 c 128,-1,35
 155 475 155 475 155 458 c 2,36,-1
 155 407 l 1,37,38
 179 452 179 452 222 475.5 c 128,-1,39
 265 499 265 499 320 499 c 0,40,0
 495 499 495 499 495 306 c 2,1,-1
EndSplineSet
EndChar

StartChar: OE
Encoding: 273 338 275
Width: 1045
GlyphClass: 2
Flags: W
AnchorPoint: "Anchor-11" 530 705 basechar 0
AnchorPoint: "Anchor-9" 531 0 basechar 0
LayerCount: 2
Fore
SplineSet
153.5 92 m 128,-1,1
 61 184 61 184 61 353 c 256,2,3
 61 522 61 522 153.5 613.5 c 128,-1,4
 246 705 246 705 414 705 c 2,5,-1
 966 705 l 2,6,7
 984 705 984 705 994 696 c 128,-1,8
 1004 687 1004 687 1004 671 c 0,9,10
 1004 637 1004 637 966 637 c 2,11,-1
 630 637 l 1,12,-1
 630 392 l 1,13,-1
 946 392 l 2,14,15
 964 392 964 392 974 383 c 128,-1,16
 984 374 984 374 984 358 c 256,17,18
 984 342 984 342 974 333 c 128,-1,19
 964 324 964 324 946 324 c 2,20,-1
 630 324 l 1,21,-1
 630 68 l 1,22,-1
 966 68 l 2,23,24
 1004 68 1004 68 1004 34 c 0,25,26
 1004 18 1004 18 994 9 c 128,-1,27
 984 0 984 0 966 0 c 2,28,-1
 414 0 l 2,29,0
 246 0 246 0 153.5 92 c 128,-1,1
550 637 m 1,30,-1
 419 637 l 2,31,32
 280 637 280 637 212.5 564 c 128,-1,33
 145 491 145 491 145 353 c 0,34,35
 145 214 145 214 213 141 c 128,-1,36
 281 68 281 68 419 68 c 2,37,-1
 550 68 l 1,38,-1
 550 637 l 1,30,-1
EndSplineSet
EndChar

StartChar: oe
Encoding: 274 339 276
Width: 904
GlyphClass: 2
Flags: W
AnchorPoint: "Anchor-11" 467 491 basechar 0
AnchorPoint: "Anchor-9" 467 0 basechar 0
LayerCount: 2
Fore
SplineSet
848.5 104 m 128,-1,1
 856 95 856 95 856 81 c 0,2,3
 856 55 856 55 821 35 c 0,4,5
 785 15 785 15 745 4 c 128,-1,6
 705 -7 705 -7 669 -7 c 0,7,8
 598 -7 598 -7 547 22.5 c 128,-1,9
 496 52 496 52 468 109 c 1,10,11
 441 53 441 53 391.5 23 c 128,-1,12
 342 -7 342 -7 276 -7 c 0,13,14
 207 -7 207 -7 155 24 c 128,-1,15
 103 55 103 55 74.5 112.5 c 128,-1,16
 46 170 46 170 46 246 c 256,17,18
 46 322 46 322 74.5 379.5 c 128,-1,19
 103 437 103 437 155 468 c 128,-1,20
 207 499 207 499 276 499 c 0,21,22
 342 499 342 499 391.5 469 c 128,-1,23
 441 439 441 439 467 384 c 1,24,25
 495 439 495 439 544.5 469 c 128,-1,26
 594 499 594 499 658 499 c 0,27,28
 750 499 750 499 805 436.5 c 128,-1,29
 860 374 860 374 860 269 c 0,30,31
 860 249 860 249 851.5 240 c 128,-1,32
 843 231 843 231 825 231 c 2,33,-1
 508 231 l 1,34,35
 512 146 512 146 553 102.5 c 128,-1,36
 594 59 594 59 669 59 c 0,37,38
 708 59 708 59 736 69.5 c 128,-1,39
 764 80 764 80 794 98 c 0,40,41
 796 99 796 99 809 106 c 128,-1,42
 822 113 822 113 830 113 c 0,43,0
 841 113 841 113 848.5 104 c 128,-1,1
555.5 396 m 128,-1,45
 517 356 517 356 510 283 c 1,46,-1
 789 283 l 1,47,48
 787 357 787 357 752.5 396.5 c 128,-1,49
 718 436 718 436 657 436 c 0,50,44
 594 436 594 436 555.5 396 c 128,-1,45
386.5 107.5 m 128,-1,52
 425 155 425 155 425 246 c 0,53,54
 425 335 425 335 386 383.5 c 128,-1,55
 347 432 347 432 277 432 c 0,56,57
 206 432 206 432 167 383 c 128,-1,58
 128 334 128 334 128 246 c 0,59,60
 128 156 128 156 166.5 108 c 128,-1,61
 205 60 205 60 276 60 c 0,62,51
 348 60 348 60 386.5 107.5 c 128,-1,52
EndSplineSet
EndChar

StartChar: Scedilla
Encoding: 285 350 287
Width: 617
GlyphClass: 2
Flags: W
AnchorPoint: "Anchor-11" 309 705 basechar 0
AnchorPoint: "Anchor-9" 312 0 basechar 0
LayerCount: 2
Fore
SplineSet
541 90.5 m 128,-1,1
 511 46 511 46 456 20.5 c 128,-1,2
 401 -5 401 -5 330 -8 c 1,3,-1
 326 -44 l 1,4,5
 338 -41 338 -41 352 -41 c 0,6,7
 383 -41 383 -41 404.5 -58.5 c 128,-1,8
 426 -76 426 -76 426 -110 c 0,9,10
 426 -147 426 -147 395 -170 c 128,-1,11
 364 -193 364 -193 308 -193 c 0,12,13
 272 -193 272 -193 240 -181 c 0,14,15
 232 -178 232 -178 227.5 -171.5 c 128,-1,16
 223 -165 223 -165 223 -158 c 0,17,18
 223 -149 223 -149 229 -142.5 c 128,-1,19
 235 -136 235 -136 245 -136 c 0,20,21
 250 -136 250 -136 253 -137 c 0,22,23
 280 -145 280 -145 309 -145 c 0,24,25
 337 -145 337 -145 351.5 -136 c 128,-1,26
 366 -127 366 -127 366 -110 c 0,27,28
 366 -97 366 -97 358 -90 c 128,-1,29
 350 -83 350 -83 335 -83 c 0,30,31
 324 -83 324 -83 307 -87.5 c 128,-1,32
 290 -92 290 -92 286 -92 c 0,33,34
 278 -92 278 -92 271.5 -86.5 c 128,-1,35
 265 -81 265 -81 266 -73 c 2,36,-1
 274 -6 l 1,37,38
 210 -2 210 -2 152.5 20 c 128,-1,39
 95 42 95 42 59 75 c 0,40,41
 44 89 44 89 44 110 c 0,42,43
 44 124 44 124 52 134.5 c 128,-1,44
 60 145 60 145 71 145 c 0,45,46
 84 145 84 145 99 134 c 0,47,48
 192 62 192 62 311 62 c 0,49,50
 397 62 397 62 443 95 c 128,-1,51
 489 128 489 128 489 189 c 0,52,53
 489 224 489 224 467 245.5 c 128,-1,54
 445 267 445 267 409 280 c 128,-1,55
 373 293 373 293 312 307 c 0,56,57
 230 326 230 326 177.5 347 c 128,-1,58
 125 368 125 368 92.5 407 c 128,-1,59
 60 446 60 446 60 509 c 0,60,61
 60 569 60 569 92.5 615.5 c 128,-1,62
 125 662 125 662 183.5 687.5 c 128,-1,63
 242 713 242 713 317 713 c 0,64,65
 387 713 387 713 447.5 691.5 c 128,-1,66
 508 670 508 670 549 630 c 0,67,68
 565 614 565 614 565 595 c 0,69,70
 565 581 565 581 557 570.5 c 128,-1,71
 549 560 549 560 538 560 c 256,72,73
 527 560 527 560 509 571 c 0,74,75
 460 611 460 611 418 627 c 128,-1,76
 376 643 376 643 317 643 c 0,77,78
 234 643 234 643 188 608.5 c 128,-1,79
 142 574 142 574 142 512 c 0,80,81
 142 459 142 459 182.5 432.5 c 128,-1,82
 223 406 223 406 307 386 c 0,83,84
 398 364 398 364 450 345.5 c 128,-1,85
 502 327 502 327 536.5 290 c 128,-1,86
 571 253 571 253 571 191 c 0,87,0
 571 135 571 135 541 90.5 c 128,-1,1
EndSplineSet
Substitution2: "'locl' Localized Forms in Latin lookup 8 subtable" uni0218
Substitution2: "'locl' Localized Forms in Latin lookup 7 subtable" uni0218
Substitution2: "'aalt' Access All Alternates lookup 0 subtable" uni0218
EndChar

StartChar: scedilla
Encoding: 286 351 288
Width: 480
GlyphClass: 2
Flags: W
AnchorPoint: "Anchor-11" 249 491 basechar 0
AnchorPoint: "Anchor-9" 239 0 basechar 0
LayerCount: 2
Fore
SplineSet
384.5 35.5 m 128,-1,1
 337 -2 337 -2 257 -7 c 1,2,-1
 253 -44 l 1,3,4
 265 -41 265 -41 279 -41 c 0,5,6
 310 -41 310 -41 331.5 -58.5 c 128,-1,7
 353 -76 353 -76 353 -110 c 0,8,9
 353 -147 353 -147 322 -170 c 128,-1,10
 291 -193 291 -193 235 -193 c 0,11,12
 199 -193 199 -193 167 -181 c 0,13,14
 159 -178 159 -178 154.5 -171.5 c 128,-1,15
 150 -165 150 -165 150 -158 c 0,16,17
 150 -149 150 -149 156 -142.5 c 128,-1,18
 162 -136 162 -136 172 -136 c 0,19,20
 177 -136 177 -136 180 -137 c 0,21,22
 207 -145 207 -145 236 -145 c 0,23,24
 264 -145 264 -145 278.5 -136 c 128,-1,25
 293 -127 293 -127 293 -110 c 0,26,27
 293 -97 293 -97 285 -90 c 128,-1,28
 277 -83 277 -83 262 -83 c 0,29,30
 251 -83 251 -83 234 -87.5 c 128,-1,31
 217 -92 217 -92 213 -92 c 0,32,33
 205 -92 205 -92 198.5 -86.5 c 128,-1,34
 192 -81 192 -81 193 -73 c 2,35,-1
 201 -5 l 1,36,37
 129 3 129 3 78 35 c 0,38,39
 60 47 60 47 52.5 57.5 c 128,-1,40
 45 68 45 68 45 83 c 0,41,42
 45 96 45 96 52.5 104.5 c 128,-1,43
 60 113 60 113 72 113 c 256,44,45
 84 113 84 113 107 98 c 0,46,47
 137 80 137 80 166.5 69.5 c 128,-1,48
 196 59 196 59 240 59 c 0,49,50
 294 59 294 59 324 78 c 128,-1,51
 354 97 354 97 354 133 c 0,52,53
 354 155 354 155 343 168.5 c 128,-1,54
 332 182 332 182 305 192.5 c 128,-1,55
 278 203 278 203 226 214 c 0,56,57
 138 233 138 233 100 265 c 128,-1,58
 62 297 62 297 62 352 c 0,59,60
 62 395 62 395 86 428 c 128,-1,61
 110 461 110 461 152.5 480 c 128,-1,62
 195 499 195 499 249 499 c 0,63,64
 288 499 288 499 324.5 488.5 c 128,-1,65
 361 478 361 478 389 459 c 0,66,67
 423 435 423 435 423 409 c 0,68,69
 423 396 423 396 415 387 c 128,-1,70
 407 378 407 378 396 378 c 0,71,72
 384 378 384 378 360 395 c 0,73,74
 332 413 332 413 307 423 c 128,-1,75
 282 433 282 433 245 433 c 0,76,77
 198 433 198 433 169.5 412 c 128,-1,78
 141 391 141 391 141 356 c 0,79,80
 141 334 141 334 151.5 320.5 c 128,-1,81
 162 307 162 307 186.5 296.5 c 128,-1,82
 211 286 211 286 257 276 c 0,83,84
 325 261 325 261 362.5 243 c 128,-1,85
 400 225 400 225 416 199 c 128,-1,86
 432 173 432 173 432 133 c 0,87,0
 432 73 432 73 384.5 35.5 c 128,-1,1
EndSplineSet
Substitution2: "'locl' Localized Forms in Latin lookup 8 subtable" uni0219
Substitution2: "'locl' Localized Forms in Latin lookup 7 subtable" uni0219
Substitution2: "'aalt' Access All Alternates lookup 0 subtable" uni0219
EndChar

StartChar: uni0162
Encoding: 289 354 291
Width: 598
GlyphClass: 2
Flags: W
AnchorPoint: "Anchor-12" 299 353 basechar 0
AnchorPoint: "Anchor-11" 299 705 basechar 0
AnchorPoint: "Anchor-9" 299 0 basechar 0
LayerCount: 2
Fore
SplineSet
583 696 m 128,-1,1
 593 687 593 687 593 670 c 256,2,3
 593 653 593 653 583 644 c 128,-1,4
 573 635 573 635 555 635 c 2,5,-1
 340 635 l 1,6,-1
 340 37 l 2,7,8
 340 13 340 13 323 2 c 1,9,-1
 317 -44 l 1,10,11
 329 -41 329 -41 344 -41 c 0,12,13
 374 -41 374 -41 396 -58.5 c 128,-1,14
 418 -76 418 -76 418 -110 c 0,15,16
 418 -146 418 -146 386.5 -169.5 c 128,-1,17
 355 -193 355 -193 299 -193 c 0,18,19
 263 -193 263 -193 231 -181 c 0,20,21
 223 -178 223 -178 218.5 -171.5 c 128,-1,22
 214 -165 214 -165 214 -158 c 0,23,24
 214 -149 214 -149 220 -142.5 c 128,-1,25
 226 -136 226 -136 236 -136 c 0,26,27
 241 -136 241 -136 244 -137 c 0,28,29
 271 -145 271 -145 300 -145 c 0,30,31
 328 -145 328 -145 342.5 -136 c 128,-1,32
 357 -127 357 -127 357 -110 c 0,33,34
 357 -97 357 -97 349 -90 c 128,-1,35
 341 -83 341 -83 327 -83 c 0,36,37
 315 -83 315 -83 298 -87.5 c 128,-1,38
 281 -92 281 -92 277 -92 c 0,39,40
 269 -92 269 -92 263 -86.5 c 128,-1,41
 257 -81 257 -81 258 -73 c 2,42,-1
 267 8 l 1,43,44
 257 19 257 19 257 37 c 2,45,-1
 257 635 l 1,46,-1
 42 635 l 2,47,48
 24 635 24 635 14 644 c 128,-1,49
 4 653 4 653 4 670 c 256,50,51
 4 687 4 687 14 696 c 128,-1,52
 24 705 24 705 42 705 c 2,53,-1
 555 705 l 2,54,0
 573 705 573 705 583 696 c 128,-1,1
EndSplineSet
Substitution2: "'locl' Localized Forms in Latin lookup 8 subtable" uni021A
Substitution2: "'locl' Localized Forms in Latin lookup 7 subtable" uni021A
Substitution2: "'aalt' Access All Alternates lookup 0 subtable" uni021A
EndChar

StartChar: uni0163
Encoding: 290 355 292
Width: 340
GlyphClass: 2
Flags: W
AnchorPoint: "Anchor-13" 238 705 basechar 0
AnchorPoint: "Anchor-12" 164 246 basechar 0
AnchorPoint: "Anchor-11" 143 635 basechar 0
AnchorPoint: "Anchor-9" 219 0 basechar 0
LayerCount: 2
Fore
SplineSet
311.5 -58.5 m 128,-1,1
 333 -76 333 -76 333 -110 c 0,2,3
 333 -147 333 -147 302 -170 c 128,-1,4
 271 -193 271 -193 215 -193 c 0,5,6
 179 -193 179 -193 147 -181 c 0,7,8
 139 -178 139 -178 134.5 -171.5 c 128,-1,9
 130 -165 130 -165 130 -158 c 0,10,11
 130 -149 130 -149 136 -142.5 c 128,-1,12
 142 -136 142 -136 152 -136 c 0,13,14
 157 -136 157 -136 160 -137 c 0,15,16
 187 -145 187 -145 216 -145 c 0,17,18
 244 -145 244 -145 258.5 -136 c 128,-1,19
 273 -127 273 -127 273 -110 c 0,20,21
 273 -97 273 -97 265 -90 c 128,-1,22
 257 -83 257 -83 242 -83 c 0,23,24
 231 -83 231 -83 214 -87.5 c 128,-1,25
 197 -92 197 -92 193 -92 c 0,26,27
 185 -92 185 -92 178.5 -86.5 c 128,-1,28
 172 -81 172 -81 173 -73 c 2,29,-1
 183 14 l 1,30,31
 142 33 142 33 122 71.5 c 128,-1,32
 102 110 102 110 102 172 c 2,33,-1
 102 423 l 1,34,-1
 35 423 l 2,35,36
 18 423 18 423 8.5 431.5 c 128,-1,37
 -1 440 -1 440 -1 454 c 0,38,39
 -1 469 -1 469 8.5 478 c 128,-1,40
 18 487 18 487 35 487 c 2,41,-1
 102 487 l 1,42,-1
 102 600 l 2,43,44
 102 619 102 619 113 629.5 c 128,-1,45
 124 640 124 640 143 640 c 0,46,47
 161 640 161 640 172 629.5 c 128,-1,48
 183 619 183 619 183 600 c 2,49,-1
 183 487 l 1,50,-1
 294 487 l 2,51,52
 310 487 310 487 319.5 478 c 128,-1,53
 329 469 329 469 329 454 c 0,54,55
 329 440 329 440 319.5 431.5 c 128,-1,56
 310 423 310 423 294 423 c 2,57,-1
 183 423 l 1,58,-1
 183 168 l 2,59,60
 183 113 183 113 205.5 88.5 c 128,-1,61
 228 64 228 64 273 61 c 2,62,-1
 300 59 l 2,63,64
 335 56 335 56 335 27 c 0,65,66
 335 10 335 10 322.5 1.5 c 128,-1,67
 310 -7 310 -7 285 -5 c 2,68,-1
 258 -3 l 1,69,-1
 238 -1 l 1,70,-1
 233 -44 l 1,71,72
 245 -41 245 -41 259 -41 c 0,73,0
 290 -41 290 -41 311.5 -58.5 c 128,-1,1
EndSplineSet
Substitution2: "'locl' Localized Forms in Latin lookup 8 subtable" uni021B
Substitution2: "'locl' Localized Forms in Latin lookup 7 subtable" uni021B
Substitution2: "'aalt' Access All Alternates lookup 0 subtable" uni021B
EndChar

StartChar: tcaron
Encoding: 292 357 294
Width: 340
GlyphClass: 2
Flags: W
AnchorPoint: "Anchor-13" 238 705 basechar 0
AnchorPoint: "Anchor-12" 164 246 basechar 0
AnchorPoint: "Anchor-11" 143 635 basechar 0
AnchorPoint: "Anchor-9" 219 0 basechar 0
LayerCount: 2
Fore
SplineSet
274.5 532 m 128,-1,1
 268 528 268 528 260 528 c 0,2,3
 250 528 250 528 243 533.5 c 128,-1,4
 236 539 236 539 236 548 c 2,5,-1
 236 676 l 2,6,7
 236 693 236 693 247 702 c 128,-1,8
 258 711 258 711 274 711 c 0,9,10
 289 711 289 711 300 702.5 c 128,-1,11
 311 694 311 694 311 680 c 0,12,13
 311 674 311 674 310 671 c 2,14,-1
 283 544 l 2,15,0
 281 536 281 536 274.5 532 c 128,-1,1
335 27 m 0,17,18
 335 10 335 10 322.5 1.5 c 128,-1,19
 310 -7 310 -7 285 -5 c 2,20,-1
 258 -3 l 2,21,22
 178 3 178 3 140 45 c 128,-1,23
 102 87 102 87 102 172 c 2,24,-1
 102 423 l 1,25,-1
 35 423 l 2,26,27
 18 423 18 423 8.5 431.5 c 128,-1,28
 -1 440 -1 440 -1 454 c 0,29,30
 -1 469 -1 469 8.5 478 c 128,-1,31
 18 487 18 487 35 487 c 2,32,-1
 102 487 l 1,33,-1
 102 600 l 2,34,35
 102 619 102 619 113 629.5 c 128,-1,36
 124 640 124 640 143 640 c 0,37,38
 161 640 161 640 172 629.5 c 128,-1,39
 183 619 183 619 183 600 c 2,40,-1
 183 487 l 1,41,-1
 294 487 l 2,42,43
 310 487 310 487 319.5 478 c 128,-1,44
 329 469 329 469 329 454 c 0,45,46
 329 440 329 440 319.5 431.5 c 128,-1,47
 310 423 310 423 294 423 c 2,48,-1
 183 423 l 1,49,-1
 183 168 l 2,50,51
 183 113 183 113 205.5 88.5 c 128,-1,52
 228 64 228 64 273 61 c 2,53,-1
 300 59 l 2,54,16
 335 56 335 56 335 27 c 0,17,18
EndSplineSet
EndChar

StartChar: Tbar
Encoding: 293 358 295
Width: 598
GlyphClass: 2
Flags: W
LayerCount: 2
Fore
SplineSet
583 696 m 128,-1,1
 593 687 593 687 593 670 c 256,2,3
 593 653 593 653 583 644 c 128,-1,4
 573 635 573 635 555 635 c 2,5,-1
 340 635 l 1,6,-1
 340 391 l 1,7,-1
 454 391 l 2,8,9
 471 391 471 391 480.5 382 c 128,-1,10
 490 373 490 373 490 357 c 256,11,12
 490 341 490 341 480.5 332.5 c 128,-1,13
 471 324 471 324 454 324 c 2,14,-1
 340 324 l 1,15,-1
 340 37 l 2,16,17
 340 18 340 18 329 6.5 c 128,-1,18
 318 -5 318 -5 299 -5 c 256,19,20
 280 -5 280 -5 268.5 6.5 c 128,-1,21
 257 18 257 18 257 37 c 2,22,-1
 257 324 l 1,23,-1
 145 324 l 2,24,25
 128 324 128 324 117.5 332.5 c 128,-1,26
 107 341 107 341 107 357 c 256,27,28
 107 373 107 373 117 382 c 128,-1,29
 127 391 127 391 145 391 c 2,30,-1
 257 391 l 1,31,-1
 257 635 l 1,32,-1
 42 635 l 2,33,34
 24 635 24 635 14 644 c 128,-1,35
 4 653 4 653 4 670 c 256,36,37
 4 687 4 687 14 696 c 128,-1,38
 24 705 24 705 42 705 c 2,39,-1
 555 705 l 2,40,0
 573 705 573 705 583 696 c 128,-1,1
EndSplineSet
EndChar

StartChar: tbar
Encoding: 294 359 296
Width: 350
GlyphClass: 2
Flags: W
LayerCount: 2
Fore
SplineSet
340 27 m 0,1,2
 340 10 340 10 327.5 1.5 c 128,-1,3
 315 -7 315 -7 290 -5 c 2,4,-1
 263 -3 l 2,5,6
 183 3 183 3 145 45 c 128,-1,7
 107 87 107 87 107 172 c 2,8,-1
 107 250 l 1,9,-1
 58 250 l 2,10,11
 42 250 42 250 33 258 c 128,-1,12
 24 266 24 266 24 280 c 256,13,14
 24 294 24 294 33 302.5 c 128,-1,15
 42 311 42 311 58 311 c 2,16,-1
 107 311 l 1,17,-1
 107 423 l 1,18,-1
 40 423 l 2,19,20
 23 423 23 423 13.5 431.5 c 128,-1,21
 4 440 4 440 4 454 c 0,22,23
 4 469 4 469 13.5 478 c 128,-1,24
 23 487 23 487 40 487 c 2,25,-1
 107 487 l 1,26,-1
 107 600 l 2,27,28
 107 619 107 619 118 629.5 c 128,-1,29
 129 640 129 640 148 640 c 0,30,31
 166 640 166 640 177 629.5 c 128,-1,32
 188 619 188 619 188 600 c 2,33,-1
 188 487 l 1,34,-1
 299 487 l 2,35,36
 315 487 315 487 324.5 478 c 128,-1,37
 334 469 334 469 334 454 c 0,38,39
 334 440 334 440 324.5 431.5 c 128,-1,40
 315 423 315 423 299 423 c 2,41,-1
 188 423 l 1,42,-1
 188 311 l 1,43,-1
 280 311 l 2,44,45
 296 311 296 311 305 302.5 c 128,-1,46
 314 294 314 294 314 280 c 256,47,48
 314 266 314 266 305 258 c 128,-1,49
 296 250 296 250 280 250 c 2,50,-1
 188 250 l 1,51,-1
 188 168 l 2,52,53
 188 113 188 113 210.5 88.5 c 128,-1,54
 233 64 233 64 278 61 c 2,55,-1
 305 59 l 2,56,0
 340 56 340 56 340 27 c 0,1,2
EndSplineSet
EndChar

StartChar: Uogonek
Encoding: 305 370 307
Width: 724
GlyphClass: 2
Flags: W
LayerCount: 2
Fore
SplineSet
631 698.5 m 128,-1,1
 642 687 642 687 642 668 c 2,2,-1
 642 276 l 2,3,4
 642 57 642 57 473 7 c 0,5,6
 431 -6 431 -6 411 -26.5 c 128,-1,7
 391 -47 391 -47 391 -77 c 0,8,9
 391 -106 391 -106 408 -123 c 128,-1,10
 425 -140 425 -140 454 -140 c 0,11,12
 478 -140 478 -140 502 -128 c 0,13,14
 506 -126 506 -126 513 -126 c 0,15,16
 522 -126 522 -126 528 -133 c 128,-1,17
 534 -140 534 -140 534 -149 c 0,18,19
 534 -166 534 -166 519 -174 c 0,20,21
 483 -193 483 -193 445 -193 c 0,22,23
 393 -193 393 -193 360.5 -163.5 c 128,-1,24
 328 -134 328 -134 328 -88 c 0,25,26
 328 -38 328 -38 364 -8 c 1,27,-1
 362 -8 l 2,28,29
 224 -8 224 -8 153 64 c 128,-1,30
 82 136 82 136 82 276 c 2,31,-1
 82 668 l 2,32,33
 82 687 82 687 93 698.5 c 128,-1,34
 104 710 104 710 123 710 c 0,35,36
 141 710 141 710 152 698.5 c 128,-1,37
 163 687 163 687 163 668 c 2,38,-1
 163 269 l 2,39,40
 163 166 163 166 213.5 114 c 128,-1,41
 264 62 264 62 362 62 c 256,42,43
 460 62 460 62 510 114 c 128,-1,44
 560 166 560 166 560 269 c 2,45,-1
 560 668 l 2,46,47
 560 687 560 687 571.5 698.5 c 128,-1,48
 583 710 583 710 601 710 c 0,49,0
 620 710 620 710 631 698.5 c 128,-1,1
EndSplineSet
EndChar

StartChar: uogonek
Encoding: 306 371 308
Width: 561
GlyphClass: 2
Flags: W
LayerCount: 2
Fore
SplineSet
513 -126 m 0,1,2
 522 -126 522 -126 528 -133 c 128,-1,3
 534 -140 534 -140 534 -149 c 0,4,5
 534 -165 534 -165 519 -174 c 0,6,7
 483 -193 483 -193 444 -193 c 0,8,9
 392 -193 392 -193 359.5 -163.5 c 128,-1,10
 327 -134 327 -134 327 -87 c 0,11,12
 327 -50 327 -50 348 -21.5 c 128,-1,13
 369 7 369 7 407 24 c 1,14,15
 406 26 406 26 406 33 c 2,16,-1
 406 83 l 1,17,18
 383 39 383 39 341.5 16 c 128,-1,19
 300 -7 300 -7 248 -7 c 0,20,21
 161 -7 161 -7 117 41.5 c 128,-1,22
 73 90 73 90 73 185 c 2,23,-1
 73 457 l 2,24,25
 73 475 73 475 84 486 c 128,-1,26
 95 497 95 497 114 497 c 256,27,28
 133 497 133 497 143.5 486 c 128,-1,29
 154 475 154 475 154 457 c 2,30,-1
 154 187 l 2,31,32
 154 122 154 122 180 91.5 c 128,-1,33
 206 61 206 61 262 61 c 0,34,35
 326 61 326 61 365 102.5 c 128,-1,36
 404 144 404 144 404 212 c 2,37,-1
 404 457 l 2,38,39
 404 475 404 475 415 486 c 128,-1,40
 426 497 426 497 445 497 c 256,41,42
 464 497 464 497 474.5 486 c 128,-1,43
 485 475 485 475 485 457 c 2,44,-1
 485 33 l 2,45,46
 485 19 485 19 478.5 10 c 128,-1,47
 472 1 472 1 460 -2 c 0,48,49
 390 -19 390 -19 390 -77 c 0,50,51
 390 -106 390 -106 407.5 -123 c 128,-1,52
 425 -140 425 -140 454 -140 c 0,53,54
 477 -140 477 -140 502 -128 c 0,55,0
 506 -126 506 -126 513 -126 c 0,1,2
EndSplineSet
EndChar

StartChar: uni018F
Encoding: 318 399 320
Width: 742
GlyphClass: 2
Flags: W
AnchorPoint: "Anchor-11" 371 705 basechar 0
AnchorPoint: "Anchor-9" 371 0 basechar 0
LayerCount: 2
Fore
SplineSet
526 669.5 m 128,-1,1
 601 626 601 626 641 545 c 128,-1,2
 681 464 681 464 681 353 c 0,3,4
 681 244 681 244 643 162.5 c 128,-1,5
 605 81 605 81 535.5 36.5 c 128,-1,6
 466 -8 466 -8 372 -8 c 0,7,8
 277 -8 277 -8 207 35 c 128,-1,9
 137 78 137 78 99 157.5 c 128,-1,10
 61 237 61 237 61 346 c 0,11,12
 61 368 61 368 72.5 380 c 128,-1,13
 84 392 84 392 106 392 c 2,14,-1
 597 392 l 1,15,16
 587 513 587 513 522.5 578 c 128,-1,17
 458 643 458 643 347 643 c 0,18,19
 291 643 291 643 247 627.5 c 128,-1,20
 203 612 203 612 147 571 c 0,21,22
 131 560 131 560 119 560 c 0,23,24
 108 560 108 560 100 570.5 c 128,-1,25
 92 581 92 581 92 595 c 0,26,27
 92 615 92 615 108 630 c 0,28,29
 153 671 153 671 215.5 692 c 128,-1,30
 278 713 278 713 349 713 c 0,31,0
 451 713 451 713 526 669.5 c 128,-1,1
532.5 130 m 128,-1,33
 591 198 591 198 597 323 c 1,34,-1
 145 323 l 1,35,36
 151 198 151 198 210.5 130 c 128,-1,37
 270 62 270 62 372 62 c 256,38,32
 474 62 474 62 532.5 130 c 128,-1,33
EndSplineSet
EndChar

StartChar: florin
Encoding: 319 402 321
Width: 600
GlyphClass: 2
Flags: W
LayerCount: 2
Fore
SplineSet
556 700 m 128,-1,1
 566 691 566 691 566 678 c 0,2,3
 566 664 566 664 554.5 653.5 c 128,-1,4
 543 643 543 643 524 643 c 2,5,-1
 508 643 l 2,6,7
 464 643 464 643 437.5 619.5 c 128,-1,8
 411 596 411 596 400 542 c 2,9,-1
 389 488 l 1,10,-1
 490 488 l 2,11,12
 503 488 503 488 511.5 480 c 128,-1,13
 520 472 520 472 520 459 c 256,14,15
 520 446 520 446 511.5 438 c 128,-1,16
 503 430 503 430 490 430 c 2,17,-1
 376 430 l 1,18,-1
 280 -22 l 2,19,20
 262 -104 262 -104 214 -144.5 c 128,-1,21
 166 -185 166 -185 92 -185 c 2,22,-1
 73 -185 l 2,23,24
 55 -185 55 -185 44.5 -175.5 c 128,-1,25
 34 -166 34 -166 34 -153 c 0,26,27
 34 -139 34 -139 45 -129 c 128,-1,28
 56 -119 56 -119 75 -119 c 2,29,-1
 91 -119 l 2,30,31
 135 -119 135 -119 162 -95 c 128,-1,32
 189 -71 189 -71 199 -18 c 2,33,-1
 295 430 l 1,34,-1
 196 430 l 2,35,36
 183 430 183 430 174.5 438 c 128,-1,37
 166 446 166 446 166 459 c 256,38,39
 166 472 166 472 174.5 480 c 128,-1,40
 183 488 183 488 196 488 c 2,41,-1
 308 488 l 1,42,-1
 320 546 l 2,43,44
 337 628 337 628 385 668.5 c 128,-1,45
 433 709 433 709 507 709 c 2,46,-1
 527 709 l 2,47,0
 546 709 546 709 556 700 c 128,-1,1
EndSplineSet
EndChar

StartChar: Ohorn
Encoding: 320 416 322
Width: 764
GlyphClass: 2
Flags: W
AnchorPoint: "Anchor-11" 382 705 basechar 0
AnchorPoint: "Anchor-9" 383 0 basechar 0
LayerCount: 2
Fore
SplineSet
669.5 533.5 m 128,-1,1
 703 456 703 456 703 353 c 0,2,3
 703 243 703 243 664 161.5 c 128,-1,4
 625 80 625 80 552.5 36 c 128,-1,5
 480 -8 480 -8 382 -8 c 256,6,7
 284 -8 284 -8 211.5 36 c 128,-1,8
 139 80 139 80 100 161 c 128,-1,9
 61 242 61 242 61 352 c 0,10,11
 61 463 61 463 100 544.5 c 128,-1,12
 139 626 139 626 212 669.5 c 128,-1,13
 285 713 285 713 385 713 c 0,14,15
 412 713 412 713 458 709 c 0,16,17
 502 705 502 705 521 705 c 0,18,19
 580 705 580 705 603 725.5 c 128,-1,20
 626 746 626 746 629 803 c 0,21,22
 632 849 632 849 668 849 c 0,23,24
 686 849 686 849 694.5 837.5 c 128,-1,25
 703 826 703 826 703 801 c 0,26,27
 703 740 703 740 668 701 c 128,-1,28
 633 662 633 662 571 655 c 1,29,0
 636 611 636 611 669.5 533.5 c 128,-1,1
556.5 137.5 m 128,-1,31
 619 213 619 213 619 353 c 256,32,33
 619 493 619 493 557 568 c 128,-1,34
 495 643 495 643 382 643 c 0,35,36
 270 643 270 643 207.5 567.5 c 128,-1,37
 145 492 145 492 145 353 c 256,38,39
 145 214 145 214 207.5 138 c 128,-1,40
 270 62 270 62 382 62 c 256,41,30
 494 62 494 62 556.5 137.5 c 128,-1,31
EndSplineSet
EndChar

StartChar: ohorn
Encoding: 321 417 323
Width: 555
GlyphClass: 2
Flags: W
AnchorPoint: "Anchor-11" 277 491 basechar 0
AnchorPoint: "Anchor-9" 277 0 basechar 0
LayerCount: 2
Fore
SplineSet
486 366.5 m 128,-1,1
 509 313 509 313 509 246 c 0,2,3
 509 170 509 170 480.5 112.5 c 128,-1,4
 452 55 452 55 399 24 c 128,-1,5
 346 -7 346 -7 277 -7 c 256,6,7
 208 -7 208 -7 155.5 24 c 128,-1,8
 103 55 103 55 74.5 112.5 c 128,-1,9
 46 170 46 170 46 246 c 256,10,11
 46 322 46 322 74.5 379.5 c 128,-1,12
 103 437 103 437 155.5 468 c 128,-1,13
 208 499 208 499 277 499 c 0,14,15
 288 499 288 499 302 497.5 c 128,-1,16
 316 496 316 496 322 496 c 0,17,18
 342 494 342 494 349 494 c 0,19,20
 393 494 393 494 414 515 c 128,-1,21
 435 536 435 536 438 585 c 0,22,23
 441 623 441 623 478 623 c 0,24,25
 495 623 495 623 503.5 613.5 c 128,-1,26
 512 604 512 604 512 582 c 0,27,28
 512 535 512 535 488 501 c 128,-1,29
 464 467 464 467 421 452 c 1,30,0
 463 420 463 420 486 366.5 c 128,-1,1
387.5 107.5 m 128,-1,32
 426 155 426 155 426 246 c 0,33,34
 426 335 426 335 387 383.5 c 128,-1,35
 348 432 348 432 277 432 c 256,36,37
 206 432 206 432 167 383.5 c 128,-1,38
 128 335 128 335 128 246 c 0,39,40
 128 156 128 156 166.5 108 c 128,-1,41
 205 60 205 60 277 60 c 256,42,31
 349 60 349 60 387.5 107.5 c 128,-1,32
EndSplineSet
EndChar

StartChar: Uhorn
Encoding: 322 431 324
Width: 724
GlyphClass: 2
Flags: W
AnchorPoint: "Anchor-11" 362 705 basechar 0
AnchorPoint: "Anchor-9" 362 0 basechar 0
LayerCount: 2
Fore
SplineSet
727 703 m 128,-1,1
 695 665 695 665 642 659 c 1,2,-1
 642 276 l 2,3,4
 642 137 642 137 570.5 64.5 c 128,-1,5
 499 -8 499 -8 362 -8 c 0,6,7
 224 -8 224 -8 153 64 c 128,-1,8
 82 136 82 136 82 276 c 2,9,-1
 82 668 l 2,10,11
 82 687 82 687 93 698.5 c 128,-1,12
 104 710 104 710 123 710 c 0,13,14
 141 710 141 710 152 698.5 c 128,-1,15
 163 687 163 687 163 668 c 2,16,-1
 163 269 l 2,17,18
 163 166 163 166 213.5 114 c 128,-1,19
 264 62 264 62 362 62 c 256,20,21
 460 62 460 62 510 114 c 128,-1,22
 560 166 560 166 560 269 c 2,23,-1
 560 668 l 2,24,25
 560 686 560 686 571.5 698 c 128,-1,26
 583 710 583 710 600 710 c 0,27,28
 644 711 644 711 663 730.5 c 128,-1,29
 682 750 682 750 685 800 c 0,30,31
 688 841 688 841 724 841 c 0,32,33
 759 841 759 841 759 797 c 0,34,0
 759 741 759 741 727 703 c 128,-1,1
EndSplineSet
EndChar

StartChar: uhorn
Encoding: 323 432 325
Width: 575
GlyphClass: 2
Flags: W
AnchorPoint: "Anchor-11" 280 491 basechar 0
AnchorPoint: "Anchor-9" 280 0 basechar 0
LayerCount: 2
Fore
SplineSet
570.5 489.5 m 128,-1,1
 538 452 538 452 485 446 c 1,2,-1
 485 34 l 2,3,4
 485 17 485 17 474.5 6 c 128,-1,5
 464 -5 464 -5 445 -5 c 0,6,7
 427 -5 427 -5 416.5 5.5 c 128,-1,8
 406 16 406 16 406 33 c 2,9,-1
 406 83 l 1,10,11
 383 39 383 39 341.5 16 c 128,-1,12
 300 -7 300 -7 248 -7 c 0,13,14
 161 -7 161 -7 117 41.5 c 128,-1,15
 73 90 73 90 73 185 c 2,16,-1
 73 457 l 2,17,18
 73 475 73 475 84 486 c 128,-1,19
 95 497 95 497 114 497 c 256,20,21
 133 497 133 497 143.5 486 c 128,-1,22
 154 475 154 475 154 457 c 2,23,-1
 154 187 l 2,24,25
 154 122 154 122 180 91.5 c 128,-1,26
 206 61 206 61 262 61 c 0,27,28
 326 61 326 61 365 102.5 c 128,-1,29
 404 144 404 144 404 212 c 2,30,-1
 404 457 l 2,31,32
 404 494 404 494 444 497 c 0,33,34
 487 497 487 497 506 517 c 128,-1,35
 525 537 525 537 528 585 c 0,36,37
 532 623 532 623 568 623 c 0,38,39
 586 623 586 623 594.5 613.5 c 128,-1,40
 603 604 603 604 603 582 c 0,41,0
 603 527 603 527 570.5 489.5 c 128,-1,1
EndSplineSet
EndChar

StartChar: uni01C7
Encoding: 327 455 329
Width: 865
GlyphClass: 2
Flags: W
LayerCount: 2
Fore
SplineSet
98.5 10.5 m 128,-1,1
 87 21 87 21 87 38 c 2,2,-1
 87 668 l 2,3,4
 87 687 87 687 98 698.5 c 128,-1,5
 109 710 109 710 128 710 c 256,6,7
 147 710 147 710 158 698.5 c 128,-1,8
 169 687 169 687 169 668 c 2,9,-1
 169 70 l 1,10,-1
 462 70 l 2,11,12
 480 70 480 70 490 61 c 128,-1,13
 500 52 500 52 500 35 c 256,14,15
 500 18 500 18 490 9 c 128,-1,16
 480 0 480 0 462 0 c 2,17,-1
 127 0 l 2,18,0
 110 0 110 0 98.5 10.5 c 128,-1,1
541 2 m 128,-1,20
 528 11 528 11 528 29 c 0,21,22
 528 62 528 62 565 63 c 2,23,-1
 595 65 l 2,24,25
 647 69 647 69 671.5 97 c 128,-1,26
 696 125 696 125 696 188 c 2,27,-1
 696 668 l 2,28,29
 696 687 696 687 708 698.5 c 128,-1,30
 720 710 720 710 737 710 c 0,31,32
 756 710 756 710 767.5 698.5 c 128,-1,33
 779 687 779 687 779 668 c 2,34,-1
 779 187 l 2,35,36
 779 95 779 95 737 48.5 c 128,-1,37
 695 2 695 2 609 -3 c 2,38,-1
 579 -5 l 2,39,19
 554 -7 554 -7 541 2 c 128,-1,20
EndSplineSet
EndChar

StartChar: uni01E5
Encoding: 335 485 337
Width: 586
GlyphClass: 2
Flags: W
LayerCount: 2
Fore
SplineSet
571 -18.5 m 128,-1,1
 581 -26 581 -26 581 -39 c 0,2,3
 581 -51 581 -51 570.5 -58.5 c 128,-1,4
 560 -66 560 -66 544 -66 c 2,5,-1
 496 -66 l 1,6,7
 475 -130 475 -130 422.5 -163.5 c 128,-1,8
 370 -197 370 -197 289 -197 c 0,9,10
 234 -197 234 -197 191.5 -185.5 c 128,-1,11
 149 -174 149 -174 113 -152 c 0,12,13
 75 -128 75 -128 75 -104 c 0,14,15
 75 -91 75 -91 82 -83.5 c 128,-1,16
 89 -76 89 -76 101 -76 c 0,17,18
 108 -76 108 -76 118.5 -80.5 c 128,-1,19
 129 -85 129 -85 140 -92 c 0,20,21
 173 -111 173 -111 205.5 -122 c 128,-1,22
 238 -133 238 -133 286 -133 c 0,23,24
 377 -133 377 -133 411 -66 c 1,25,-1
 286 -66 l 2,26,27
 270 -66 270 -66 260 -58.5 c 128,-1,28
 250 -51 250 -51 250 -39 c 0,29,30
 250 -26 250 -26 260 -18.5 c 128,-1,31
 270 -11 270 -11 286 -11 c 2,32,-1
 428 -11 l 1,33,34
 431 7 431 7 431 26 c 2,35,-1
 431 116 l 1,36,37
 410 71 410 71 366.5 46.5 c 128,-1,38
 323 22 323 22 264 22 c 0,39,40
 200 22 200 22 150.5 51.5 c 128,-1,41
 101 81 101 81 73.5 134 c 128,-1,42
 46 187 46 187 46 257 c 0,43,44
 46 329 46 329 73.5 384 c 128,-1,45
 101 439 101 439 150.5 469 c 128,-1,46
 200 499 200 499 264 499 c 0,47,48
 322 499 322 499 365 474 c 128,-1,49
 408 449 408 449 430 403 c 1,50,-1
 430 457 l 2,51,52
 430 475 430 475 440.5 486 c 128,-1,53
 451 497 451 497 470 497 c 256,54,55
 489 497 489 497 500 486 c 128,-1,56
 511 475 511 475 511 457 c 2,57,-1
 511 33 l 2,58,59
 511 17 511 17 509 -11 c 1,60,-1
 544 -11 l 2,61,0
 561 -11 561 -11 571 -18.5 c 128,-1,1
390.5 130.5 m 128,-1,63
 430 176 430 176 430 257 c 256,64,65
 430 338 430 338 390.5 384.5 c 128,-1,66
 351 431 351 431 280 431 c 256,67,68
 209 431 209 431 168.5 384.5 c 128,-1,69
 128 338 128 338 128 257 c 256,70,71
 128 176 128 176 168.5 130.5 c 128,-1,72
 209 85 209 85 280 85 c 256,73,62
 351 85 351 85 390.5 130.5 c 128,-1,63
EndSplineSet
EndChar

StartChar: uni01EA
Encoding: 339 490 341
Width: 764
GlyphClass: 2
Flags: W
AnchorPoint: "Anchor-11" 382 705 basechar 0
LayerCount: 2
Fore
SplineSet
404 -77 m 0,1,2
 404 -106 404 -106 421.5 -123 c 128,-1,3
 439 -140 439 -140 468 -140 c 0,4,5
 489 -140 489 -140 516 -128 c 0,6,7
 520 -126 520 -126 527 -126 c 0,8,9
 536 -126 536 -126 542 -133 c 128,-1,10
 548 -140 548 -140 548 -149 c 0,11,12
 548 -165 548 -165 533 -174 c 0,13,14
 497 -193 497 -193 458 -193 c 0,15,16
 406 -193 406 -193 373.5 -163.5 c 128,-1,17
 341 -134 341 -134 341 -88 c 0,18,19
 341 -43 341 -43 373 -9 c 1,20,21
 278 -7 278 -7 207.5 37.5 c 128,-1,22
 137 82 137 82 99 163 c 128,-1,23
 61 244 61 244 61 352 c 0,24,25
 61 463 61 463 99.5 544.5 c 128,-1,26
 138 626 138 626 210.5 669.5 c 128,-1,27
 283 713 283 713 382 713 c 256,28,29
 481 713 481 713 553.5 669.5 c 128,-1,30
 626 626 626 626 664.5 544.5 c 128,-1,31
 703 463 703 463 703 353 c 0,32,33
 703 216 703 216 644.5 125.5 c 128,-1,34
 586 35 586 35 480 4 c 0,35,0
 404 -17 404 -17 404 -77 c 0,1,2
207.5 138 m 128,-1,37
 270 62 270 62 382 62 c 256,38,39
 494 62 494 62 556.5 137.5 c 128,-1,40
 619 213 619 213 619 353 c 256,41,42
 619 493 619 493 557 568 c 128,-1,43
 495 643 495 643 382 643 c 0,44,45
 270 643 270 643 207.5 567.5 c 128,-1,46
 145 492 145 492 145 353 c 256,47,36
 145 214 145 214 207.5 138 c 128,-1,37
EndSplineSet
EndChar

StartChar: uni01EB
Encoding: 340 491 342
Width: 555
GlyphClass: 2
Flags: W
AnchorPoint: "Anchor-11" 277 491 basechar 0
LayerCount: 2
Fore
SplineSet
298.5 -26 m 128,-1,1
 279 -46 279 -46 279 -77 c 0,2,3
 279 -106 279 -106 296.5 -123 c 128,-1,4
 314 -140 314 -140 343 -140 c 0,5,6
 364 -140 364 -140 391 -128 c 0,7,8
 395 -126 395 -126 402 -126 c 0,9,10
 411 -126 411 -126 417 -133 c 128,-1,11
 423 -140 423 -140 423 -149 c 0,12,13
 423 -165 423 -165 408 -174 c 0,14,15
 372 -193 372 -193 333 -193 c 0,16,17
 281 -193 281 -193 249 -164 c 128,-1,18
 217 -135 217 -135 217 -88 c 0,19,20
 217 -38 217 -38 251 -6 c 1,21,22
 157 3 157 3 101.5 70.5 c 128,-1,23
 46 138 46 138 46 246 c 0,24,25
 46 322 46 322 74.5 379.5 c 128,-1,26
 103 437 103 437 155.5 468 c 128,-1,27
 208 499 208 499 277 499 c 256,28,29
 346 499 346 499 399 468 c 128,-1,30
 452 437 452 437 480.5 379.5 c 128,-1,31
 509 322 509 322 509 246 c 0,32,33
 509 156 509 156 470 93 c 128,-1,34
 431 30 431 30 362 7 c 0,35,0
 318 -6 318 -6 298.5 -26 c 128,-1,1
166.5 108 m 128,-1,37
 205 60 205 60 277 60 c 256,38,39
 349 60 349 60 387.5 107.5 c 128,-1,40
 426 155 426 155 426 246 c 0,41,42
 426 335 426 335 387 383.5 c 128,-1,43
 348 432 348 432 277 432 c 256,44,45
 206 432 206 432 167 383.5 c 128,-1,46
 128 335 128 335 128 246 c 0,47,36
 128 156 128 156 166.5 108 c 128,-1,37
EndSplineSet
EndChar

StartChar: Aringacute
Encoding: 342 506 344
Width: 727
GlyphClass: 2
Flags: W
LayerCount: 2
Fore
SplineSet
698 30 m 0,1,2
 698 15 698 15 686.5 5 c 128,-1,3
 675 -5 675 -5 659 -5 c 0,4,5
 634 -5 634 -5 624 19 c 2,6,-1
 553 181 l 1,7,-1
 176 181 l 1,8,-1
 104 19 l 2,9,10
 94 -5 94 -5 69 -5 c 0,11,12
 53 -5 53 -5 41 5.5 c 128,-1,13
 29 16 29 16 29 31 c 0,14,15
 29 39 29 39 33 47 c 2,16,-1
 320 683 l 1,17,18
 294 695 294 695 278.5 719 c 128,-1,19
 263 743 263 743 263 773 c 0,20,21
 263 815 263 815 292.5 843.5 c 128,-1,22
 322 872 322 872 364 872 c 0,23,24
 394 872 394 872 420 856 c 1,25,-1
 519 935 l 2,26,27
 533 946 533 946 548 946 c 0,28,29
 564 946 564 946 575.5 934 c 128,-1,30
 587 922 587 922 587 906 c 0,31,32
 587 880 587 880 558 868 c 2,33,-1
 453 820 l 1,34,35
 465 799 465 799 465 773 c 0,36,37
 465 743 465 743 449.5 719 c 128,-1,38
 434 695 434 695 408 683 c 1,39,-1
 694 47 l 2,40,0
 698 39 698 39 698 30 c 0,1,2
329.5 808.5 m 128,-1,42
 316 794 316 794 316 773 c 256,43,44
 316 752 316 752 329.5 737.5 c 128,-1,45
 343 723 343 723 364 723 c 256,46,47
 385 723 385 723 398.5 737.5 c 128,-1,48
 412 752 412 752 412 773 c 256,49,50
 412 794 412 794 398.5 808.5 c 128,-1,51
 385 823 385 823 364 823 c 256,52,41
 343 823 343 823 329.5 808.5 c 128,-1,42
206 249 m 1,53,-1
 523 249 l 1,54,-1
 364 608 l 1,55,-1
 206 249 l 1,53,-1
EndSplineSet
EndChar

StartChar: aringacute
Encoding: 343 507 345
Width: 530
GlyphClass: 2
Flags: W
LayerCount: 2
Fore
SplineSet
452 855 m 0,1,2
 468 855 468 855 479.5 843.5 c 128,-1,3
 491 832 491 832 491 816 c 0,4,5
 491 794 491 794 469 780 c 2,6,-1
 361 705 l 1,7,8
 375 682 375 682 375 653 c 0,9,10
 375 611 375 611 345.5 582.5 c 128,-1,11
 316 554 316 554 274 554 c 256,12,13
 232 554 232 554 202.5 582.5 c 128,-1,14
 173 611 173 611 173 653 c 256,15,16
 173 695 173 695 202.5 723.5 c 128,-1,17
 232 752 232 752 274 752 c 0,18,19
 302 752 302 752 329 737 c 1,20,-1
 418 838 l 2,21,0
 434 855 434 855 452 855 c 0,1,2
308.5 617.5 m 128,-1,23
 322 632 322 632 322 653 c 256,24,25
 322 674 322 674 308.5 688.5 c 128,-1,26
 295 703 295 703 274 703 c 256,27,28
 253 703 253 703 239.5 688.5 c 128,-1,29
 226 674 226 674 226 653 c 256,30,31
 226 632 226 632 239.5 617.5 c 128,-1,32
 253 603 253 603 274 603 c 256,33,22
 295 603 295 603 308.5 617.5 c 128,-1,23
457 307 m 2,35,-1
 457 35 l 2,36,37
 457 17 457 17 446.5 6 c 128,-1,38
 436 -5 436 -5 418 -5 c 256,39,40
 400 -5 400 -5 389 6 c 128,-1,41
 378 17 378 17 378 35 c 2,42,-1
 378 83 l 1,43,44
 359 40 359 40 320 16.5 c 128,-1,45
 281 -7 281 -7 230 -7 c 0,46,47
 183 -7 183 -7 143.5 12 c 128,-1,48
 104 31 104 31 81 65 c 128,-1,49
 58 99 58 99 58 140 c 0,50,51
 58 195 58 195 86 225.5 c 128,-1,52
 114 256 114 256 178 269.5 c 128,-1,53
 242 283 242 283 356 283 c 2,54,-1
 378 283 l 1,55,-1
 378 316 l 2,56,57
 378 376 378 376 353.5 404 c 128,-1,58
 329 432 329 432 274 432 c 0,59,60
 206 432 206 432 136 395 c 0,61,62
 109 378 109 378 98 378 c 0,63,64
 86 378 86 378 78 387 c 128,-1,65
 70 396 70 396 70 410 c 256,66,67
 70 424 70 424 78.5 434.5 c 128,-1,68
 87 445 87 445 106 456 c 0,69,70
 141 476 141 476 185.5 487.5 c 128,-1,71
 230 499 230 499 274 499 c 0,72,34
 457 499 457 499 457 307 c 2,35,-1
339.5 97.5 m 128,-1,74
 378 138 378 138 378 202 c 2,75,-1
 378 231 l 1,76,-1
 360 231 l 2,77,78
 272 231 272 231 226 223.5 c 128,-1,79
 180 216 180 216 160.5 198.5 c 128,-1,80
 141 181 141 181 141 147 c 0,81,82
 141 108 141 108 169.5 82.5 c 128,-1,83
 198 57 198 57 241 57 c 0,84,73
 301 57 301 57 339.5 97.5 c 128,-1,74
EndSplineSet
Substitution2: "'ss01' Style Set 1 lookup 29 subtable" aringacute.ss01
Substitution2: "'salt' Stylistic Alternatives lookup 28 subtable" aringacute.ss01
Substitution2: "'aalt' Access All Alternates lookup 0 subtable" aringacute.ss01
EndChar

StartChar: uni0228
Encoding: 378 552 380
Width: 582
GlyphClass: 2
Flags: W
AnchorPoint: "Anchor-11" 324 705 basechar 0
AnchorPoint: "Anchor-10" 513 10 basechar 0
AnchorPoint: "Anchor-9" 324 0 basechar 0
LayerCount: 2
Fore
SplineSet
531 59.5 m 128,-1,1
 541 51 541 51 541 34 c 0,2,3
 541 18 541 18 531 9 c 128,-1,4
 521 0 521 0 503 0 c 2,5,-1
 343 0 l 1,6,-1
 338 -44 l 1,7,8
 350 -41 350 -41 364 -41 c 0,9,10
 395 -41 395 -41 416.5 -58.5 c 128,-1,11
 438 -76 438 -76 438 -110 c 0,12,13
 438 -147 438 -147 407 -170 c 128,-1,14
 376 -193 376 -193 320 -193 c 0,15,16
 284 -193 284 -193 252 -181 c 0,17,18
 244 -178 244 -178 239.5 -171.5 c 128,-1,19
 235 -165 235 -165 235 -158 c 0,20,21
 235 -149 235 -149 241 -142.5 c 128,-1,22
 247 -136 247 -136 257 -136 c 0,23,24
 262 -136 262 -136 265 -137 c 0,25,26
 292 -145 292 -145 321 -145 c 0,27,28
 349 -145 349 -145 363.5 -136 c 128,-1,29
 378 -127 378 -127 378 -110 c 0,30,31
 378 -97 378 -97 370 -90 c 128,-1,32
 362 -83 362 -83 347 -83 c 0,33,34
 336 -83 336 -83 319 -87.5 c 128,-1,35
 302 -92 302 -92 298 -92 c 0,36,37
 290 -92 290 -92 283.5 -86.5 c 128,-1,38
 277 -81 277 -81 278 -73 c 2,39,-1
 287 0 l 1,40,-1
 129 0 l 2,41,42
 110 0 110 0 98.5 11 c 128,-1,43
 87 22 87 22 87 40 c 2,44,-1
 87 665 l 2,45,46
 87 683 87 683 98.5 694 c 128,-1,47
 110 705 110 705 129 705 c 2,48,-1
 503 705 l 2,49,50
 521 705 521 705 531 696 c 128,-1,51
 541 687 541 687 541 671 c 256,52,53
 541 655 541 655 531 646 c 128,-1,54
 521 637 521 637 503 637 c 2,55,-1
 168 637 l 1,56,-1
 168 392 l 1,57,-1
 483 392 l 2,58,59
 501 392 501 392 511 383 c 128,-1,60
 521 374 521 374 521 358 c 256,61,62
 521 342 521 342 511 333 c 128,-1,63
 501 324 501 324 483 324 c 2,64,-1
 168 324 l 1,65,-1
 168 68 l 1,66,-1
 503 68 l 2,67,0
 521 68 521 68 531 59.5 c 128,-1,1
EndSplineSet
EndChar

StartChar: uni0237
Encoding: 387 567 389
Width: 232
GlyphClass: 2
Flags: W
AnchorPoint: "Anchor-11" 116 491 basechar 0
AnchorPoint: "Anchor-9" 116 0 basechar 0
LayerCount: 2
Fore
SplineSet
-63.5 -175.5 m 128,-1,1
 -76 -167 -76 -167 -76 -150 c 0,2,3
 -76 -123 -76 -123 -41 -119 c 2,4,-1
 -13 -117 l 2,5,6
 32 -114 32 -114 53.5 -90 c 128,-1,7
 75 -66 75 -66 75 -11 c 2,8,-1
 75 457 l 2,9,10
 75 476 75 476 86.5 486.5 c 128,-1,11
 98 497 98 497 116 497 c 256,12,13
 134 497 134 497 145 486.5 c 128,-1,14
 156 476 156 476 156 457 c 2,15,-1
 156 -6 l 2,16,17
 156 -90 156 -90 118.5 -132 c 128,-1,18
 81 -174 81 -174 2 -180 c 2,19,-1
 -26 -182 l 2,20,0
 -51 -184 -51 -184 -63.5 -175.5 c 128,-1,1
EndSplineSet
EndChar

StartChar: uni0259
Encoding: 388 601 390
Width: 527
GlyphClass: 2
Flags: W
LayerCount: 2
Fore
SplineSet
417.5 431.5 m 128,-1,1
 482 364 482 364 482 247 c 0,2,3
 482 171 482 171 453.5 113.5 c 128,-1,4
 425 56 425 56 373.5 24.5 c 128,-1,5
 322 -7 322 -7 255 -7 c 0,6,7
 157 -7 157 -7 100.5 54.5 c 128,-1,8
 44 116 44 116 44 223 c 0,9,10
 44 261 44 261 79 261 c 2,11,-1
 401 261 l 1,12,13
 397 345 397 345 356 388.5 c 128,-1,14
 315 432 315 432 241 432 c 0,15,16
 201 432 201 432 172.5 421.5 c 128,-1,17
 144 411 144 411 114 393 c 0,18,19
 88 378 88 378 79 378 c 0,20,21
 68 378 68 378 60 387 c 128,-1,22
 52 396 52 396 52 410 c 0,23,24
 52 436 52 436 87 456 c 0,25,26
 160 499 160 499 242 499 c 0,27,0
 353 499 353 499 417.5 431.5 c 128,-1,1
356 95 m 128,-1,29
 394 135 394 135 401 209 c 1,30,-1
 118 209 l 1,31,32
 121 133 121 133 155.5 94 c 128,-1,33
 190 55 190 55 254 55 c 256,34,28
 318 55 318 55 356 95 c 128,-1,29
EndSplineSet
EndChar

StartChar: uni02BB
Encoding: 390 699 392
Width: 300
GlyphClass: 4
Flags: W
AnchorPoint: "Anchor-15" 150 685 basemark 0
LayerCount: 2
Fore
SplineSet
184.5 656 m 128,-1,1
 199 644 199 644 199 622 c 0,2,3
 199 601 199 601 185.5 588 c 128,-1,4
 172 575 172 575 151 575 c 0,5,6
 124 575 124 575 108.5 591.5 c 128,-1,7
 93 608 93 608 93 643 c 0,8,9
 93 705 93 705 135 753 c 0,10,11
 146 765 146 765 161 765 c 0,12,13
 170 765 170 765 176.5 759.5 c 128,-1,14
 183 754 183 754 183 746 c 0,15,16
 183 736 183 736 176 728 c 0,17,18
 153 700 153 700 148 668 c 1,19,-1
 149 668 l 2,20,0
 170 668 170 668 184.5 656 c 128,-1,1
EndSplineSet
EndChar

StartChar: uni02BC
Encoding: 391 700 393
Width: 300
GlyphClass: 2
Flags: W
LayerCount: 2
Fore
SplineSet
199 691 m 0,1,2
 199 629 199 629 157 581 c 0,3,4
 146 569 146 569 132 569 c 0,5,6
 123 569 123 569 116 574.5 c 128,-1,7
 109 580 109 580 109 588 c 0,8,9
 109 597 109 597 116 605 c 0,10,11
 141 636 141 636 145 666 c 1,12,-1
 144 666 l 2,13,14
 122 666 122 666 107.5 678 c 128,-1,15
 93 690 93 690 93 712 c 0,16,17
 93 733 93 733 107 745.5 c 128,-1,18
 121 758 121 758 142 758 c 0,19,0
 199 758 199 758 199 691 c 0,1,2
EndSplineSet
EndChar

StartChar: uni02BE
Encoding: 392 702 394
Width: 300
GlyphClass: 4
Flags: W
AnchorPoint: "Anchor-15" 150 685 basemark 0
LayerCount: 2
Fore
SplineSet
184.5 617.5 m 128,-1,1
 198 632 198 632 198 653 c 256,2,3
 198 674 198 674 184.5 688.5 c 128,-1,4
 171 703 171 703 150 703 c 1,5,-1
 150 752 l 1,6,7
 192 752 192 752 221.5 723.5 c 128,-1,8
 251 695 251 695 251 653 c 256,9,10
 251 611 251 611 221.5 582.5 c 128,-1,11
 192 554 192 554 150 554 c 1,12,-1
 150 603 l 1,13,0
 171 603 171 603 184.5 617.5 c 128,-1,1
EndSplineSet
Substitution2: "Single Substitution lookup 30 subtable" uni02BE.case
Substitution2: "'case' Case-Sensitive Forms lookup 26 subtable" uni02BE.case
Substitution2: "'aalt' Access All Alternates lookup 0 subtable" uni02BE.case
EndChar

